<svg width="151" height="26" viewBox="0 0 151 26" fill="none" xmlns="http://www.w3.org/2000/svg">
<path d="M0.0189209 0.0297391H150.022V25.0793H0.0189209V0.0297391Z" fill="#004C8F"/>
<path d="M25.0615 0.0297391H150.022V25.0793H25.0615V0.0297391Z" fill="#004C8F"/>
<path d="M32.9032 18.3741V6.48187H36.824V10.5303H40.4919V6.48187H44.4127V18.3741H40.4919V13.8197H36.824V18.3741H32.9032Z" fill="white"/>
<path d="M50.61 9.51822H51.6219C52.3807 9.51822 52.8866 9.64471 53.266 9.77122C53.519 9.89774 53.772 10.0242 53.8984 10.2773C54.0249 10.5303 54.1514 10.7833 54.2779 11.1629C54.4044 11.5424 54.4043 11.922 54.4043 12.428C54.4043 13.0606 54.2779 13.6931 54.1514 14.1992C53.8985 14.7052 53.6455 14.9583 53.266 15.2113C52.8866 15.4643 52.3807 15.4643 51.6219 15.4643H50.61V9.51822ZM52.0013 18.3741C52.8866 18.3741 53.6455 18.2476 54.2779 18.1211C54.9103 17.9946 55.4162 17.7416 55.7956 17.4885C56.175 17.2355 56.5545 16.856 56.9339 16.4764C57.3133 15.9704 57.5663 15.4643 57.8193 14.7052C58.0722 14.0727 58.1987 13.1871 58.1987 12.3015C58.1987 11.0364 57.9458 9.89773 57.4398 9.01213C56.9339 8.12654 56.3015 7.49398 55.4162 7.11444C54.5308 6.7349 53.519 6.48187 52.2542 6.48187H46.8157V18.3741H52.0013Z" fill="white"/>
<path d="M59.9695 18.3741V6.48187H69.2023V9.3917H63.7638V11.2894H68.0641V14.0727H63.7638V18.2476L59.9695 18.3741Z" fill="white"/>
<path d="M82.2295 11.1629H78.5616C78.4352 10.5303 78.3087 10.1508 77.9292 9.77124C77.5498 9.3917 77.1704 9.26519 76.538 9.26519C75.9056 9.26519 75.2732 9.51823 74.8938 10.0243C74.5144 10.5303 74.2614 11.4159 74.2614 12.5545C74.2614 13.4401 74.3879 13.9462 74.5144 14.4522C74.6408 14.8318 75.0202 15.2113 75.2732 15.4643C75.6526 15.7174 76.0321 15.7174 76.538 15.7174C77.1704 15.7174 77.5498 15.5909 77.9292 15.2113C78.3087 14.8318 78.4352 14.4522 78.5616 13.6932H82.356C82.2295 14.4522 82.103 15.0848 81.8501 15.5909C81.5971 16.0969 81.3442 16.603 80.8383 17.109C80.3323 17.6151 79.6999 17.9946 79.0675 18.2476C78.4351 18.5007 77.5498 18.6272 76.6645 18.6272C75.7791 18.6272 74.8938 18.5007 74.1349 18.2476C73.376 17.9946 72.7437 17.6151 72.2377 17.109C71.7318 16.603 71.3524 16.0969 70.973 15.4643C70.5935 14.5787 70.3406 13.5667 70.3406 12.5545C70.3406 11.669 70.467 10.7834 70.8465 10.0243C71.0994 9.2652 71.6053 8.50612 72.1113 8.00006C72.6172 7.49401 73.2496 7.11447 73.882 6.73493C74.6408 6.35539 75.5262 6.22888 76.538 6.22888C77.4233 6.22888 78.1822 6.35538 78.9411 6.60841C79.7 6.86144 80.3323 7.24097 80.8383 7.74702C81.3442 8.25307 81.7236 8.75915 81.9765 9.39172C81.9765 9.89777 82.103 10.4038 82.2295 11.1629Z" fill="white"/>
<path d="M94.6243 9.26518C95.1302 9.26518 95.5096 9.26518 95.7626 9.3917C96.0155 9.51821 96.142 9.64471 96.2685 9.77122C96.395 9.89774 96.5215 10.1508 96.5215 10.4038C96.5215 10.6568 96.395 10.9098 96.142 11.1629C95.8891 11.4159 95.5096 11.4159 94.8772 11.4159H93.3595V9.3917H94.6243V9.26518ZM95.6361 18.3741C96.5214 18.3741 97.1538 18.3741 97.5333 18.2476C97.9127 18.1211 98.2921 17.9946 98.6716 17.8681C99.051 17.615 99.304 17.4885 99.5569 17.2355C99.8099 16.9825 100.063 16.6029 100.189 16.2234C100.316 15.8439 100.442 15.3378 100.442 14.8318C100.442 14.0727 100.316 13.5666 99.9363 13.0606C99.5569 12.5545 99.051 12.3015 98.5451 12.0485C99.5569 11.4159 100.063 10.5303 100.063 9.51822C100.063 8.50611 99.5569 7.62049 98.6716 7.11444C98.0392 6.7349 96.9009 6.48187 95.3832 6.48187H89.5652V18.3741H95.6361ZM95.0037 13.4401C95.7626 13.4401 96.2685 13.5666 96.5215 13.6931C96.7744 13.9462 96.9009 14.1992 96.9009 14.4522C96.9009 14.8318 96.7744 15.0848 96.5215 15.3378C96.2685 15.5908 95.7626 15.5908 95.0037 15.5908H93.3595V13.3136L95.0037 13.4401Z" fill="white"/>
<path d="M109.043 14.4522H106.513L107.778 10.1508L109.043 14.4522ZM105.502 18.3741L106.007 16.856H109.928L110.434 18.3741H114.355L110.055 6.48187H106.134L101.834 18.3741H105.502Z" fill="white"/>
<path d="M115.746 18.3741V6.48187H119.414L123.461 12.8075V6.48187H127.129V18.3741H123.461L119.414 12.175V18.3741H115.746Z" fill="white"/>
<path d="M129.785 18.3741V6.48187H133.579V10.5303L137.121 6.60839H141.674L137.374 11.0364L142.18 18.3741H137.5L134.718 13.6931L133.706 14.7052V18.3741H129.785Z" fill="white"/>
<path d="M0.0189209 0.0297391H25.0615V25.0793H0.0189209V0.0297391Z" fill="#ED232A"/>
<path d="M4.44568 4.3312H20.6349V20.6514H4.44568V4.3312Z" fill="white"/>
<path d="M11.2755 0.0297391H13.8051V25.0793H11.2755V0.0297391Z" fill="white"/>
<path d="M0.0189209 11.2894H25.0615V13.8197H0.0189209V11.2894Z" fill="white"/>
<path d="M8.74597 8.75918H16.2082V16.2234H8.74597V8.75918Z" fill="#004C8F"/>
</svg>
