<svg width="150" height="46" viewBox="0 0 150 46" fill="none" xmlns="http://www.w3.org/2000/svg">
<path fill-rule="evenodd" clip-rule="evenodd" d="M0 23.4481C0 10.9961 11.737 0.900085 26.217 0.900085C40.697 0.900085 52.433 10.9961 52.433 23.4481C52.433 35.9001 40.696 45.9961 26.217 45.9961C11.738 45.9961 0 35.9016 0 23.4481Z" fill="#003874"/>
<path fill-rule="evenodd" clip-rule="evenodd" d="M23.0335 8.14162L29.1245 6.12912L29.1545 39.0556L23.012 41.1136L23.0335 8.14162ZM86.392 36.4826C92.2455 36.4826 96.7035 33.0786 96.7035 27.2206C96.7035 21.3306 92.2455 17.9206 86.392 17.9206C80.542 17.9206 76.0835 21.3206 76.0835 27.2206C76.0835 33.0791 80.5415 36.4826 86.392 36.4826ZM86.392 32.1936C83.569 32.1936 82.4135 29.8436 82.4135 27.2206C82.4135 24.5631 83.5635 22.2206 86.392 22.2206C89.2205 22.2206 90.3735 24.5676 90.3735 27.2206C90.3735 29.8436 89.2235 32.1936 86.392 32.1936ZM96.141 22.6236H99.641V29.8436C99.641 34.0636 100.968 36.4826 106.444 36.4826C107.975 36.4826 109.134 36.2826 110.294 36.1426L110.094 32.1596C109.482 32.2611 108.835 32.3971 108.224 32.3971C106.284 32.3971 105.772 31.3071 105.772 29.1621V22.6236H110.06V18.3336H105.772L105.771 12.1986L99.752 14.3486V18.3336H96.145V22.6236M131.495 36.0751H137.62V27.2901H137.687L142.588 36.0751H150L143.33 26.4726L149.488 18.3346H142.786L137.682 25.7916H137.615V12.2216L131.49 14.3501V36.0801" fill="#ED1C24"/>
<path fill-rule="evenodd" clip-rule="evenodd" d="M59.775 36.0751H65.902V27.2901H65.969L70.87 36.0751H78.2865L71.6165 26.4726L77.775 18.3351H71.0735L65.97 25.7921H65.903V12.2221L59.776 14.2421V36.0751M129.316 36.1576C129.04 34.7461 128.966 33.3326 128.966 31.9186V25.2336C128.966 19.7536 125.005 17.7836 120.425 17.7836C117.774 17.7836 115.466 18.1616 113.263 19.0586L113.363 23.2621C115.082 22.2986 117.081 21.9121 119.078 21.9121C121.317 21.9121 123.141 22.5681 123.175 25.0146C122.219 24.8575 121.252 24.7771 120.284 24.7741C116.984 24.7741 111.022 25.4301 111.022 30.9091C111.022 34.8031 114.19 36.5591 117.736 36.5591C120.284 36.5591 122.005 35.5591 123.418 33.3206H123.5C123.5 34.2506 123.603 35.1816 123.638 36.1456H129.321L129.316 36.1576ZM116.814 30.4726C116.814 28.7486 118.468 28.0946 120.568 28.0946C121.498 28.0946 122.395 28.1631 123.185 28.1976C123.185 30.3006 121.705 32.4351 119.365 32.4351C117.917 32.4351 116.814 31.7121 116.814 30.4726Z" fill="#ED1C24"/>
<path fill-rule="evenodd" clip-rule="evenodd" d="M45.933 25.7181C45.3615 30.4281 42.7195 35.1866 36.9505 35.1956C33.5825 35.2016 30.9515 32.8956 29.1295 30.0741V26.8061C31.4095 27.9381 33.5405 29.1531 36.126 29.1901C39.311 29.2371 42.191 28.0126 43.382 25.7176H45.9335L45.933 25.7181ZM26.648 28.6756C24.0015 31.8656 21.444 35.1241 16.652 35.1241C9.88347 35.1241 6.67297 28.5801 6.67297 23.1091C6.67297 17.8521 9.18197 11.6291 15.776 11.6291C18.636 11.6291 21.389 13.3781 23.03 15.2281L23.025 19.6906C21.654 18.7676 18.583 17.8621 16.578 17.8296C12.3965 17.7596 8.70997 19.5721 8.77397 23.6996C8.81747 26.5411 11.633 28.4726 14.434 28.4726C18.724 28.4726 21.323 24.5536 23.495 21.5791C24.3658 20.4436 25.2267 19.3006 26.0775 18.1501C28.49 14.7791 31.2815 11.7016 36.0735 11.7016C41.7185 11.7016 44.8875 16.2516 45.7835 20.9356H43.2335C42.2085 19.4166 40.237 18.4871 38.295 18.4871C33.86 18.4871 31.21 22.5671 28.992 25.5711L26.642 28.6751" fill="white"/>
</svg>
