<svg width="150" height="150" viewBox="0 0 150 150" fill="none" xmlns="http://www.w3.org/2000/svg">
<path d="M150 111.935C150 112.757 149.974 114.529 149.923 115.916C149.795 119.281 149.538 123.622 149.127 125.599C148.51 128.579 147.611 131.378 146.404 133.716C144.991 136.49 143.193 138.955 141.036 141.087C138.904 143.219 136.438 145.017 133.664 146.43C131.327 147.637 128.502 148.536 125.497 149.152C123.545 149.538 119.229 149.82 115.89 149.923C114.503 149.974 112.731 150 111.909 150H38.0394C37.2175 150 35.4452 149.974 34.0582 149.923C30.6935 149.795 26.3527 149.538 24.375 149.127C21.3955 148.51 18.5959 147.611 16.2586 146.404C13.4846 144.991 11.0188 143.193 8.88699 141.036C6.75514 138.904 4.95719 136.438 3.54452 133.664C2.33733 131.327 1.43836 128.502 0.821918 125.497C0.436644 123.545 0.15411 119.229 0.0513699 115.89C0.0256849 114.529 0 112.757 0 111.935V38.0651C0 37.2432 0.0256849 35.4709 0.0770548 34.0839C0.205479 30.7192 0.462329 26.3784 0.873288 24.4007C1.48973 21.4212 2.3887 18.6216 3.59589 16.2842C5.00856 13.5103 6.80651 11.0445 8.93836 8.91267C11.0702 6.78082 13.536 4.98288 16.3099 3.57021C18.6473 2.36301 21.4726 1.46404 24.4777 0.847603C26.4298 0.462329 30.7449 0.179795 34.0839 0.0770548C35.4709 0.0256849 37.2432 0 38.0651 0H111.935C112.757 0 114.529 0.0256849 115.916 0.0770548C119.281 0.205479 123.622 0.462329 125.599 0.873288C128.579 1.48973 131.378 2.3887 133.716 3.59589C136.49 5.00856 138.955 6.80651 141.087 8.96404C143.219 11.0959 145.017 13.5616 146.43 16.3356C147.637 18.6729 148.536 21.4983 149.152 24.5034C149.538 26.4555 149.82 30.7705 149.923 34.1096C149.974 35.4966 150 37.2688 150 38.0908V111.935Z" fill="url(#paint0_linear_42_298)"/>
<mask id="mask0_42_298" style="mask-type:luminance" maskUnits="userSpaceOnUse" x="29" y="29" width="92" height="92">
<path d="M55.9489 29.3185C51.0544 29.5496 47.7115 30.3335 44.7903 31.4782C41.7663 32.6571 39.2028 34.237 36.6527 36.7975C34.0997 39.3595 32.5318 41.9275 31.3618 44.9545C30.2291 47.8832 29.4615 51.2278 29.2454 56.1252C29.0308 61.0317 28.9816 62.5967 29.0055 75.0879C29.0293 87.5776 29.0845 89.1455 29.3184 94.0535C29.5524 98.9466 30.3335 102.288 31.4781 105.211C32.6585 108.235 34.2368 110.797 36.7987 113.348C39.3593 115.9 41.9287 117.467 44.9572 118.638C47.8829 119.769 51.2288 120.54 56.1248 120.754C61.0312 120.971 62.5976 121.018 75.0857 120.994C87.5797 120.971 89.1462 120.915 94.0526 120.683C98.947 120.449 102.287 119.665 105.211 118.523C108.235 117.34 110.799 115.764 113.349 113.202C115.899 110.642 117.467 108.072 118.637 105.044C119.769 102.118 120.54 98.7722 120.753 93.8791C120.968 88.9697 121.018 87.4017 120.995 74.912C120.971 62.4208 120.914 60.8558 120.682 55.9509C120.449 51.0534 119.665 47.7133 118.522 44.7891C117.34 41.7651 115.763 39.2045 113.203 36.6514C110.642 34.1013 108.073 32.5304 105.044 31.3634C102.117 30.2307 98.7726 29.4586 93.8766 29.247C88.9702 29.0294 87.4039 28.9817 74.9113 29.0056C62.4217 29.0294 60.8554 29.0831 55.9489 29.3185ZM56.4855 112.475C52.0009 112.28 49.5656 111.535 47.9425 110.91C45.7934 110.078 44.2597 109.081 42.6456 107.479C41.0345 105.871 40.0344 104.342 39.1953 102.197C38.5649 100.574 37.8063 98.1417 37.5961 93.657C37.3681 88.8087 37.316 87.354 37.2936 75.0715C37.2697 62.7919 37.3144 61.3372 37.5261 56.4845C37.7183 52.0027 38.4681 49.5644 39.091 47.9428C39.9226 45.7907 40.9167 44.26 42.5219 42.6459C44.13 41.0318 45.6592 40.0347 47.8054 39.1956C49.4269 38.5621 51.8593 37.8094 56.3424 37.5964C61.1937 37.3668 62.6468 37.3176 74.9262 37.2938C87.2086 37.2699 88.6632 37.3132 93.516 37.5263C97.9976 37.7215 100.436 38.4638 102.056 39.0912C104.207 39.9229 105.74 40.914 107.353 42.5222C108.965 44.1304 109.966 45.6565 110.805 47.8072C111.438 49.4243 112.191 51.8597 112.402 56.3414C112.633 61.1927 112.686 62.6473 112.708 74.9269C112.732 87.2095 112.687 88.6641 112.474 93.5139C112.279 97.9986 111.535 100.435 110.909 102.06C110.077 104.208 109.083 105.741 107.477 107.355C105.87 108.964 104.341 109.967 102.193 110.806C100.575 111.438 98.1392 112.192 93.659 112.405C88.8079 112.633 87.3547 112.685 75.0708 112.708C62.7913 112.731 61.3382 112.685 56.4855 112.475ZM93.9855 50.411C93.9914 53.4574 96.4685 55.9241 99.5148 55.9181C102.563 55.9122 105.029 53.4366 105.025 50.3901C105.019 47.3437 102.542 44.8756 99.494 44.8816C96.4462 44.8875 93.9795 47.3646 93.9855 50.411ZM51.3809 75.0446C51.4062 88.0903 62.0015 98.6425 75.0439 98.6171C88.088 98.5918 98.6459 87.9994 98.6206 74.9538C98.5953 61.9126 87.9985 51.3544 74.9531 51.3798C61.9105 51.4051 51.3555 62.002 51.3809 75.0446ZM59.666 75.0283C59.6511 66.5612 66.504 59.6829 74.9694 59.668C83.4365 59.6516 90.3161 66.5016 90.3325 74.9701C90.3489 83.4387 83.496 90.3155 75.0276 90.3319C66.5621 90.3483 59.6824 83.4969 59.666 75.0283Z" fill="white"/>
</mask>
<g mask="url(#mask0_42_298)">
<mask id="mask1_42_298" style="mask-type:luminance" maskUnits="userSpaceOnUse" x="25" y="25" width="100" height="100">
<path d="M124.643 25.3974H25.2828V124.759H124.643V25.3974Z" fill="white"/>
</mask>
<g mask="url(#mask1_42_298)">
<mask id="mask2_42_298" style="mask-type:luminance" maskUnits="userSpaceOnUse" x="24" y="24" width="102" height="102">
<path d="M125.103 24.9374H24.8228V125.219H125.103V24.9374Z" fill="white"/>
</mask>
<g mask="url(#mask2_42_298)">
<mask id="mask3_42_298" style="mask-type:luminance" maskUnits="userSpaceOnUse" x="24" y="24" width="102" height="102">
<path d="M125.103 24.9374H24.8228V125.219H125.103V24.9374Z" fill="white"/>
</mask>
<g mask="url(#mask3_42_298)">
<rect x="24.7902" y="24.9226" width="100.331" height="100.331" fill="white"/>
</g>
</g>
</g>
</g>
<defs>
<linearGradient id="paint0_linear_42_298" x1="75.0057" y1="150.011" x2="75.0057" y2="0" gradientUnits="userSpaceOnUse">
<stop stop-color="#ED1D24"/>
<stop offset="1" stop-color="#EA6F65"/>
</linearGradient>
</defs>
</svg>
