<svg width="150" height="150" viewBox="0 0 150 150" fill="none" xmlns="http://www.w3.org/2000/svg">
<path d="M127.807 127.81H105.582V93.0032C105.582 84.7031 105.434 74.0184 94.0224 74.0184C82.4467 74.0184 80.6756 83.0616 80.6756 92.3989V127.808H58.4502V56.2306H79.7865V66.0124H80.0852C82.2205 62.3614 85.306 59.3579 89.0131 57.3218C92.7203 55.2857 96.9103 54.2933 101.137 54.4502C123.663 54.4502 127.816 69.2676 127.816 88.544L127.807 127.81ZM33.3727 46.4465C30.8218 46.4469 28.3279 45.6909 26.2067 44.2741C24.0854 42.8572 22.4321 40.8431 21.4554 38.4864C20.4788 36.1298 20.2229 33.5365 20.7201 31.0344C21.2173 28.5323 22.4453 26.2339 24.2488 24.4298C26.0522 22.6256 28.3501 21.3968 30.8519 20.8986C33.3537 20.4005 35.947 20.6555 38.3039 21.6313C40.6608 22.6071 42.6754 24.2599 44.093 26.3807C45.5106 28.5015 46.2675 30.9951 46.268 33.5461C46.2683 35.2399 45.9349 36.9172 45.2871 38.4822C44.6392 40.0471 43.6895 41.4692 42.4921 42.6671C41.2946 43.865 39.8729 44.8153 38.3082 45.4638C36.7435 46.1123 35.0664 46.4462 33.3727 46.4465ZM44.4853 127.81H22.2369V56.2306H44.4853V127.81ZM138.887 0.0102197H11.0687C8.16756 -0.0225205 5.37199 1.0979 3.2965 3.12526C1.22101 5.15263 0.0354066 7.92108 0 10.8223V139.176C0.0341948 142.078 1.21911 144.848 3.29452 146.878C5.36994 148.907 8.16613 150.03 11.0687 149.999H138.887C141.796 150.036 144.6 148.916 146.683 146.887C148.767 144.857 149.96 142.084 150 139.176V10.813C149.959 7.90607 148.765 5.13447 146.681 3.10715C144.597 1.07983 141.794 -0.0373839 138.887 0.000955136" fill="#0A66C2"/>
</svg>
