<svg width="150" height="150" viewBox="0 0 150 150" fill="none" xmlns="http://www.w3.org/2000/svg">
<path d="M150 111.935C150 112.757 149.974 114.529 149.923 115.916C149.795 119.281 149.538 123.622 149.127 125.599C148.51 128.579 147.611 131.378 146.404 133.716C144.991 136.49 143.193 138.955 141.036 141.087C138.904 143.219 136.438 145.017 133.664 146.43C131.327 147.637 128.502 148.536 125.497 149.152C123.545 149.538 119.229 149.82 115.89 149.923C114.503 149.974 112.731 150 111.909 150H38.0394C37.2175 150 35.4452 149.974 34.0582 149.923C30.6935 149.795 26.3527 149.538 24.375 149.127C21.3955 148.51 18.5959 147.611 16.2586 146.404C13.4846 144.991 11.0188 143.193 8.88699 141.036C6.75514 138.904 4.95719 136.438 3.54452 133.664C2.33733 131.327 1.43836 128.502 0.821918 125.497C0.436644 123.545 0.15411 119.229 0.0513699 115.89C0.0256849 114.529 0 112.757 0 111.935V38.0651C0 37.2432 0.0256849 35.4709 0.0770548 34.0839C0.205479 30.7192 0.462329 26.3784 0.873288 24.4007C1.48973 21.4212 2.3887 18.6216 3.59589 16.2842C5.00856 13.5103 6.80651 11.0445 8.93836 8.91267C11.0702 6.78082 13.536 4.98288 16.3099 3.57021C18.6473 2.36301 21.4726 1.46404 24.4777 0.847603C26.4298 0.462329 30.7449 0.179795 34.0839 0.0770548C35.4709 0.0256849 37.2432 0 38.0651 0H111.935C112.757 0 114.529 0.0256849 115.916 0.0770548C119.281 0.205479 123.622 0.462329 125.599 0.873288C128.579 1.48973 131.378 2.3887 133.716 3.59589C136.49 5.00856 138.955 6.80651 141.087 8.96404C143.219 11.0959 145.017 13.5616 146.43 16.3356C147.637 18.6729 148.536 21.4983 149.152 24.5034C149.538 26.4555 149.82 30.7705 149.923 34.1096C149.974 35.4966 150 37.2688 150 38.0908V111.935Z" fill="url(#paint0_linear_42_296)"/>
<path fill-rule="evenodd" clip-rule="evenodd" d="M28.5583 69.7096C53.4877 58.8943 70.1518 51.904 78.4172 48.4747C102.147 38.7146 107.079 37 110.279 37C110.945 37 112.545 37.1319 113.612 37.9233C114.412 38.5827 114.678 39.506 114.811 40.1654C114.945 40.8249 115.078 42.2757 114.945 43.4628C113.612 56.784 108.146 89.3618 105.213 104.266C104.013 110.597 101.614 112.707 99.3472 112.971C94.4147 113.366 90.5486 109.673 85.7494 106.64C78.2839 101.76 74.0179 98.7262 66.6857 93.978C58.287 88.4385 63.7528 85.4049 68.552 80.5249C69.7519 79.2059 91.7484 59.5538 92.1483 57.7073C92.1483 57.4435 92.2817 56.6521 91.7484 56.2565C91.2152 55.8608 90.5486 55.9927 90.0153 56.1246C89.2155 56.2565 77.2174 64.1701 53.8877 79.7335C50.4216 82.1076 47.3554 83.1628 44.5558 83.1628C41.4896 83.1628 35.6239 81.4481 31.2246 79.9973C25.8921 78.2827 21.6261 77.3594 22.026 74.4578C22.4259 72.8751 24.5589 71.2923 28.5583 69.7096Z" fill="white"/>
<defs>
<linearGradient id="paint0_linear_42_296" x1="75.0057" y1="150.011" x2="75.0057" y2="0" gradientUnits="userSpaceOnUse">
<stop stop-color="#27A7E7"/>
<stop offset="1" stop-color="#2FB8F7"/>
</linearGradient>
</defs>
</svg>
