<svg width="150" height="150" viewBox="0 0 150 150" fill="none" xmlns="http://www.w3.org/2000/svg">
<path d="M150 111.935C150 112.757 149.974 114.529 149.923 115.916C149.795 119.281 149.538 123.622 149.127 125.599C148.51 128.579 147.611 131.378 146.404 133.716C144.991 136.49 143.193 138.955 141.036 141.087C138.904 143.219 136.438 145.017 133.664 146.43C131.327 147.637 128.502 148.536 125.497 149.152C123.545 149.538 119.229 149.82 115.89 149.923C114.503 149.974 112.731 150 111.909 150H38.0394C37.2175 150 35.4452 149.974 34.0582 149.923C30.6935 149.795 26.3527 149.538 24.375 149.127C21.3955 148.51 18.5959 147.611 16.2586 146.404C13.4846 144.991 11.0188 143.193 8.88699 141.036C6.75514 138.904 4.95719 136.438 3.54452 133.664C2.33733 131.327 1.43836 128.502 0.821918 125.497C0.436644 123.545 0.15411 119.229 0.0513699 115.89C0.0256849 114.529 0 112.757 0 111.935V38.0651C0 37.2432 0.0256849 35.4709 0.0770548 34.0839C0.205479 30.7192 0.462329 26.3784 0.873288 24.4007C1.48973 21.4212 2.3887 18.6216 3.59589 16.2842C5.00856 13.5103 6.80651 11.0445 8.93836 8.91267C11.0702 6.78082 13.536 4.98288 16.3099 3.57021C18.6473 2.36301 21.4726 1.46404 24.4777 0.847603C26.4298 0.462329 30.7449 0.179795 34.0839 0.0770548C35.4709 0.0256849 37.2432 0 38.0651 0H111.935C112.757 0 114.529 0.0256849 115.916 0.0770548C119.281 0.205479 123.622 0.462329 125.599 0.873288C128.579 1.48973 131.378 2.3887 133.716 3.59589C136.49 5.00856 138.955 6.80651 141.087 8.96404C143.219 11.0959 145.017 13.5616 146.43 16.3356C147.637 18.6729 148.536 21.4983 149.152 24.5034C149.538 26.4555 149.82 30.7705 149.923 34.1096C149.974 35.4966 150 37.2688 150 38.0908V111.935Z" fill="url(#paint0_linear_42_294)"/>
<path fill-rule="evenodd" clip-rule="evenodd" d="M114.452 35.9075C104.358 25.8133 90.9246 20.2397 76.6181 20.2397C47.1318 20.2397 23.1678 44.2294 23.1421 73.6901C23.1421 83.1164 25.6078 92.3116 30.2825 100.402L22.7054 128.116L51.0616 120.693C58.8698 124.957 67.6541 127.192 76.6181 127.192H76.6438C106.104 127.192 130.094 103.202 130.12 73.7414C130.12 59.4349 124.546 46.0017 114.452 35.9075ZM76.6438 118.151C68.6558 118.151 60.8219 115.993 54.0154 111.961L52.3972 111.01L35.5736 115.428L40.0685 99.0411L39.0154 97.3716C34.5719 90.3082 32.2089 82.1147 32.2089 73.7157C32.2089 49.2123 52.1661 29.2808 76.6695 29.2808C88.5359 29.2808 99.7089 33.9041 108.082 42.3031C116.481 50.702 121.104 61.875 121.079 73.7414C121.053 98.2192 101.122 118.151 76.6438 118.151ZM101.019 84.8887C99.6832 84.2209 93.1078 80.9846 91.9006 80.5479C90.6678 80.1113 89.7945 79.8801 88.8955 81.2157C87.9965 82.5514 85.4537 85.5565 84.6575 86.4555C83.887 87.3544 83.0907 87.4572 81.7551 86.7894C80.4195 86.1216 76.1044 84.7089 71.0188 80.1627C67.0376 76.6181 64.3664 72.2517 63.5959 70.9161C62.8253 69.5805 63.5188 68.8613 64.1866 68.1935C64.7774 67.6027 65.5222 66.6267 66.19 65.8562C66.8578 65.0856 67.089 64.5205 67.5257 63.6216C67.9623 62.7226 67.7568 61.952 67.4229 61.2842C67.089 60.6164 64.4178 54.0411 63.3133 51.3699C62.2346 48.7757 61.1301 49.1096 60.3082 49.0839C59.5376 49.0325 58.6387 49.0325 57.7397 49.0325C56.8407 49.0325 55.4024 49.3664 54.1695 50.702C52.9366 52.0377 49.4948 55.274 49.4948 61.8493C49.4948 68.4246 54.2722 74.7688 54.94 75.6678C55.6078 76.5668 64.3664 90.0514 77.7739 95.8305C80.9589 97.2175 83.4503 98.0394 85.4024 98.6558C88.613 99.6832 91.5154 99.5291 93.827 99.1952C96.3955 98.8099 101.738 95.9589 102.842 92.851C103.947 89.7431 103.947 87.0462 103.613 86.5068C103.228 85.8904 102.354 85.5565 101.019 84.8887Z" fill="white"/>
<defs>
<linearGradient id="paint0_linear_42_294" x1="75.0057" y1="150.011" x2="75.0057" y2="0" gradientUnits="userSpaceOnUse">
<stop stop-color="#25CF43"/>
<stop offset="1" stop-color="#61FD7D"/>
</linearGradient>
</defs>
</svg>
