<svg width="150" height="150" viewBox="0 0 150 150" fill="none" xmlns="http://www.w3.org/2000/svg">
<path d="M150 111.935C150 112.757 149.974 114.529 149.923 115.916C149.795 119.281 149.538 123.622 149.127 125.599C148.51 128.579 147.611 131.378 146.404 133.716C144.991 136.49 143.193 138.955 141.036 141.087C138.904 143.219 136.438 145.017 133.664 146.43C131.327 147.637 128.502 148.536 125.497 149.152C123.545 149.538 119.229 149.82 115.89 149.923C114.503 149.974 112.731 150 111.909 150H38.0394C37.2175 150 35.4452 149.974 34.0582 149.923C30.6935 149.795 26.3527 149.538 24.375 149.127C21.3955 148.51 18.5959 147.611 16.2586 146.404C13.4846 144.991 11.0188 143.193 8.88699 141.036C6.75514 138.904 4.95719 136.438 3.54452 133.664C2.33733 131.327 1.43836 128.502 0.821918 125.497C0.436644 123.545 0.15411 119.229 0.0513699 115.89C0.0256849 114.529 0 112.757 0 111.935V38.0651C0 37.2432 0.0256849 35.4709 0.0770548 34.0839C0.205479 30.7192 0.462329 26.3784 0.873288 24.4007C1.48973 21.4212 2.3887 18.6216 3.59589 16.2842C5.00856 13.5103 6.80651 11.0445 8.93836 8.91267C11.0702 6.78082 13.536 4.98288 16.3099 3.57021C18.6473 2.36301 21.4726 1.46404 24.4777 0.847603C26.4298 0.462329 30.7449 0.179795 34.0839 0.0770548C35.4709 0.0256849 37.2432 0 38.0651 0H111.935C112.757 0 114.529 0.0256849 115.916 0.0770548C119.281 0.205479 123.622 0.462329 125.599 0.873288C128.579 1.48973 131.378 2.3887 133.716 3.59589C136.49 5.00856 138.955 6.80651 141.087 8.96404C143.219 11.0959 145.017 13.5616 146.43 16.3356C147.637 18.6729 148.536 21.4983 149.152 24.5034C149.538 26.4555 149.82 30.7705 149.923 34.1096C149.974 35.4966 150 37.2688 150 38.0908V111.935Z" fill="url(#paint0_linear_42_297)"/>
<path d="M42 112L107 75.0018L42 38V112Z" fill="white"/>
<defs>
<linearGradient id="paint0_linear_42_297" x1="75.0057" y1="150.011" x2="75.0057" y2="0" gradientUnits="userSpaceOnUse">
<stop stop-color="#ED1D24"/>
<stop offset="1" stop-color="#FE5B57"/>
</linearGradient>
</defs>
</svg>
