<svg width="51" height="50" viewBox="0 0 51 50" fill="none" xmlns="http://www.w3.org/2000/svg">
<path d="M1.29517 28.5298L11.3652 17.4418L16.1866 23.3591L17.456 24.917L17.9332 22.9648L22.9636 2.38552L32.8085 16.4818L33.5669 17.5677L34.4036 16.5408L41.811 7.4499L42.3257 6.81823L41.811 6.18656L37.5849 1H49.2949V15.3715L45.5147 10.7321L44.7395 9.78067L43.9643 10.7321L33.7014 23.3274L25.1965 10.802L23.9322 8.94006L23.3978 11.1263L18.3194 31.9014L12.1815 24.3684L11.4063 23.417L10.631 24.3684L1.29517 35.8262V28.5298Z" stroke="black" stroke-width="2"/>
<path d="M49.2952 49H45.7396V23.2646L49.2952 27.6283V49ZM38.1841 49H34.6285V34.4465L38.1841 30.0829V49ZM23.5174 49V36.4643L25.7676 25.4178L27.0729 27.5538V49H23.5174ZM15.9618 49H12.4063V36.9011L15.9618 41.2647V49ZM4.85072 49H1.29517V48.0831L4.85072 43.7194V49Z" stroke="black" stroke-width="2"/>
</svg>
