<svg width="51" height="50" viewBox="0 0 51 50" fill="none" xmlns="http://www.w3.org/2000/svg">
<path d="M0.0566406 38.6365V28.1435L11.1678 15.9092L16.7233 22.7274L22.2787 0L33.3899 15.9092L40.7972 6.81823L35.2417 0H50.0564V18.1819L44.501 11.3638L33.3899 25.0001L24.1307 11.3638L18.5751 34.091L11.1678 25.0001L0.0566406 38.6365Z" fill="#1C274C"/>
<path d="M50.0566 50H44.5011V20.4543L50.0566 27.2725V50ZM38.9455 50H33.39V34.0907L38.9455 27.2726V50ZM27.8344 50H22.2789V36.3636L25.0566 22.7271L27.8344 27.2725V50ZM16.7233 50H11.1678V34.0907L16.7233 40.9089V50ZM5.6122 50H0.0566406V47.7273L5.6122 40.9091V50Z" fill="#1C274C"/>
</svg>
