<svg width="50" height="50" viewBox="0 0 50 50" fill="none" xmlns="http://www.w3.org/2000/svg">
<path fill-rule="evenodd" clip-rule="evenodd" d="M1.298 14.5569C1.49012e-07 16.9282 0 19.7887 0 25.5098V29.3125C0 39.0645 2.98023e-07 43.9407 2.92893 46.9702C5.85788 50 10.5719 50 20 50H30C39.428 50 44.1422 50 47.071 46.9702C50 43.9407 50 39.0645 50 29.3125V25.5098C50 19.7887 50 16.9282 48.702 14.5569C47.404 12.1855 45.0327 10.7138 40.29 7.7703L35.29 4.66717C30.2765 1.55572 27.7698 0 25 0C22.2302 0 19.7235 1.55572 14.7101 4.66717L9.71007 7.77032C4.96737 10.7138 2.596 12.1855 1.298 14.5569ZM17.5 38.125C16.4645 38.125 15.625 38.9645 15.625 40C15.625 41.0355 16.4645 41.875 17.5 41.875H32.5C33.5355 41.875 34.375 41.0355 34.375 40C34.375 38.9645 33.5355 38.125 32.5 38.125H17.5Z" fill="#1C274C"/>
</svg>
