<svg width="50" height="50" viewBox="0 0 50 50" fill="none" xmlns="http://www.w3.org/2000/svg">
<path opacity="0.5" d="M2.52916 15.4979L0.848738 14.6923L2.52916 15.4979C3.02802 14.4574 3.83368 13.5415 5.30483 12.4348C6.81203 11.3008 8.86606 10.0743 11.7768 8.34037L15.2389 6.27803L14.2794 4.66717L15.2389 6.27803C17.8827 4.70315 19.7481 3.59453 21.3093 2.86583C22.832 2.15508 23.9269 1.875 25 1.875C26.0731 1.875 27.168 2.15508 28.6907 2.86583C30.2519 3.59452 32.1173 4.70314 34.7609 6.27801L34.7609 6.27804L38.2232 8.34037C38.2232 8.34038 38.2232 8.34039 38.2232 8.34039C41.1339 10.0743 43.188 11.3009 44.6952 12.4348C46.1663 13.5415 46.9719 14.4573 47.4707 15.4979L47.4708 15.498C47.9692 16.5377 48.1766 17.7335 48.1142 19.5617C48.0503 21.4363 47.7141 23.7908 47.2339 27.1277L47.2338 27.1278L46.5371 31.9709C45.9207 36.254 45.4802 39.2906 44.8474 41.5825C44.229 43.8222 43.4846 45.1191 42.4041 46.0496C41.3218 46.9815 39.9189 47.5316 37.5925 47.8234C35.2148 48.1216 32.1219 48.125 27.7652 48.125H22.2347C17.8781 48.125 14.7851 48.1216 12.4075 47.8234C10.0811 47.5316 8.6782 46.9815 7.59601 46.0496C6.51533 45.1191 5.77093 43.8222 5.15252 41.5825C4.51975 39.2906 4.07924 36.254 3.46298 31.971L3.46298 31.9709L2.76605 27.1277C2.76605 27.1277 2.76605 27.1277 2.76605 27.1277C2.28592 23.7908 1.94976 21.4363 1.8858 19.5617C1.82341 17.7334 2.03072 16.5376 2.52916 15.4979Z" stroke="black" stroke-width="3.75"/>
<path d="M32.5 40H17.5" stroke="#1C274C" stroke-width="3.75" stroke-linecap="round"/>
</svg>
