<svg width="52" height="45" viewBox="0 0 52 45" fill="none" xmlns="http://www.w3.org/2000/svg">
<path fill-rule="evenodd" clip-rule="evenodd" d="M12 10.5C12 4.69875 16.6989 0 22.5 0C28.3014 0 33 4.69875 33 10.5C33 16.3014 28.3014 21 22.5 21C16.6989 21 12 16.3014 12 10.5ZM22.5 5.25C25.3875 5.25 27.75 7.6125 27.75 10.5C27.75 13.3875 25.3875 15.75 22.5 15.75C19.6125 15.75 17.25 13.3875 17.25 10.5C17.25 7.6125 19.6125 5.25 22.5 5.25Z" fill="black"/>
<path fill-rule="evenodd" clip-rule="evenodd" d="M22.2483 26C14.8229 26 0 30.1875 0 38.5V44.75H44.4967V38.5C44.4967 30.1875 29.6739 26 22.2483 26ZM22.2483 32.25C29.7571 32.25 38.3784 36.2811 38.9346 38.5H5.56208C6.20172 36.25 14.7673 32.25 22.2483 32.25Z" fill="black"/>
<path d="M50.1328 10.7858L52.0001 12.8988L41.4057 24.8036L36.1084 18.8661L37.989 16.7678L41.4057 20.5925L50.1328 10.7858Z" fill="black"/>
</svg>
