<svg width="50" height="51" viewBox="0 0 50 51" fill="none" xmlns="http://www.w3.org/2000/svg">
<path fill-rule="evenodd" clip-rule="evenodd" d="M45 42.9511C45 44.3286 43.7675 45.4286 42.3875 45.4286H34.8875C33.51 45.4286 32.5 44.3286 32.5 42.9511V35.4511C32.5 34.0736 33.51 32.9286 34.8875 32.9286H42.3875C43.7675 32.9286 45 34.0736 45 35.4511V42.9511ZM42.3875 27.9286H34.8875C30.745 27.9286 27.5 31.3086 27.5 35.4511V42.9511C27.5 47.0936 30.745 50.4286 34.8875 50.4286H42.3875C46.53 50.4286 50 47.0936 50 42.9511V35.4511C50 31.3086 46.53 27.9286 42.3875 27.9286ZM17.5 42.9511C17.5 44.3286 16.2675 45.4286 14.8875 45.4286H7.38751C6.01001 45.4286 5 44.3286 5 42.9511V35.4511C5 34.0736 6.01001 32.9286 7.38751 32.9286H14.8875C16.2675 32.9286 17.5 34.0736 17.5 35.4511V42.9511ZM14.8875 27.9286H7.38751C3.24501 27.9286 0 31.3086 0 35.4511V42.9511C0 47.0936 3.24501 50.4286 7.38751 50.4286H14.8875C19.03 50.4286 22.5 47.0936 22.5 42.9511V35.4511C22.5 31.3086 19.03 27.9286 14.8875 27.9286ZM45 15.4511C45 16.8286 43.7675 17.9286 42.3875 17.9286H34.8875C33.51 17.9286 32.5 16.8286 32.5 15.4511V7.95106C32.5 6.57356 33.51 5.42856 34.8875 5.42856H42.3875C43.7675 5.42856 45 6.57356 45 7.95106V15.4511ZM42.3875 0.428558H34.8875C30.745 0.428558 27.5 3.80856 27.5 7.95106V15.4511C27.5 19.5936 30.745 22.9286 34.8875 22.9286H42.3875C46.53 22.9286 50 19.5936 50 15.4511V7.95106C50 3.80856 46.53 0.428558 42.3875 0.428558ZM17.5 15.4511C17.5 16.8286 16.2675 17.9286 14.8875 17.9286H7.38751C6.01001 17.9286 5 16.8286 5 15.4511V7.95106C5 6.57356 6.01001 5.42856 7.38751 5.42856H14.8875C16.2675 5.42856 17.5 6.57356 17.5 7.95106V15.4511ZM14.8875 0.428558H7.38751C3.24501 0.428558 0 3.80856 0 7.95106V15.4511C0 19.5936 3.24501 22.9286 7.38751 22.9286H14.8875C19.03 22.9286 22.5 19.5936 22.5 15.4511V7.95106C22.5 3.80856 19.03 0.428558 14.8875 0.428558Z" fill="black"/>
</svg>
