<svg width="50" height="50" viewBox="0 0 50 50" fill="none" xmlns="http://www.w3.org/2000/svg">
<path fill-rule="evenodd" clip-rule="evenodd" d="M42.5 27.5H35C30.8575 27.5 27.5 30.8575 27.5 35V42.5C27.5 46.6425 30.8575 50 35 50H42.5C46.6425 50 50 46.6425 50 42.5V35C50 30.8575 46.6425 27.5 42.5 27.5ZM15 27.5H7.5C3.3575 27.5 0 30.8575 0 35V42.5C0 46.6425 3.3575 50 7.5 50H15C19.1425 50 22.5 46.6425 22.5 42.5V35C22.5 30.8575 19.1425 27.5 15 27.5ZM42.5 0H35C30.8575 0 27.5 3.3575 27.5 7.5V15C27.5 19.1425 30.8575 22.5 35 22.5H42.5C46.6425 22.5 50 19.1425 50 15V7.5C50 3.3575 46.6425 0 42.5 0ZM22.5 7.5V15C22.5 19.1425 19.1425 22.5 15 22.5H7.5C3.3575 22.5 0 19.1425 0 15V7.5C0 3.3575 3.3575 0 7.5 0H15C19.1425 0 22.5 3.3575 22.5 7.5Z" fill="#1C274C"/>
</svg>
