<svg width="50" height="50" viewBox="0 0 50 50" fill="none" xmlns="http://www.w3.org/2000/svg">
<path d="M6.31796 0C5.79996 0.102095 5.42632 0.581499 5.43481 1.13636V31.8182H1.08699C1.05302 31.8182 1.01905 31.8182 0.985085 31.8182C0.424623 31.8714 -0.0042144 32.3642 3.12516e-05 32.9545V37.5C3.12516e-05 38.1259 0.488312 38.6364 1.08699 38.6364H4.34785V47.1591C4.34785 48.7127 5.57917 50 7.06524 50C8.55132 50 9.78263 48.7127 9.78263 47.1591V38.6364H40.2174V47.1591C40.2174 48.7127 41.4487 50 42.9348 50C44.4209 50 45.6522 48.7127 45.6522 47.1591V38.6364H48.913C49.5117 38.6364 50 38.1259 50 37.5V32.9545C50 32.3287 49.5117 31.8182 48.913 31.8182H45.5163C45.546 31.6673 45.546 31.5075 45.5163 31.3565L40.0136 7.03125C39.8947 6.44531 39.3597 6.05469 38.7908 6.14347C38.7695 6.15234 38.7441 6.16566 38.7228 6.17898L33.4239 7.4929C33.0206 7.59055 32.7021 7.92347 32.6087 8.34517V7.95455C32.6087 7.32866 32.1204 6.81818 31.5217 6.81818H25V1.13636C25 0.510476 24.5117 0 23.9131 0H15.2853C15.2641 0 15.2386 0 15.2174 0H6.52177C6.4878 0 6.45383 0 6.41986 0C6.3859 0 6.35193 0 6.31796 0ZM7.60872 2.27273H14.1305V31.8182H7.60872V2.27273ZM16.3044 2.27273H22.8261V7.84801C22.8261 7.88352 22.8261 7.91903 22.8261 7.95455V31.8182H16.3044V2.27273ZM9.47693 4.54545C8.87825 4.63423 8.45791 5.21573 8.54282 5.84162C8.62774 6.46751 9.18396 6.90696 9.78263 6.81818H11.9565C12.3472 6.82262 12.7123 6.60955 12.9119 6.25444C13.1072 5.89933 13.1072 5.46431 12.9119 5.1092C12.7123 4.75408 12.3472 4.54102 11.9565 4.54545H9.78263C9.74867 4.54545 9.7147 4.54545 9.68073 4.54545C9.64676 4.54545 9.6128 4.54545 9.57883 4.54545C9.54486 4.54545 9.51089 4.54545 9.47693 4.54545ZM18.1726 4.54545C17.5739 4.63423 17.1536 5.21573 17.2385 5.84162C17.3234 6.46751 17.8796 6.90696 18.4783 6.81818H20.6522C21.0428 6.82262 21.408 6.60955 21.6075 6.25444C21.8028 5.89933 21.8028 5.46431 21.6075 5.1092C21.408 4.75408 21.0428 4.54102 20.6522 4.54545H18.4783C18.4443 4.54545 18.4103 4.54545 18.3764 4.54545C18.3424 4.54545 18.3084 4.54545 18.2745 4.54545C18.2405 4.54545 18.2065 4.54545 18.1726 4.54545ZM38.1454 8.62926L38.8247 11.6832C38.5955 11.2527 38.1326 11.0263 37.6698 11.1151C37.6359 11.1239 37.6019 11.1373 37.5679 11.1506L36.515 11.3991C36.0734 11.479 35.7252 11.8297 35.6318 12.2869L34.9864 9.41051L38.1454 8.62926ZM32.6087 8.84233L37.8057 31.8182H32.6087V8.84233ZM25 9.09091H30.4348V31.8182H25V9.09091ZM26.8682 11.3636C26.2695 11.4524 25.8492 12.0339 25.9341 12.6598C26.019 13.2857 26.5752 13.7251 27.1739 13.6364H28.2609C28.6515 13.6408 29.0167 13.4277 29.2162 13.0726C29.4115 12.7175 29.4115 12.2825 29.2162 11.9274C29.0167 11.5723 28.6515 11.3592 28.2609 11.3636H27.1739C27.14 11.3636 27.106 11.3636 27.072 11.3636C27.0381 11.3636 27.0041 11.3636 26.9701 11.3636C26.9362 11.3636 26.9022 11.3636 26.8682 11.3636ZM38.9606 12.3224L42.2554 26.9176C42.0134 26.6424 41.6568 26.5137 41.3044 26.5625C41.2449 26.5714 41.1897 26.5803 41.1345 26.598C41.1133 26.6069 41.0878 26.6202 41.0666 26.6335L40.0136 26.8821C39.572 26.962 39.2239 27.3127 39.1304 27.7699L35.8696 13.2812C36.1583 13.6186 36.6126 13.7429 37.0245 13.6009L38.0775 13.3523C38.5615 13.2546 38.9224 12.8329 38.9606 12.3224ZM9.47693 27.2727C8.87825 27.3615 8.45791 27.943 8.54282 28.5689C8.62774 29.1948 9.18396 29.6342 9.78263 29.5455H11.9565C12.3472 29.5499 12.7123 29.3368 12.9119 28.9817C13.1072 28.6266 13.1072 28.1916 12.9119 27.8365C12.7123 27.4814 12.3472 27.2683 11.9565 27.2727H9.78263C9.74867 27.2727 9.7147 27.2727 9.68073 27.2727C9.64676 27.2727 9.6128 27.2727 9.57883 27.2727C9.54486 27.2727 9.51089 27.2727 9.47693 27.2727ZM18.1726 27.2727C17.5739 27.3615 17.1536 27.943 17.2385 28.5689C17.3234 29.1948 17.8796 29.6342 18.4783 29.5455H20.6522C21.0428 29.5499 21.408 29.3368 21.6075 28.9817C21.8028 28.6266 21.8028 28.1916 21.6075 27.8365C21.408 27.4814 21.0428 27.2683 20.6522 27.2727H18.4783C18.4443 27.2727 18.4103 27.2727 18.3764 27.2727C18.3424 27.2727 18.3084 27.2727 18.2745 27.2727C18.2405 27.2727 18.2065 27.2727 18.1726 27.2727ZM26.8682 27.2727C26.2695 27.3615 25.8492 27.943 25.9341 28.5689C26.019 29.1948 26.5752 29.6342 27.1739 29.5455H28.2609C28.6515 29.5499 29.0167 29.3368 29.2162 28.9817C29.4115 28.6266 29.4115 28.1916 29.2162 27.8365C29.0167 27.4814 28.6515 27.2683 28.2609 27.2727H27.1739C27.14 27.2727 27.106 27.2727 27.072 27.2727C27.0381 27.2727 27.0041 27.2727 26.9701 27.2727C26.9362 27.2727 26.9022 27.2727 26.8682 27.2727ZM42.4932 27.983L43.1386 30.7528L39.9796 31.5341L39.3682 28.7642C39.6569 29.1016 40.1112 29.2259 40.5231 29.0838L41.5761 28.8352C42.0177 28.7731 42.3828 28.4357 42.4932 27.983ZM2.17394 34.0909H47.8261V36.3636H2.17394V34.0909ZM6.52177 38.6364H7.60872V47.1591C7.60872 47.4831 7.3752 47.7273 7.06524 47.7273C6.75529 47.7273 6.52177 47.4831 6.52177 47.1591V38.6364ZM42.3913 38.6364H43.4783V47.1591C43.4783 47.4831 43.2447 47.7273 42.9348 47.7273C42.6248 47.7273 42.3913 47.4831 42.3913 47.1591V38.6364Z" fill="black"/>
</svg>
