<svg width="50" height="50" viewBox="0 0 50 50" fill="none" xmlns="http://www.w3.org/2000/svg">
<path d="M6.52174 0C5.92306 0 5.43478 0.510476 5.43478 1.13636V30.6818C5.43478 31.3121 5.92306 31.8182 6.52174 31.8182H11.9565C12.5594 31.8182 13.0435 31.3121 13.0435 30.6818V1.13636C13.0435 0.510476 12.5594 0 11.9565 0H6.52174ZM16.3043 0C15.7057 0 15.2174 0.510476 15.2174 1.13636V30.6818C15.2174 31.3121 15.7057 31.8182 16.3043 31.8182H21.7391C22.3421 31.8182 22.8261 31.3121 22.8261 30.6818V1.13636C22.8261 0.510476 22.3421 0 21.7391 0H16.3043ZM8.15217 4.54545H10.3261C10.929 4.54545 11.413 5.05593 11.413 5.68182C11.413 6.30771 10.929 6.81818 10.3261 6.81818H8.15217C7.54925 6.81818 7.06522 6.30771 7.06522 5.68182C7.06522 5.05593 7.54925 4.54545 8.15217 4.54545ZM17.9348 4.54545H20.1087C20.7116 4.54545 21.1957 5.05593 21.1957 5.68182C21.1957 6.30771 20.7116 6.81818 20.1087 6.81818H17.9348C17.3319 6.81818 16.8478 6.30771 16.8478 5.68182C16.8478 5.05593 17.3319 4.54545 17.9348 4.54545ZM38.6889 6.17898L33.4239 7.4929C33.1437 7.56392 32.8974 7.7326 32.7446 7.99006C32.6809 8.09659 32.6342 8.22532 32.6087 8.34517V7.95455C32.6087 7.32866 32.1247 6.81818 31.5217 6.81818H26.087C25.4883 6.81818 25 7.32866 25 7.95455V30.6818C25 31.3121 25.4883 31.8182 26.087 31.8182H31.5217C32.1247 31.8182 32.6087 31.3121 32.6087 30.6818V8.84233L37.8397 30.9659C37.9586 31.4897 38.4001 31.8537 38.8927 31.8537C38.9733 31.8537 39.0455 31.8359 39.1304 31.8182L44.4293 30.5043C44.7096 30.4332 44.9558 30.2646 45.1087 30.0071C45.2615 29.7496 45.3125 29.4478 45.2446 29.1548L40.0136 7.03125C39.8735 6.41868 39.2705 6.03249 38.6889 6.17898ZM38.0095 11.1151C38.4256 11.1905 38.7908 11.5101 38.8927 11.9673C39.0285 12.5799 38.6591 13.2102 38.0774 13.3523L37.0245 13.6009C36.9395 13.623 36.8674 13.6364 36.7867 13.6364C36.2942 13.6364 35.8186 13.2724 35.6997 12.7486C35.5639 12.136 35.9333 11.5412 36.5149 11.3991L37.5679 11.1506C37.7123 11.1151 37.8694 11.0884 38.0095 11.1151ZM28.2609 11.3636H29.3478C29.9507 11.3636 30.4348 11.8741 30.4348 12.5C30.4348 13.1259 29.9507 13.6364 29.3478 13.6364H28.2609C27.6579 13.6364 27.1739 13.1259 27.1739 12.5C27.1739 11.8741 27.6579 11.3636 28.2609 11.3636ZM40.7948 24.3963C41.3765 24.2587 41.9794 24.636 42.1196 25.2486C42.2554 25.8567 41.8903 26.456 41.3043 26.598L40.2514 26.8821C40.1664 26.9043 40.0603 26.9176 39.9796 26.9176C39.4871 26.9176 39.0455 26.5536 38.9266 26.0298C38.7908 25.4217 39.1559 24.7869 39.7418 24.6449L40.7948 24.3963ZM8.15217 25H10.3261C10.929 25 11.413 25.5105 11.413 26.1364C11.413 26.7623 10.929 27.2727 10.3261 27.2727H8.15217C7.54925 27.2727 7.06522 26.7623 7.06522 26.1364C7.06522 25.5105 7.54925 25 8.15217 25ZM17.9348 25H20.1087C20.7116 25 21.1957 25.5105 21.1957 26.1364C21.1957 26.7623 20.7116 27.2727 20.1087 27.2727H17.9348C17.3319 27.2727 16.8478 26.7623 16.8478 26.1364C16.8478 25.5105 17.3319 25 17.9348 25ZM28.2609 25H29.3478C29.9507 25 30.4348 25.506 30.4348 26.1364C30.4348 26.7667 29.9507 27.2727 29.3478 27.2727H28.2609C27.6579 27.2727 27.1739 26.7667 27.1739 26.1364C27.1739 25.506 27.6579 25 28.2609 25ZM1.08696 32.9545C0.488281 32.9545 0 33.4606 0 34.0909V37.5C0 38.1303 0.488281 38.6364 1.08696 38.6364H48.913C49.516 38.6364 50 38.1303 50 37.5V34.0909C50 33.4606 49.516 32.9545 48.913 32.9545H1.08696ZM4.34783 40.9091V47.1591C4.34783 48.726 5.56641 50 7.06522 50C8.56403 50 9.78261 48.726 9.78261 47.1591V40.9091H4.34783ZM40.2174 40.9091V47.1591C40.2174 48.726 41.436 50 42.9348 50C44.4336 50 45.6522 48.726 45.6522 47.1591V40.9091H40.2174Z" fill="#1C274C"/>
</svg>
