<svg width="47" height="36" viewBox="0 0 47 36" fill="none" xmlns="http://www.w3.org/2000/svg">
<mask id="path-1-outside-1_34_142" maskUnits="userSpaceOnUse" x="-1" y="19" width="49" height="15" fill="black">
<rect fill="white" x="-1" y="19" width="49" height="15"/>
<path d="M11.204 26.5455C11.204 27.7351 10.9785 28.7472 10.5275 29.5817C10.08 30.4162 9.46924 31.0536 8.69509 31.494C7.92449 31.9308 7.05802 32.1491 6.09566 32.1491C5.1262 32.1491 4.25617 31.929 3.48557 31.4886C2.71498 31.0483 2.10596 30.4109 1.65851 29.5763C1.21107 28.7418 0.987349 27.7315 0.987349 26.5455C0.987349 25.3558 1.21107 24.3438 1.65851 23.5092C2.10596 22.6747 2.71498 22.0391 3.48557 21.6023C4.25617 21.1619 5.1262 20.9418 6.09566 20.9418C7.05802 20.9418 7.92449 21.1619 8.69509 21.6023C9.46924 22.0391 10.08 22.6747 10.5275 23.5092C10.9785 24.3438 11.204 25.3558 11.204 26.5455ZM8.86555 26.5455C8.86555 25.7749 8.75013 25.125 8.51931 24.5959C8.29204 24.0668 7.97066 23.6655 7.55518 23.392C7.13969 23.1186 6.65319 22.9819 6.09566 22.9819C5.53813 22.9819 5.05162 23.1186 4.63614 23.392C4.22066 23.6655 3.89751 24.0668 3.66668 24.5959C3.43941 25.125 3.32577 25.7749 3.32577 26.5455C3.32577 27.3161 3.43941 27.9659 3.66668 28.495C3.89751 29.0241 4.22066 29.4254 4.63614 29.6989C5.05162 29.9723 5.53813 30.109 6.09566 30.109C6.65319 30.109 7.13969 29.9723 7.55518 29.6989C7.97066 29.4254 8.29204 29.0241 8.51931 28.495C8.75013 27.9659 8.86555 27.3161 8.86555 26.5455ZM17.2698 23.8182V25.5227H12.22V23.8182H17.2698ZM13.3759 32V23.2269C13.3759 22.6339 13.4913 22.142 13.7222 21.7514C13.9565 21.3608 14.2761 21.0678 14.681 20.8725C15.0858 20.6772 15.5457 20.5795 16.0606 20.5795C16.4086 20.5795 16.7264 20.6062 17.0141 20.6594C17.3053 20.7127 17.5219 20.7607 17.6639 20.8033L17.2591 22.5078C17.1703 22.4794 17.0602 22.4528 16.9288 22.4279C16.801 22.4031 16.6696 22.3906 16.5347 22.3906C16.2009 22.3906 15.9683 22.4688 15.8369 22.625C15.7055 22.7777 15.6398 22.9925 15.6398 23.2695V32H13.3759ZM23.0559 23.8182V25.5227H18.0062V23.8182H23.0559ZM19.1621 32V23.2269C19.1621 22.6339 19.2775 22.142 19.5083 21.7514C19.7427 21.3608 20.0623 21.0678 20.4671 20.8725C20.8719 20.6772 21.3318 20.5795 21.8467 20.5795C22.1947 20.5795 22.5126 20.6062 22.8002 20.6594C23.0914 20.7127 23.308 20.7607 23.4501 20.8033L23.0452 22.5078C22.9565 22.4794 22.8464 22.4528 22.715 22.4279C22.5871 22.4031 22.4557 22.3906 22.3208 22.3906C21.987 22.3906 21.7544 22.4688 21.623 22.625C21.4916 22.7777 21.4259 22.9925 21.4259 23.2695V32H19.1621ZM27.8779 32.1598C27.0363 32.1598 26.3118 31.9893 25.7046 31.6484C25.1009 31.304 24.6357 30.8175 24.309 30.1889C23.9823 29.5568 23.8189 28.8093 23.8189 27.9464C23.8189 27.1048 23.9823 26.3661 24.309 25.7305C24.6357 25.0948 25.0956 24.5994 25.6886 24.2443C26.2852 23.8892 26.9848 23.7116 27.7873 23.7116C28.3271 23.7116 28.8296 23.7987 29.2948 23.9727C29.7635 24.1431 30.1719 24.4006 30.5199 24.745C30.8715 25.0895 31.1449 25.5227 31.3402 26.0447C31.5356 26.5632 31.6332 27.1705 31.6332 27.8665V28.4897H24.7245V27.0835H29.4972C29.4972 26.7567 29.4262 26.4673 29.2841 26.2152C29.1421 25.9631 28.945 25.766 28.6929 25.6239C28.4443 25.4783 28.1549 25.4055 27.8246 25.4055C27.4802 25.4055 27.1748 25.4854 26.9084 25.6452C26.6456 25.8015 26.4397 26.0128 26.2905 26.2791C26.1414 26.5419 26.065 26.8349 26.0615 27.158V28.495C26.0615 28.8999 26.1361 29.2496 26.2852 29.5444C26.4379 29.8391 26.6527 30.0664 26.9297 30.2262C27.2067 30.386 27.5352 30.4659 27.9152 30.4659C28.1673 30.4659 28.3981 30.4304 28.6076 30.3594C28.8172 30.2884 28.9965 30.1818 29.1456 30.0398C29.2948 29.8977 29.4084 29.7237 29.4866 29.5178L31.5853 29.6562C31.4787 30.1605 31.2603 30.6009 30.9301 30.9773C30.6034 31.3501 30.1808 31.6413 29.6623 31.8509C29.1474 32.0568 28.5526 32.1598 27.8779 32.1598ZM33.114 32V23.8182H35.314V25.2457H35.3992C35.5483 24.7379 35.7987 24.3544 36.1503 24.0952C36.5018 23.8324 36.9066 23.701 37.3647 23.701C37.4784 23.701 37.6009 23.7081 37.7323 23.7223C37.8637 23.7365 37.9791 23.756 38.0785 23.7809V25.7944C37.972 25.7624 37.8246 25.734 37.6364 25.7092C37.4482 25.6843 37.276 25.6719 37.1197 25.6719C36.7859 25.6719 36.4876 25.7447 36.2248 25.8903C35.9656 26.0323 35.7596 26.2312 35.6069 26.4869C35.4578 26.7425 35.3832 27.0373 35.3832 27.3711V32H33.114ZM46.0593 26.1513L43.9818 26.2791C43.9463 26.1016 43.87 25.9418 43.7528 25.7997C43.6356 25.6541 43.4811 25.5387 43.2894 25.4535C43.1012 25.3647 42.8757 25.3203 42.6129 25.3203C42.2613 25.3203 41.9648 25.3949 41.7233 25.544C41.4818 25.6896 41.3611 25.8849 41.3611 26.13C41.3611 26.3253 41.4392 26.4904 41.5955 26.6254C41.7517 26.7603 42.0198 26.8686 42.3998 26.9503L43.8806 27.2486C44.6761 27.4119 45.2691 27.6747 45.6598 28.0369C46.0504 28.3991 46.2457 28.875 46.2457 29.4645C46.2457 30.0007 46.0877 30.4712 45.7716 30.8761C45.4591 31.2809 45.0294 31.5969 44.4826 31.8242C43.9392 32.0479 43.3125 32.1598 42.6022 32.1598C41.5191 32.1598 40.6562 31.9343 40.0134 31.4833C39.3742 31.0288 38.9996 30.4109 38.8895 29.6296L41.1214 29.5124C41.1889 29.8427 41.3522 30.0948 41.6115 30.2688C41.8707 30.4393 42.2027 30.5245 42.6076 30.5245C43.0053 30.5245 43.3249 30.4482 43.5664 30.2955C43.8114 30.1392 43.9357 29.9386 43.9392 29.6935C43.9357 29.4876 43.8487 29.3189 43.6782 29.1875C43.5078 29.0526 43.245 28.9496 42.8899 28.8786L41.473 28.5962C40.674 28.4364 40.0791 28.1594 39.6885 27.7653C39.3014 27.3711 39.1079 26.8686 39.1079 26.2578C39.1079 25.7322 39.25 25.2795 39.534 24.8995C39.8217 24.5195 40.2247 24.2266 40.7432 24.0206C41.2652 23.8146 41.876 23.7116 42.5756 23.7116C43.609 23.7116 44.4222 23.93 45.0152 24.3668C45.6118 24.8036 45.9598 25.3984 46.0593 26.1513Z"/>
</mask>
<path d="M11.204 26.5455C11.204 27.7351 10.9785 28.7472 10.5275 29.5817C10.08 30.4162 9.46924 31.0536 8.69509 31.494C7.92449 31.9308 7.05802 32.1491 6.09566 32.1491C5.1262 32.1491 4.25617 31.929 3.48557 31.4886C2.71498 31.0483 2.10596 30.4109 1.65851 29.5763C1.21107 28.7418 0.987349 27.7315 0.987349 26.5455C0.987349 25.3558 1.21107 24.3438 1.65851 23.5092C2.10596 22.6747 2.71498 22.0391 3.48557 21.6023C4.25617 21.1619 5.1262 20.9418 6.09566 20.9418C7.05802 20.9418 7.92449 21.1619 8.69509 21.6023C9.46924 22.0391 10.08 22.6747 10.5275 23.5092C10.9785 24.3438 11.204 25.3558 11.204 26.5455ZM8.86555 26.5455C8.86555 25.7749 8.75013 25.125 8.51931 24.5959C8.29204 24.0668 7.97066 23.6655 7.55518 23.392C7.13969 23.1186 6.65319 22.9819 6.09566 22.9819C5.53813 22.9819 5.05162 23.1186 4.63614 23.392C4.22066 23.6655 3.89751 24.0668 3.66668 24.5959C3.43941 25.125 3.32577 25.7749 3.32577 26.5455C3.32577 27.3161 3.43941 27.9659 3.66668 28.495C3.89751 29.0241 4.22066 29.4254 4.63614 29.6989C5.05162 29.9723 5.53813 30.109 6.09566 30.109C6.65319 30.109 7.13969 29.9723 7.55518 29.6989C7.97066 29.4254 8.29204 29.0241 8.51931 28.495C8.75013 27.9659 8.86555 27.3161 8.86555 26.5455ZM17.2698 23.8182V25.5227H12.22V23.8182H17.2698ZM13.3759 32V23.2269C13.3759 22.6339 13.4913 22.142 13.7222 21.7514C13.9565 21.3608 14.2761 21.0678 14.681 20.8725C15.0858 20.6772 15.5457 20.5795 16.0606 20.5795C16.4086 20.5795 16.7264 20.6062 17.0141 20.6594C17.3053 20.7127 17.5219 20.7607 17.6639 20.8033L17.2591 22.5078C17.1703 22.4794 17.0602 22.4528 16.9288 22.4279C16.801 22.4031 16.6696 22.3906 16.5347 22.3906C16.2009 22.3906 15.9683 22.4688 15.8369 22.625C15.7055 22.7777 15.6398 22.9925 15.6398 23.2695V32H13.3759ZM23.0559 23.8182V25.5227H18.0062V23.8182H23.0559ZM19.1621 32V23.2269C19.1621 22.6339 19.2775 22.142 19.5083 21.7514C19.7427 21.3608 20.0623 21.0678 20.4671 20.8725C20.8719 20.6772 21.3318 20.5795 21.8467 20.5795C22.1947 20.5795 22.5126 20.6062 22.8002 20.6594C23.0914 20.7127 23.308 20.7607 23.4501 20.8033L23.0452 22.5078C22.9565 22.4794 22.8464 22.4528 22.715 22.4279C22.5871 22.4031 22.4557 22.3906 22.3208 22.3906C21.987 22.3906 21.7544 22.4688 21.623 22.625C21.4916 22.7777 21.4259 22.9925 21.4259 23.2695V32H19.1621ZM27.8779 32.1598C27.0363 32.1598 26.3118 31.9893 25.7046 31.6484C25.1009 31.304 24.6357 30.8175 24.309 30.1889C23.9823 29.5568 23.8189 28.8093 23.8189 27.9464C23.8189 27.1048 23.9823 26.3661 24.309 25.7305C24.6357 25.0948 25.0956 24.5994 25.6886 24.2443C26.2852 23.8892 26.9848 23.7116 27.7873 23.7116C28.3271 23.7116 28.8296 23.7987 29.2948 23.9727C29.7635 24.1431 30.1719 24.4006 30.5199 24.745C30.8715 25.0895 31.1449 25.5227 31.3402 26.0447C31.5356 26.5632 31.6332 27.1705 31.6332 27.8665V28.4897H24.7245V27.0835H29.4972C29.4972 26.7567 29.4262 26.4673 29.2841 26.2152C29.1421 25.9631 28.945 25.766 28.6929 25.6239C28.4443 25.4783 28.1549 25.4055 27.8246 25.4055C27.4802 25.4055 27.1748 25.4854 26.9084 25.6452C26.6456 25.8015 26.4397 26.0128 26.2905 26.2791C26.1414 26.5419 26.065 26.8349 26.0615 27.158V28.495C26.0615 28.8999 26.1361 29.2496 26.2852 29.5444C26.4379 29.8391 26.6527 30.0664 26.9297 30.2262C27.2067 30.386 27.5352 30.4659 27.9152 30.4659C28.1673 30.4659 28.3981 30.4304 28.6076 30.3594C28.8172 30.2884 28.9965 30.1818 29.1456 30.0398C29.2948 29.8977 29.4084 29.7237 29.4866 29.5178L31.5853 29.6562C31.4787 30.1605 31.2603 30.6009 30.9301 30.9773C30.6034 31.3501 30.1808 31.6413 29.6623 31.8509C29.1474 32.0568 28.5526 32.1598 27.8779 32.1598ZM33.114 32V23.8182H35.314V25.2457H35.3992C35.5483 24.7379 35.7987 24.3544 36.1503 24.0952C36.5018 23.8324 36.9066 23.701 37.3647 23.701C37.4784 23.701 37.6009 23.7081 37.7323 23.7223C37.8637 23.7365 37.9791 23.756 38.0785 23.7809V25.7944C37.972 25.7624 37.8246 25.734 37.6364 25.7092C37.4482 25.6843 37.276 25.6719 37.1197 25.6719C36.7859 25.6719 36.4876 25.7447 36.2248 25.8903C35.9656 26.0323 35.7596 26.2312 35.6069 26.4869C35.4578 26.7425 35.3832 27.0373 35.3832 27.3711V32H33.114ZM46.0593 26.1513L43.9818 26.2791C43.9463 26.1016 43.87 25.9418 43.7528 25.7997C43.6356 25.6541 43.4811 25.5387 43.2894 25.4535C43.1012 25.3647 42.8757 25.3203 42.6129 25.3203C42.2613 25.3203 41.9648 25.3949 41.7233 25.544C41.4818 25.6896 41.3611 25.8849 41.3611 26.13C41.3611 26.3253 41.4392 26.4904 41.5955 26.6254C41.7517 26.7603 42.0198 26.8686 42.3998 26.9503L43.8806 27.2486C44.6761 27.4119 45.2691 27.6747 45.6598 28.0369C46.0504 28.3991 46.2457 28.875 46.2457 29.4645C46.2457 30.0007 46.0877 30.4712 45.7716 30.8761C45.4591 31.2809 45.0294 31.5969 44.4826 31.8242C43.9392 32.0479 43.3125 32.1598 42.6022 32.1598C41.5191 32.1598 40.6562 31.9343 40.0134 31.4833C39.3742 31.0288 38.9996 30.4109 38.8895 29.6296L41.1214 29.5124C41.1889 29.8427 41.3522 30.0948 41.6115 30.2688C41.8707 30.4393 42.2027 30.5245 42.6076 30.5245C43.0053 30.5245 43.3249 30.4482 43.5664 30.2955C43.8114 30.1392 43.9357 29.9386 43.9392 29.6935C43.9357 29.4876 43.8487 29.3189 43.6782 29.1875C43.5078 29.0526 43.245 28.9496 42.8899 28.8786L41.473 28.5962C40.674 28.4364 40.0791 28.1594 39.6885 27.7653C39.3014 27.3711 39.1079 26.8686 39.1079 26.2578C39.1079 25.7322 39.25 25.2795 39.534 24.8995C39.8217 24.5195 40.2247 24.2266 40.7432 24.0206C41.2652 23.8146 41.876 23.7116 42.5756 23.7116C43.609 23.7116 44.4222 23.93 45.0152 24.3668C45.6118 24.8036 45.9598 25.3984 46.0593 26.1513Z" fill="#86A8FF"/>
<path d="M10.5275 29.5817L9.64772 29.1062L9.64616 29.1091L10.5275 29.5817ZM8.69509 31.494L9.1882 32.3639L9.18951 32.3632L8.69509 31.494ZM3.48557 31.4886L3.98171 30.6204L3.48557 31.4886ZM1.65851 29.5763L0.777201 30.0489L0.777201 30.0489L1.65851 29.5763ZM1.65851 23.5092L2.53983 23.9818L2.53983 23.9818L1.65851 23.5092ZM3.48557 21.6023L3.97869 22.4722L3.98171 22.4705L3.48557 21.6023ZM8.69509 21.6023L8.19894 22.4705L8.20369 22.4732L8.69509 21.6023ZM10.5275 23.5092L9.64616 23.9818L9.64773 23.9847L10.5275 23.5092ZM8.51931 24.5959L7.60047 24.9906L7.60273 24.9957L8.51931 24.5959ZM7.55518 23.392L7.00543 24.2274L7.00543 24.2274L7.55518 23.392ZM4.63614 23.392L5.18589 24.2274L5.18589 24.2274L4.63614 23.392ZM3.66668 24.5959L2.75009 24.196L2.74786 24.2012L3.66668 24.5959ZM3.66668 28.495L2.74784 28.8897L2.7501 28.8949L3.66668 28.495ZM4.63614 29.6989L5.18589 28.8635L5.18589 28.8635L4.63614 29.6989ZM7.55518 29.6989L7.00543 28.8635L7.00543 28.8635L7.55518 29.6989ZM8.51931 28.495L7.60271 28.0952L7.60048 28.1004L8.51931 28.495ZM10.204 26.5455C10.204 27.6105 10.0022 28.4503 9.64773 29.1062L11.4072 30.0571C11.9547 29.044 12.204 27.8597 12.204 26.5455H10.204ZM9.64616 29.1091C9.28186 29.7886 8.80057 30.2835 8.20067 30.6247L9.18951 32.3632C10.1379 31.8237 10.8782 31.0438 11.4088 30.0542L9.64616 29.1091ZM8.20198 30.624C7.59459 30.9683 6.90055 31.1491 6.09566 31.1491V33.1491C7.21549 33.1491 8.2544 32.8932 9.1882 32.3639L8.20198 30.624ZM6.09566 31.1491C5.28371 31.1491 4.58749 30.9666 3.98171 30.6204L2.98943 32.3569C3.92485 32.8914 4.96869 33.1491 6.09566 33.1491V31.1491ZM3.98171 30.6204C3.38512 30.2795 2.90476 29.7844 2.53983 29.1038L0.777201 30.0489C1.30716 31.0373 2.04483 31.8171 2.98943 32.3569L3.98171 30.6204ZM2.53983 29.1038C2.18756 28.4468 1.98735 27.6075 1.98735 26.5455H-0.0126509C-0.0126509 27.8555 0.23458 29.0369 0.777201 30.0489L2.53983 29.1038ZM1.98735 26.5455C1.98735 25.4793 2.18778 24.6384 2.53983 23.9818L0.777201 23.0367C0.234366 24.0491 -0.0126509 25.2324 -0.0126509 26.5455H1.98735ZM2.53983 23.9818C2.90444 23.3017 3.38388 22.8094 3.97869 22.4722L2.99246 20.7323C2.04607 21.2687 1.30748 22.0477 0.777201 23.0367L2.53983 23.9818ZM3.98171 22.4705C4.58749 22.1244 5.28371 21.9418 6.09566 21.9418V19.9418C4.96869 19.9418 3.92485 20.1995 2.98943 20.734L3.98171 22.4705ZM6.09566 21.9418C6.89911 21.9418 7.59206 22.1237 8.19895 22.4705L9.19123 20.734C8.25693 20.2001 7.21693 19.9418 6.09566 19.9418V21.9418ZM8.20369 22.4732C8.80181 22.8107 9.28219 23.3029 9.64616 23.9818L11.4088 23.0367C10.8779 22.0465 10.1367 21.2674 9.18649 20.7313L8.20369 22.4732ZM9.64773 23.9847C10.0022 24.6406 10.204 25.4804 10.204 26.5455H12.204C12.204 25.2312 11.9547 24.0469 11.4072 23.0338L9.64773 23.9847ZM9.86555 26.5455C9.86555 25.6809 9.73686 24.8859 9.43589 24.196L7.60273 24.9957C7.76341 25.3641 7.86555 25.8688 7.86555 26.5455H9.86555ZM9.43814 24.2012C9.14611 23.5213 8.70848 22.9539 8.10492 22.5567L7.00543 24.2274C7.23283 24.377 7.43797 24.6122 7.60048 24.9905L9.43814 24.2012ZM8.10492 22.5567C7.50693 22.1632 6.82415 21.9819 6.09566 21.9819V23.9819C6.48223 23.9819 6.77246 24.0741 7.00543 24.2274L8.10492 22.5567ZM6.09566 21.9819C5.36717 21.9819 4.68439 22.1632 4.08639 22.5567L5.18589 24.2274C5.41886 24.0741 5.70909 23.9819 6.09566 23.9819V21.9819ZM4.08639 22.5567C3.48433 22.9529 3.04569 23.5185 2.7501 24.196L4.58326 24.9957C4.74932 24.6151 4.95699 24.378 5.18589 24.2274L4.08639 22.5567ZM2.74786 24.2012C2.45221 24.8895 2.32577 25.6826 2.32577 26.5455H4.32577C4.32577 25.8672 4.42661 25.3605 4.58551 24.9905L2.74786 24.2012ZM2.32577 26.5455C2.32577 27.4084 2.45221 28.2014 2.74786 28.8897L4.58551 28.1004C4.42661 27.7304 4.32577 27.2238 4.32577 26.5455H2.32577ZM2.7501 28.8949C3.04569 29.5725 3.48433 30.138 4.08639 30.5342L5.18589 28.8635C4.95699 28.7129 4.74932 28.4758 4.58326 28.0952L2.7501 28.8949ZM4.08639 30.5342C4.68439 30.9277 5.36717 31.109 6.09566 31.109V29.109C5.70909 29.109 5.41886 29.0169 5.18589 28.8635L4.08639 30.5342ZM6.09566 31.109C6.82415 31.109 7.50693 30.9277 8.10492 30.5342L7.00543 28.8635C6.77246 29.0169 6.48223 29.109 6.09566 29.109V31.109ZM8.10492 30.5342C8.70848 30.137 9.14611 29.5696 9.43814 28.8897L7.60048 28.1004C7.43797 28.4787 7.23283 28.7139 7.00543 28.8635L8.10492 30.5342ZM9.43589 28.8949C9.73686 28.205 9.86555 27.41 9.86555 26.5455H7.86555C7.86555 27.2221 7.76341 27.7268 7.60273 28.0952L9.43589 28.8949ZM17.2698 23.8182H18.2698V22.8182H17.2698V23.8182ZM17.2698 25.5227V26.5227H18.2698V25.5227H17.2698ZM12.22 25.5227H11.22V26.5227H12.22V25.5227ZM12.22 23.8182V22.8182H11.22V23.8182H12.22ZM13.3759 32H12.3759V33H13.3759V32ZM13.7222 21.7514L12.8647 21.2369L12.8612 21.2427L13.7222 21.7514ZM14.681 20.8725L14.2464 19.9719L14.2464 19.9719L14.681 20.8725ZM17.0141 20.6594L16.832 21.6427L16.8341 21.6431L17.0141 20.6594ZM17.6639 20.8033L18.6369 21.0343L18.8548 20.1165L17.9513 19.8454L17.6639 20.8033ZM17.2591 22.5078L16.9543 23.4602L17.9826 23.7893L18.232 22.7389L17.2591 22.5078ZM16.9288 22.4279L16.738 23.4095L16.743 23.4105L16.9288 22.4279ZM15.8369 22.625L16.5949 23.2773L16.6022 23.2686L15.8369 22.625ZM15.6398 32V33H16.6398V32H15.6398ZM16.2698 23.8182V25.5227H18.2698V23.8182H16.2698ZM17.2698 24.5227H12.22V26.5227H17.2698V24.5227ZM13.22 25.5227V23.8182H11.22V25.5227H13.22ZM12.22 24.8182H17.2698V22.8182H12.22V24.8182ZM14.3759 32V23.2269H12.3759V32H14.3759ZM14.3759 23.2269C14.3759 22.7592 14.4672 22.4563 14.5831 22.2601L12.8612 21.2427C12.5155 21.8278 12.3759 22.5085 12.3759 23.2269H14.3759ZM14.5797 22.2659C14.7152 22.0401 14.8888 21.8825 15.1155 21.7732L14.2464 19.9719C13.6635 20.2531 13.1979 20.6815 12.8647 21.2369L14.5797 22.2659ZM15.1155 21.7732C15.3664 21.6521 15.6742 21.5795 16.0606 21.5795V19.5795C15.4171 19.5795 14.8053 19.7023 14.2464 19.9719L15.1155 21.7732ZM16.0606 21.5795C16.3586 21.5795 16.6144 21.6024 16.832 21.6427L17.1962 19.6762C16.8384 19.6099 16.4586 19.5795 16.0606 19.5795V21.5795ZM16.8341 21.6431C17.1172 21.6949 17.2894 21.735 17.3766 21.7611L17.9513 19.8454C17.7543 19.7864 17.4933 19.7305 17.194 19.6758L16.8341 21.6431ZM16.691 20.5722L16.2862 22.2767L18.232 22.7389L18.6369 21.0343L16.691 20.5722ZM17.5639 21.5554C17.4234 21.5104 17.2707 21.4748 17.1147 21.4453L16.743 23.4105C16.8498 23.4307 16.9172 23.4484 16.9543 23.4602L17.5639 21.5554ZM17.1197 21.4463C16.9268 21.4088 16.7314 21.3906 16.5347 21.3906V23.3906C16.6079 23.3906 16.6753 23.3973 16.738 23.4095L17.1197 21.4463ZM16.5347 21.3906C16.0894 21.3906 15.4858 21.4887 15.0715 21.9814L16.6022 23.2686C16.5669 23.3106 16.5293 23.3417 16.4958 23.3632C16.4631 23.3843 16.4383 23.3938 16.4283 23.3972C16.4186 23.4004 16.4211 23.3985 16.4399 23.3959C16.4587 23.3933 16.4896 23.3906 16.5347 23.3906V21.3906ZM15.0789 21.9728C14.7414 22.365 14.6398 22.8429 14.6398 23.2695H16.6398C16.6398 23.208 16.6473 23.1867 16.6453 23.1931C16.6442 23.197 16.6404 23.208 16.6319 23.2238C16.6234 23.2398 16.6112 23.2583 16.5949 23.2772L15.0789 21.9728ZM14.6398 23.2695V32H16.6398V23.2695H14.6398ZM15.6398 31H13.3759V33H15.6398V31ZM23.0559 23.8182H24.0559V22.8182H23.0559V23.8182ZM23.0559 25.5227V26.5227H24.0559V25.5227H23.0559ZM18.0062 25.5227H17.0062V26.5227H18.0062V25.5227ZM18.0062 23.8182V22.8182H17.0062V23.8182H18.0062ZM19.1621 32H18.1621V33H19.1621V32ZM19.5083 21.7514L18.6508 21.2369L18.6474 21.2427L19.5083 21.7514ZM20.4671 20.8725L20.0326 19.9719L20.0326 19.9719L20.4671 20.8725ZM22.8002 20.6594L22.6181 21.6427L22.6203 21.6431L22.8002 20.6594ZM23.4501 20.8033L24.423 21.0343L24.641 20.1165L23.7374 19.8454L23.4501 20.8033ZM23.0452 22.5078L22.7405 23.4602L23.7687 23.7893L24.0182 22.7389L23.0452 22.5078ZM22.715 22.4279L22.5241 23.4095L22.5291 23.4105L22.715 22.4279ZM21.623 22.625L22.3811 23.2773L22.3884 23.2686L21.623 22.625ZM21.4259 32V33H22.4259V32H21.4259ZM22.0559 23.8182V25.5227H24.0559V23.8182H22.0559ZM23.0559 24.5227H18.0062V26.5227H23.0559V24.5227ZM19.0062 25.5227V23.8182H17.0062V25.5227H19.0062ZM18.0062 24.8182H23.0559V22.8182H18.0062V24.8182ZM20.1621 32V23.2269H18.1621V32H20.1621ZM20.1621 23.2269C20.1621 22.7592 20.2533 22.4563 20.3692 22.2601L18.6474 21.2427C18.3016 21.8278 18.1621 22.5085 18.1621 23.2269H20.1621ZM20.3658 22.2659C20.5013 22.0401 20.6749 21.8825 20.9016 21.7732L20.0326 19.9719C19.4496 20.2531 18.9841 20.6815 18.6508 21.2369L20.3658 22.2659ZM20.9016 21.7732C21.1525 21.6521 21.4603 21.5795 21.8467 21.5795V19.5795C21.2033 19.5795 20.5914 19.7023 20.0326 19.9719L20.9016 21.7732ZM21.8467 21.5795C22.1448 21.5795 22.4005 21.6024 22.6181 21.6427L22.9823 19.6762C22.6246 19.6099 22.2447 19.5795 21.8467 19.5795V21.5795ZM22.6203 21.6431C22.9034 21.6949 23.0756 21.735 23.1627 21.7611L23.7374 19.8454C23.5405 19.7864 23.2794 19.7305 22.9801 19.6758L22.6203 21.6431ZM22.4771 20.5722L22.0723 22.2767L24.0182 22.7389L24.423 21.0343L22.4771 20.5722ZM23.35 21.5554C23.2096 21.5104 23.0568 21.4748 22.9009 21.4453L22.5291 23.4105C22.6359 23.4307 22.7034 23.4484 22.7405 23.4602L23.35 21.5554ZM22.9058 21.4463C22.7129 21.4088 22.5175 21.3906 22.3208 21.3906V23.3906C22.394 23.3906 22.4614 23.3973 22.5241 23.4095L22.9058 21.4463ZM22.3208 21.3906C21.8755 21.3906 21.2719 21.4887 20.8576 21.9814L22.3884 23.2686C22.3531 23.3106 22.3154 23.3417 22.2819 23.3632C22.2493 23.3843 22.2245 23.3938 22.2144 23.3972C22.2047 23.4004 22.2072 23.3985 22.2261 23.3959C22.2448 23.3933 22.2757 23.3906 22.3208 23.3906V21.3906ZM20.865 21.9728C20.5275 22.365 20.4259 22.8429 20.4259 23.2695H22.4259C22.4259 23.208 22.4334 23.1867 22.4315 23.1931C22.4303 23.197 22.4265 23.208 22.4181 23.2238C22.4095 23.2398 22.3973 23.2583 22.381 23.2772L20.865 21.9728ZM20.4259 23.2695V32H22.4259V23.2695H20.4259ZM21.4259 31H19.1621V33H21.4259V31ZM25.7046 31.6484L25.209 32.517L25.2151 32.5204L25.7046 31.6484ZM24.309 30.1889L23.4206 30.6481L23.4217 30.6501L24.309 30.1889ZM24.309 25.7305L23.4196 25.2733L23.4196 25.2733L24.309 25.7305ZM25.6886 24.2443L25.1771 23.385L25.1749 23.3864L25.6886 24.2443ZM29.2948 23.9727L28.9444 24.9093L28.953 24.9124L29.2948 23.9727ZM30.5199 24.745L29.8165 25.4558L29.8201 25.4593L30.5199 24.745ZM31.3402 26.0447L30.4037 26.3952L30.4044 26.3973L31.3402 26.0447ZM31.6332 28.4897V29.4897H32.6332V28.4897H31.6332ZM24.7245 28.4897H23.7245V29.4897H24.7245V28.4897ZM24.7245 27.0835V26.0835H23.7245V27.0835H24.7245ZM29.4972 27.0835V28.0835H30.4972V27.0835H29.4972ZM29.2841 26.2152L28.4129 26.706L28.4129 26.706L29.2841 26.2152ZM28.6929 25.6239L28.1875 26.4868L28.1947 26.4911L28.202 26.4952L28.6929 25.6239ZM26.9084 25.6452L27.4195 26.5048L27.4229 26.5027L26.9084 25.6452ZM26.2905 26.2791L27.1602 26.7727L27.163 26.7677L26.2905 26.2791ZM26.0615 27.158L25.0615 27.147V27.158H26.0615ZM26.2852 29.5444L25.3929 29.9959L25.3973 30.0044L26.2852 29.5444ZM28.6076 30.3594L28.2866 29.4123L28.2866 29.4123L28.6076 30.3594ZM29.1456 30.0398L28.456 29.3156L28.456 29.3156L29.1456 30.0398ZM29.4866 29.5178L29.5524 28.5199L28.814 28.4712L28.5516 29.1631L29.4866 29.5178ZM31.5853 29.6562L32.5637 29.863L32.8021 28.7344L31.6511 28.6584L31.5853 29.6562ZM30.9301 30.9773L30.1784 30.3178L30.178 30.3183L30.9301 30.9773ZM29.6623 31.8509L30.0337 32.7793L30.037 32.778L29.6623 31.8509ZM27.8779 31.1598C27.1721 31.1598 26.6236 31.0176 26.1941 30.7765L25.2151 32.5204C26.0001 32.9611 26.9004 33.1598 27.8779 33.1598V31.1598ZM26.2002 30.7799C25.7669 30.5326 25.4361 30.1891 25.1963 29.7277L23.4217 30.6501C23.8353 31.4458 24.4349 32.0753 25.209 32.517L26.2002 30.7799ZM25.1974 29.7298C24.958 29.2667 24.8189 28.6831 24.8189 27.9464H22.8189C22.8189 28.9355 23.0066 29.8469 23.4206 30.6481L25.1974 29.7298ZM24.8189 27.9464C24.8189 27.2356 24.9562 26.6587 25.1984 26.1876L23.4196 25.2733C23.0083 26.0735 22.8189 26.9739 22.8189 27.9464H24.8189ZM25.1984 26.1876C25.4428 25.7121 25.7751 25.3581 26.2024 25.1023L25.1749 23.3864C24.416 23.8408 23.8286 24.4776 23.4196 25.2733L25.1984 26.1876ZM26.2001 25.1036C26.6192 24.8542 27.1363 24.7116 27.7873 24.7116V22.7116C26.8332 22.7116 25.9512 22.9243 25.1771 23.385L26.2001 25.1036ZM27.7873 24.7116C28.2179 24.7116 28.6006 24.7807 28.9444 24.9093L29.6451 23.036C29.0585 22.8166 28.4363 22.7116 27.7873 22.7116V24.7116ZM28.953 24.9124C29.2887 25.0345 29.573 25.2148 29.8165 25.4558L31.2234 24.0343C30.7708 23.5863 30.2384 23.2517 29.6365 23.0329L28.953 24.9124ZM29.8201 25.4593C30.054 25.6885 30.2528 25.9921 30.4037 26.3952L32.2768 25.6943C32.037 25.0534 31.689 24.4905 31.2198 24.0307L29.8201 25.4593ZM30.4044 26.3973C30.548 26.7783 30.6332 27.2613 30.6332 27.8665H32.6332C32.6332 27.0797 32.5231 26.3481 32.276 25.6922L30.4044 26.3973ZM30.6332 27.8665V28.4897H32.6332V27.8665H30.6332ZM31.6332 27.4897H24.7245V29.4897H31.6332V27.4897ZM25.7245 28.4897V27.0835H23.7245V28.4897H25.7245ZM24.7245 28.0835H29.4972V26.0835H24.7245V28.0835ZM30.4972 27.0835C30.4972 26.6073 30.3923 26.1448 30.1554 25.7244L28.4129 26.706C28.4601 26.7899 28.4972 26.9062 28.4972 27.0835H30.4972ZM30.1554 25.7244C29.9237 25.3131 29.595 24.9844 29.1837 24.7527L28.202 26.4952C28.295 26.5476 28.3605 26.6131 28.4129 26.706L30.1554 25.7244ZM29.1983 24.7611C28.7751 24.5132 28.3061 24.4055 27.8246 24.4055V26.4055C28.0037 26.4055 28.1135 26.4435 28.1875 26.4868L29.1983 24.7611ZM27.8246 24.4055C27.3192 24.4055 26.8322 24.5248 26.3939 24.7877L27.4229 26.5027C27.5173 26.4461 27.6411 26.4055 27.8246 26.4055V24.4055ZM26.3973 24.7857C25.9839 25.0316 25.6531 25.3707 25.418 25.7905L27.163 26.7677C27.2262 26.6549 27.3074 26.5714 27.4195 26.5048L26.3973 24.7857ZM25.4208 25.7855C25.1823 26.2058 25.0668 26.6667 25.0615 27.147L27.0614 27.169C27.0632 27.003 27.1004 26.878 27.1602 26.7727L25.4208 25.7855ZM25.0615 27.158V28.495H27.0615V27.158H25.0615ZM25.0615 28.495C25.0615 29.0219 25.1588 29.5331 25.3929 29.9959L27.1775 29.0929C27.1134 28.9662 27.0615 28.7778 27.0615 28.495H25.0615ZM25.3973 30.0044C25.6344 30.462 25.9809 30.8333 26.43 31.0924L27.4295 29.36C27.3245 29.2995 27.2414 29.2162 27.1731 29.0844L25.3973 30.0044ZM26.43 31.0924C26.8853 31.3551 27.3929 31.4659 27.9152 31.4659V29.4659C27.6775 29.4659 27.5281 29.417 27.4295 29.36L26.43 31.0924ZM27.9152 31.4659C28.2615 31.4659 28.6024 31.417 28.9287 31.3064L28.2866 29.4123C28.1938 29.4438 28.0731 29.4659 27.9152 29.4659V31.4659ZM28.9287 31.3064C29.2654 31.1923 29.5733 31.0134 29.8353 30.7639L28.456 29.3156C28.4197 29.3502 28.3689 29.3844 28.2866 29.4123L28.9287 31.3064ZM29.8353 30.7639C30.1003 30.5115 30.2941 30.2084 30.4215 29.8724L28.5516 29.1631C28.5228 29.239 28.4893 29.2839 28.456 29.3156L29.8353 30.7639ZM29.4207 30.5156L31.5194 30.6541L31.6511 28.6584L29.5524 28.5199L29.4207 30.5156ZM30.6069 29.4495C30.5347 29.791 30.3921 30.0742 30.1784 30.3178L31.6818 31.6368C32.1286 31.1275 32.4228 30.53 32.5637 29.863L30.6069 29.4495ZM30.178 30.3183C29.9669 30.5591 29.6798 30.7652 29.2877 30.9237L30.037 32.778C30.6818 32.5174 31.2399 32.1411 31.6822 31.6363L30.178 30.3183ZM29.2909 30.9224C28.9167 31.0721 28.4522 31.1598 27.8779 31.1598V33.1598C28.653 33.1598 29.3781 33.0416 30.0337 32.7793L29.2909 30.9224ZM33.114 32H32.114V33H33.114V32ZM33.114 23.8182V22.8182H32.114V23.8182H33.114ZM35.314 23.8182H36.314V22.8182H35.314V23.8182ZM35.314 25.2457H34.314V26.2457H35.314V25.2457ZM35.3992 25.2457V26.2457H36.1477L36.3587 25.5275L35.3992 25.2457ZM36.1503 24.0952L36.7437 24.9L36.749 24.8961L36.1503 24.0952ZM37.7323 23.7223L37.8398 22.7281L37.8398 22.7281L37.7323 23.7223ZM38.0785 23.7809H39.0785V23.0001L38.3211 22.8108L38.0785 23.7809ZM38.0785 25.7944L37.7912 26.7522L39.0785 27.1384V25.7944H38.0785ZM36.2248 25.8903L36.7054 26.7673L36.7095 26.765L36.2248 25.8903ZM35.6069 26.4869L34.7483 25.9741L34.7432 25.983L35.6069 26.4869ZM35.3832 32V33H36.3832V32H35.3832ZM34.114 32V23.8182H32.114V32H34.114ZM33.114 24.8182H35.314V22.8182H33.114V24.8182ZM34.314 23.8182V25.2457H36.314V23.8182H34.314ZM35.314 26.2457H35.3992V24.2457H35.314V26.2457ZM36.3587 25.5275C36.4596 25.1838 36.6028 25.004 36.7437 24.9L35.5568 23.2903C34.9946 23.7048 34.6371 24.292 34.4397 24.9639L36.3587 25.5275ZM36.749 24.8961C36.9198 24.7685 37.1124 24.701 37.3647 24.701V22.701C36.7009 22.701 36.0839 22.8963 35.5516 23.2942L36.749 24.8961ZM37.3647 24.701C37.4373 24.701 37.5235 24.7056 37.6248 24.7165L37.8398 22.7281C37.6783 22.7106 37.5195 22.701 37.3647 22.701V24.701ZM37.6248 24.7165C37.723 24.7271 37.7915 24.7399 37.836 24.751L38.3211 22.8108C38.1667 22.7722 38.0044 22.7459 37.8398 22.7281L37.6248 24.7165ZM37.0785 23.7809V25.7944H39.0785V23.7809H37.0785ZM38.3659 24.8366C38.1848 24.7823 37.9771 24.7455 37.7673 24.7178L37.5055 26.7006C37.6721 26.7226 37.7591 26.7426 37.7912 26.7522L38.3659 24.8366ZM37.7673 24.7178C37.5446 24.6884 37.3279 24.6719 37.1197 24.6719V26.6719C37.2241 26.6719 37.3518 26.6803 37.5055 26.7006L37.7673 24.7178ZM37.1197 24.6719C36.6356 24.6719 36.1672 24.7789 35.7402 25.0156L36.7095 26.765C36.808 26.7104 36.9362 26.6719 37.1197 26.6719V24.6719ZM35.7443 25.0133C35.3276 25.2416 34.9917 25.5667 34.7484 25.9741L36.4655 26.9996C36.5276 26.8956 36.6035 26.823 36.7054 26.7672L35.7443 25.0133ZM34.7432 25.983C34.4938 26.4104 34.3832 26.8833 34.3832 27.3711H36.3832C36.3832 27.1913 36.4217 27.0747 36.4707 26.9907L34.7432 25.983ZM34.3832 27.3711V32H36.3832V27.3711H34.3832ZM35.3832 31H33.114V33H35.3832V31ZM46.0593 26.1513L46.1207 27.1494L47.1911 27.0835L47.0507 26.0203L46.0593 26.1513ZM43.9818 26.2791L43.0013 26.4752L43.1724 27.3308L44.0433 27.2772L43.9818 26.2791ZM43.7528 25.7997L42.9737 26.4268L42.9814 26.4361L43.7528 25.7997ZM43.2894 25.4535L42.8628 26.3579L42.8729 26.3627L42.8832 26.3673L43.2894 25.4535ZM41.7233 25.544L42.2397 26.4005L42.2488 26.3948L41.7233 25.544ZM41.5955 26.6254L40.9419 27.3822L40.9419 27.3822L41.5955 26.6254ZM42.3998 26.9503L42.1896 27.928L42.2023 27.9306L42.3998 26.9503ZM43.8806 27.2486L44.0818 26.269L44.0781 26.2683L43.8806 27.2486ZM45.6598 28.0369L44.9798 28.7702L44.9798 28.7702L45.6598 28.0369ZM45.7716 30.8761L44.9834 30.2607L44.98 30.265L45.7716 30.8761ZM44.4826 31.8242L44.8633 32.7489L44.8663 32.7477L44.4826 31.8242ZM40.0134 31.4833L39.4339 32.2983L39.4391 32.3019L40.0134 31.4833ZM38.8895 29.6296L38.8371 28.631L37.747 28.6882L37.8993 29.7691L38.8895 29.6296ZM41.1214 29.5124L42.1012 29.3123L41.9288 28.4687L41.069 28.5138L41.1214 29.5124ZM41.6115 30.2688L41.0541 31.0992L41.0621 31.1044L41.6115 30.2688ZM43.5664 30.2955L44.1008 31.1407L44.104 31.1386L43.5664 30.2955ZM43.9392 29.6935L44.9391 29.708L44.9394 29.6922L44.9391 29.6763L43.9392 29.6935ZM43.6782 29.1875L43.0575 29.9716L43.0677 29.9795L43.6782 29.1875ZM42.8899 28.8786L43.086 27.898L43.0853 27.8978L42.8899 28.8786ZM41.473 28.5962L41.2769 29.5768L41.2776 29.577L41.473 28.5962ZM39.6885 27.7653L38.975 28.4659L38.9782 28.4692L39.6885 27.7653ZM39.534 24.8995L38.7367 24.2959L38.7331 24.3007L39.534 24.8995ZM40.7432 24.0206L40.3762 23.0904L40.374 23.0912L40.7432 24.0206ZM45.0152 24.3668L44.4222 25.172L44.4245 25.1737L45.0152 24.3668ZM45.9978 25.1532L43.9204 25.281L44.0433 27.2772L46.1207 27.1494L45.9978 25.1532ZM44.9624 26.083C44.894 25.7408 44.7445 25.4304 44.5242 25.1633L42.9814 26.4361C42.9955 26.4531 42.9987 26.4623 43.0013 26.4752L44.9624 26.083ZM44.5318 25.1727C44.3032 24.8887 44.0145 24.6815 43.6955 24.5397L42.8832 26.3673C42.9477 26.396 42.968 26.4195 42.9738 26.4267L44.5318 25.1727ZM43.716 24.549C43.3641 24.3831 42.9856 24.3203 42.6129 24.3203V26.3203C42.7658 26.3203 42.8382 26.3463 42.8628 26.3579L43.716 24.549ZM42.6129 24.3203C42.1199 24.3203 41.631 24.4257 41.1978 24.6932L42.2488 26.3948C42.2986 26.3641 42.4028 26.3203 42.6129 26.3203V24.3203ZM41.207 24.6877C40.719 24.9818 40.3611 25.476 40.3611 26.13H42.3611C42.3611 26.1802 42.3462 26.2545 42.3023 26.3255C42.2621 26.3905 42.2245 26.4096 42.2397 26.4004L41.207 24.6877ZM40.3611 26.13C40.3611 26.6343 40.5799 27.0696 40.9419 27.3822L42.2491 25.8685C42.2627 25.8803 42.2958 25.9138 42.3236 25.9726C42.3521 26.0329 42.3611 26.0902 42.3611 26.13H40.3611ZM40.9419 27.3822C41.2939 27.6862 41.7667 27.837 42.1897 27.928L42.61 25.9726C42.4583 25.94 42.3546 25.9074 42.2883 25.8806C42.2185 25.8524 42.2183 25.8419 42.2491 25.8685L40.9419 27.3822ZM42.2023 27.9306L43.6832 28.2289L44.0781 26.2683L42.5973 25.97L42.2023 27.9306ZM43.6795 28.2281C44.3826 28.3725 44.776 28.5812 44.9798 28.7702L46.3397 27.3037C45.7623 26.7682 44.9696 26.4513 44.0818 26.269L43.6795 28.2281ZM44.9798 28.7702C45.1434 28.9219 45.2457 29.1204 45.2457 29.4645H47.2457C47.2457 28.6296 46.9574 27.8764 46.3397 27.3037L44.9798 28.7702ZM45.2457 29.4645C45.2457 29.7883 45.1558 30.0398 44.9834 30.2607L46.5599 31.4914C47.0195 30.9027 47.2457 30.2131 47.2457 29.4645H45.2457ZM44.98 30.265C44.7898 30.5115 44.5105 30.7297 44.0988 30.9008L44.8663 32.7477C45.5483 32.4642 46.1285 32.0503 46.5632 31.4871L44.98 30.265ZM44.1018 30.8995C43.7016 31.0643 43.2084 31.1598 42.6022 31.1598V33.1598C43.4165 33.1598 44.1768 33.0316 44.8633 32.7489L44.1018 30.8995ZM42.6022 31.1598C41.6488 31.1598 41.0093 30.9605 40.5878 30.6647L39.4391 32.3019C40.3031 32.9081 41.3895 33.1598 42.6022 33.1598V31.1598ZM40.593 30.6684C40.1791 30.3741 39.9517 30.0012 39.8797 29.4901L37.8993 29.7691C38.0475 30.8206 38.5694 31.6835 39.4339 32.2983L40.593 30.6684ZM38.9419 30.6282L41.1738 30.5111L41.069 28.5138L38.8371 28.631L38.9419 30.6282ZM40.1416 29.7126C40.2571 30.2776 40.5584 30.7663 41.0541 31.0991L42.1688 29.4385C42.1461 29.4233 42.1207 29.4077 42.1012 29.3123L40.1416 29.7126ZM41.0621 31.1044C41.5274 31.4104 42.0662 31.5245 42.6076 31.5245V29.5245C42.3393 29.5245 42.214 29.4682 42.1609 29.4333L41.0621 31.1044ZM42.6076 31.5245C43.1233 31.5245 43.6483 31.4268 44.1008 31.1406L43.0319 29.4503C43.0014 29.4695 42.8873 29.5245 42.6076 29.5245V31.5245ZM44.104 31.1386C44.5718 30.8403 44.9297 30.3558 44.9391 29.708L42.9393 29.679C42.9397 29.6569 42.9429 29.6272 42.9527 29.5933C42.9625 29.559 42.9768 29.5277 42.9932 29.5012C43.0263 29.4478 43.0533 29.4366 43.0287 29.4523L44.104 31.1386ZM44.9391 29.6763C44.93 29.1509 44.6875 28.7029 44.2887 28.3955L43.0677 29.9795C43.0525 29.9677 43.0147 29.9333 42.9826 29.871C42.9498 29.8073 42.94 29.7481 42.9394 29.7108L44.9391 29.6763ZM44.2989 28.4035C43.948 28.1257 43.5055 27.9819 43.086 27.898L42.6938 29.8591C42.829 29.8862 42.9245 29.9151 42.9884 29.9401C43.0536 29.9657 43.069 29.9806 43.0575 29.9715L44.2989 28.4035ZM43.0853 27.8978L41.6684 27.6155L41.2776 29.577L42.6945 29.8593L43.0853 27.8978ZM41.6691 27.6157C40.9787 27.4776 40.598 27.2624 40.3988 27.0614L38.9782 28.4692C39.5603 29.0565 40.3693 29.3953 41.2769 29.5768L41.6691 27.6157ZM40.402 27.0646C40.2187 26.878 40.1079 26.6368 40.1079 26.2578H38.1079C38.1079 27.1004 38.3841 27.8642 38.975 28.4659L40.402 27.0646ZM40.1079 26.2578C40.1079 25.9236 40.194 25.6868 40.3349 25.4983L38.7331 24.3007C38.3059 24.8722 38.1079 25.5409 38.1079 26.2578H40.1079ZM40.3314 25.5031C40.4911 25.292 40.7344 25.1001 41.1124 24.9499L40.374 23.0912C39.7151 23.353 39.1523 23.747 38.7367 24.2959L40.3314 25.5031ZM41.1102 24.9508C41.4905 24.8008 41.9718 24.7116 42.5756 24.7116V22.7116C41.7803 22.7116 41.04 22.8285 40.3762 23.0904L41.1102 24.9508ZM42.5756 24.7116C43.4793 24.7116 44.0579 24.9037 44.4222 25.172L45.6083 23.5617C44.7864 22.9564 43.7387 22.7116 42.5756 22.7116V24.7116ZM44.4245 25.1737C44.7943 25.4444 45.0031 25.7917 45.0679 26.2822L47.0507 26.0203C46.9166 25.0052 46.4294 24.1628 45.606 23.56L44.4245 25.1737Z" fill="#437CFF" mask="url(#path-1-outside-1_34_142)"/>
<mask id="path-3-outside-2_34_142" maskUnits="userSpaceOnUse" x="6" y="2" width="35" height="14" fill="black">
<rect fill="white" x="6" y="2" width="35" height="14"/>
<path d="M7.38077 14V3.09091H11.7487C12.5512 3.09091 13.2206 3.20987 13.7568 3.4478C14.2931 3.68572 14.6961 4.01598 14.966 4.43857C15.2359 4.8576 15.3708 5.34055 15.3708 5.88743C15.3708 6.31357 15.2856 6.68821 15.1151 7.01136C14.9447 7.33097 14.7103 7.59375 14.412 7.79972C14.1173 8.00213 13.7799 8.14595 13.3999 8.23118V8.33771C13.8154 8.35547 14.2043 8.47266 14.5665 8.68928C14.9323 8.90589 15.2288 9.20952 15.4561 9.60014C15.6833 9.98722 15.797 10.4489 15.797 10.9851C15.797 11.5639 15.6531 12.0806 15.3655 12.5352C15.0814 12.9862 14.6606 13.343 14.1031 13.6058C13.5455 13.8686 12.8584 14 12.0416 14H7.38077ZM9.68723 12.1143H11.5676C12.2103 12.1143 12.6791 11.9918 12.9738 11.7468C13.2686 11.4982 13.4159 11.168 13.4159 10.756C13.4159 10.4542 13.3431 10.1879 13.1975 9.95703C13.0519 9.72621 12.8442 9.5451 12.5743 9.41371C12.308 9.28232 11.9901 9.21662 11.6208 9.21662H9.68723V12.1143ZM9.68723 7.65589H11.3971C11.7132 7.65589 11.9937 7.60085 12.2387 7.49077C12.4873 7.37713 12.6826 7.21733 12.8247 7.01136C12.9703 6.8054 13.0431 6.55859 13.0431 6.27095C13.0431 5.87678 12.9028 5.55895 12.6222 5.31747C12.3453 5.07599 11.9511 4.95526 11.4397 4.95526H9.68723V7.65589ZM20.9838 14.1598C20.1422 14.1598 19.4178 13.9893 18.8105 13.6484C18.2069 13.304 17.7417 12.8175 17.415 12.1889C17.0882 11.5568 16.9249 10.8093 16.9249 9.94638C16.9249 9.10476 17.0882 8.36612 17.415 7.73047C17.7417 7.09482 18.2015 6.59943 18.7946 6.24432C19.3912 5.8892 20.0907 5.71165 20.8933 5.71165C21.4331 5.71165 21.9355 5.79865 22.4007 5.97266C22.8695 6.14311 23.2779 6.40057 23.6259 6.74503C23.9775 7.08949 24.2509 7.52273 24.4462 8.04474C24.6415 8.56321 24.7392 9.17045 24.7392 9.86648V10.4897H17.8304V9.08345H22.6032C22.6032 8.75675 22.5321 8.46733 22.3901 8.2152C22.248 7.96307 22.051 7.76598 21.7988 7.62393C21.5502 7.47834 21.2608 7.40554 20.9306 7.40554C20.5861 7.40554 20.2807 7.48544 20.0144 7.64524C19.7516 7.80149 19.5456 8.01278 19.3965 8.27912C19.2473 8.5419 19.171 8.83487 19.1674 9.15803V10.495C19.1674 10.8999 19.242 11.2496 19.3912 11.5444C19.5439 11.8391 19.7587 12.0664 20.0357 12.2262C20.3127 12.386 20.6412 12.4659 21.0211 12.4659C21.2733 12.4659 21.5041 12.4304 21.7136 12.3594C21.9231 12.2884 22.1025 12.1818 22.2516 12.0398C22.4007 11.8977 22.5144 11.7237 22.5925 11.5178L24.6912 11.6562C24.5847 12.1605 24.3663 12.6009 24.036 12.9773C23.7093 13.3501 23.2868 13.6413 22.7683 13.8509C22.2534 14.0568 21.6586 14.1598 20.9838 14.1598ZM33.0275 8.15128L30.9501 8.27912C30.9146 8.10156 30.8382 7.94176 30.7211 7.79972C30.6039 7.65412 30.4494 7.53871 30.2576 7.45348C30.0694 7.3647 29.8439 7.32031 29.5811 7.32031C29.2296 7.32031 28.9331 7.39489 28.6916 7.54403C28.4501 7.68963 28.3294 7.88494 28.3294 8.12997C28.3294 8.32528 28.4075 8.49041 28.5637 8.62536C28.72 8.7603 28.9881 8.86861 29.3681 8.95028L30.8489 9.24858C31.6444 9.41193 32.2374 9.67472 32.628 10.0369C33.0186 10.3991 33.214 10.875 33.214 11.4645C33.214 12.0007 33.0559 12.4712 32.7399 12.8761C32.4274 13.2809 31.9977 13.5969 31.4508 13.8242C30.9075 14.0479 30.2807 14.1598 29.5705 14.1598C28.4874 14.1598 27.6245 13.9343 26.9817 13.4833C26.3425 13.0288 25.9679 12.4109 25.8578 11.6296L28.0897 11.5124C28.1571 11.8427 28.3205 12.0948 28.5797 12.2688C28.839 12.4393 29.171 12.5245 29.5758 12.5245C29.9735 12.5245 30.2931 12.4482 30.5346 12.2955C30.7797 12.1392 30.9039 11.9386 30.9075 11.6935C30.9039 11.4876 30.8169 11.3189 30.6465 11.1875C30.476 11.0526 30.2132 10.9496 29.8581 10.8786L28.4412 10.5962C27.6422 10.4364 27.0474 10.1594 26.6568 9.76527C26.2697 9.37109 26.0762 8.86861 26.0762 8.25781C26.0762 7.73224 26.2182 7.27947 26.5023 6.8995C26.79 6.51953 27.193 6.22656 27.7115 6.0206C28.2335 5.81463 28.8443 5.71165 29.5439 5.71165C30.5772 5.71165 31.3904 5.93004 31.9835 6.36683C32.5801 6.80362 32.9281 7.39844 33.0275 8.15128ZM38.9948 5.81818V7.52273H34.0676V5.81818H38.9948ZM35.1862 3.85795H37.4553V11.4858C37.4553 11.6953 37.4873 11.8587 37.5512 11.9759C37.6151 12.0895 37.7039 12.1694 37.8176 12.2156C37.9347 12.2617 38.0697 12.2848 38.2224 12.2848C38.3289 12.2848 38.4355 12.2759 38.542 12.2582C38.6485 12.2369 38.7302 12.2209 38.787 12.2102L39.1439 13.8988C39.0303 13.9343 38.8705 13.9751 38.6645 14.0213C38.4585 14.071 38.2082 14.1012 37.9134 14.1119C37.3666 14.1332 36.8872 14.0604 36.4752 13.8935C36.0669 13.7266 35.749 13.4673 35.5218 13.1158C35.2945 12.7642 35.1826 12.3203 35.1862 11.7841V3.85795Z"/>
</mask>
<path d="M7.38077 14V3.09091H11.7487C12.5512 3.09091 13.2206 3.20987 13.7568 3.4478C14.2931 3.68572 14.6961 4.01598 14.966 4.43857C15.2359 4.8576 15.3708 5.34055 15.3708 5.88743C15.3708 6.31357 15.2856 6.68821 15.1151 7.01136C14.9447 7.33097 14.7103 7.59375 14.412 7.79972C14.1173 8.00213 13.7799 8.14595 13.3999 8.23118V8.33771C13.8154 8.35547 14.2043 8.47266 14.5665 8.68928C14.9323 8.90589 15.2288 9.20952 15.4561 9.60014C15.6833 9.98722 15.797 10.4489 15.797 10.9851C15.797 11.5639 15.6531 12.0806 15.3655 12.5352C15.0814 12.9862 14.6606 13.343 14.1031 13.6058C13.5455 13.8686 12.8584 14 12.0416 14H7.38077ZM9.68723 12.1143H11.5676C12.2103 12.1143 12.6791 11.9918 12.9738 11.7468C13.2686 11.4982 13.4159 11.168 13.4159 10.756C13.4159 10.4542 13.3431 10.1879 13.1975 9.95703C13.0519 9.72621 12.8442 9.5451 12.5743 9.41371C12.308 9.28232 11.9901 9.21662 11.6208 9.21662H9.68723V12.1143ZM9.68723 7.65589H11.3971C11.7132 7.65589 11.9937 7.60085 12.2387 7.49077C12.4873 7.37713 12.6826 7.21733 12.8247 7.01136C12.9703 6.8054 13.0431 6.55859 13.0431 6.27095C13.0431 5.87678 12.9028 5.55895 12.6222 5.31747C12.3453 5.07599 11.9511 4.95526 11.4397 4.95526H9.68723V7.65589ZM20.9838 14.1598C20.1422 14.1598 19.4178 13.9893 18.8105 13.6484C18.2069 13.304 17.7417 12.8175 17.415 12.1889C17.0882 11.5568 16.9249 10.8093 16.9249 9.94638C16.9249 9.10476 17.0882 8.36612 17.415 7.73047C17.7417 7.09482 18.2015 6.59943 18.7946 6.24432C19.3912 5.8892 20.0907 5.71165 20.8933 5.71165C21.4331 5.71165 21.9355 5.79865 22.4007 5.97266C22.8695 6.14311 23.2779 6.40057 23.6259 6.74503C23.9775 7.08949 24.2509 7.52273 24.4462 8.04474C24.6415 8.56321 24.7392 9.17045 24.7392 9.86648V10.4897H17.8304V9.08345H22.6032C22.6032 8.75675 22.5321 8.46733 22.3901 8.2152C22.248 7.96307 22.051 7.76598 21.7988 7.62393C21.5502 7.47834 21.2608 7.40554 20.9306 7.40554C20.5861 7.40554 20.2807 7.48544 20.0144 7.64524C19.7516 7.80149 19.5456 8.01278 19.3965 8.27912C19.2473 8.5419 19.171 8.83487 19.1674 9.15803V10.495C19.1674 10.8999 19.242 11.2496 19.3912 11.5444C19.5439 11.8391 19.7587 12.0664 20.0357 12.2262C20.3127 12.386 20.6412 12.4659 21.0211 12.4659C21.2733 12.4659 21.5041 12.4304 21.7136 12.3594C21.9231 12.2884 22.1025 12.1818 22.2516 12.0398C22.4007 11.8977 22.5144 11.7237 22.5925 11.5178L24.6912 11.6562C24.5847 12.1605 24.3663 12.6009 24.036 12.9773C23.7093 13.3501 23.2868 13.6413 22.7683 13.8509C22.2534 14.0568 21.6586 14.1598 20.9838 14.1598ZM33.0275 8.15128L30.9501 8.27912C30.9146 8.10156 30.8382 7.94176 30.7211 7.79972C30.6039 7.65412 30.4494 7.53871 30.2576 7.45348C30.0694 7.3647 29.8439 7.32031 29.5811 7.32031C29.2296 7.32031 28.9331 7.39489 28.6916 7.54403C28.4501 7.68963 28.3294 7.88494 28.3294 8.12997C28.3294 8.32528 28.4075 8.49041 28.5637 8.62536C28.72 8.7603 28.9881 8.86861 29.3681 8.95028L30.8489 9.24858C31.6444 9.41193 32.2374 9.67472 32.628 10.0369C33.0186 10.3991 33.214 10.875 33.214 11.4645C33.214 12.0007 33.0559 12.4712 32.7399 12.8761C32.4274 13.2809 31.9977 13.5969 31.4508 13.8242C30.9075 14.0479 30.2807 14.1598 29.5705 14.1598C28.4874 14.1598 27.6245 13.9343 26.9817 13.4833C26.3425 13.0288 25.9679 12.4109 25.8578 11.6296L28.0897 11.5124C28.1571 11.8427 28.3205 12.0948 28.5797 12.2688C28.839 12.4393 29.171 12.5245 29.5758 12.5245C29.9735 12.5245 30.2931 12.4482 30.5346 12.2955C30.7797 12.1392 30.9039 11.9386 30.9075 11.6935C30.9039 11.4876 30.8169 11.3189 30.6465 11.1875C30.476 11.0526 30.2132 10.9496 29.8581 10.8786L28.4412 10.5962C27.6422 10.4364 27.0474 10.1594 26.6568 9.76527C26.2697 9.37109 26.0762 8.86861 26.0762 8.25781C26.0762 7.73224 26.2182 7.27947 26.5023 6.8995C26.79 6.51953 27.193 6.22656 27.7115 6.0206C28.2335 5.81463 28.8443 5.71165 29.5439 5.71165C30.5772 5.71165 31.3904 5.93004 31.9835 6.36683C32.5801 6.80362 32.9281 7.39844 33.0275 8.15128ZM38.9948 5.81818V7.52273H34.0676V5.81818H38.9948ZM35.1862 3.85795H37.4553V11.4858C37.4553 11.6953 37.4873 11.8587 37.5512 11.9759C37.6151 12.0895 37.7039 12.1694 37.8176 12.2156C37.9347 12.2617 38.0697 12.2848 38.2224 12.2848C38.3289 12.2848 38.4355 12.2759 38.542 12.2582C38.6485 12.2369 38.7302 12.2209 38.787 12.2102L39.1439 13.8988C39.0303 13.9343 38.8705 13.9751 38.6645 14.0213C38.4585 14.071 38.2082 14.1012 37.9134 14.1119C37.3666 14.1332 36.8872 14.0604 36.4752 13.8935C36.0669 13.7266 35.749 13.4673 35.5218 13.1158C35.2945 12.7642 35.1826 12.3203 35.1862 11.7841V3.85795Z" fill="#EBC085"/>
<path d="M7.38077 14H6.38077V15H7.38077V14ZM7.38077 3.09091V2.09091H6.38077V3.09091H7.38077ZM13.7568 3.4478L13.3513 4.36186L13.3513 4.36186L13.7568 3.4478ZM14.966 4.43857L14.1232 4.97682L14.1253 4.98004L14.966 4.43857ZM15.1151 7.01136L15.9975 7.48196L15.9996 7.47791L15.1151 7.01136ZM14.412 7.79972L14.9781 8.62405L14.9802 8.62261L14.412 7.79972ZM13.3999 8.23118L13.1811 7.25542L12.3999 7.43063V8.23118H13.3999ZM13.3999 8.33771H12.3999V9.29589L13.3573 9.3368L13.3999 8.33771ZM14.5665 8.68928L14.0532 9.54752L14.0569 9.5497L14.5665 8.68928ZM15.4561 9.60014L14.5917 10.103L14.5937 10.1065L15.4561 9.60014ZM15.3655 12.5352L14.5205 12.0004L14.5194 12.0022L15.3655 12.5352ZM14.1031 13.6058L13.6767 12.7013L13.6767 12.7013L14.1031 13.6058ZM9.68723 12.1143H8.68723V13.1143H9.68723V12.1143ZM12.9738 11.7468L13.6131 12.5158L13.6185 12.5112L12.9738 11.7468ZM13.1975 9.95703L12.3517 10.4905L12.3517 10.4905L13.1975 9.95703ZM12.5743 9.41371L12.1319 10.3105L12.1366 10.3128L12.5743 9.41371ZM9.68723 9.21662V8.21662H8.68723V9.21662H9.68723ZM9.68723 7.65589H8.68723V8.65589H9.68723V7.65589ZM12.2387 7.49077L12.6485 8.40295L12.6545 8.40024L12.2387 7.49077ZM12.8247 7.01136L12.008 6.43409L12.0014 6.44363L12.8247 7.01136ZM12.6222 5.31747L11.9651 6.07126L11.9699 6.07537L12.6222 5.31747ZM9.68723 4.95526V3.95526H8.68723V4.95526H9.68723ZM8.38077 14V3.09091H6.38077V14H8.38077ZM7.38077 4.09091H11.7487V2.09091H7.38077V4.09091ZM11.7487 4.09091C12.4599 4.09091 12.9806 4.19738 13.3513 4.36186L14.1624 2.53374C13.4607 2.22237 12.6426 2.09091 11.7487 2.09091V4.09091ZM13.3513 4.36186C13.7392 4.53399 13.976 4.74629 14.1232 4.97681L15.8088 3.90032C15.4162 3.28567 14.8469 2.83746 14.1624 2.53374L13.3513 4.36186ZM14.1253 4.98004C14.2812 5.22206 14.3708 5.51321 14.3708 5.88743H16.3708C16.3708 5.1679 16.1906 4.49314 15.8067 3.89709L14.1253 4.98004ZM14.3708 5.88743C14.3708 6.17809 14.3135 6.38768 14.2306 6.54482L15.9996 7.47791C16.2577 6.98874 16.3708 6.44905 16.3708 5.88743H14.3708ZM14.2328 6.54078C14.1375 6.71944 14.0109 6.86146 13.8438 6.97682L14.9802 8.62261C15.4097 8.32604 15.7519 7.94249 15.9975 7.48195L14.2328 6.54078ZM13.8459 6.97538C13.6652 7.09947 13.4479 7.19559 13.1811 7.25542L13.6188 9.20693C14.112 9.09632 14.5693 8.90479 14.9781 8.62405L13.8459 6.97538ZM12.3999 8.23118V8.33771H14.3999V8.23118H12.3999ZM13.3573 9.3368C13.604 9.34735 13.8315 9.41491 14.0532 9.54751L15.0798 7.83104C14.577 7.5304 14.0268 7.36359 13.4426 7.33862L13.3573 9.3368ZM14.0569 9.5497C14.2666 9.67386 14.4446 9.85028 14.5917 10.103L16.3204 9.09725C16.0129 8.56875 15.598 8.13793 15.0761 7.82885L14.0569 9.5497ZM14.5937 10.1065C14.7147 10.3126 14.797 10.5921 14.797 10.9851H16.797C16.797 10.3056 16.6519 9.66185 16.3184 9.09381L14.5937 10.1065ZM14.797 10.9851C14.797 11.3896 14.6991 11.7181 14.5205 12.0004L16.2105 13.0699C16.6071 12.4431 16.797 11.7382 16.797 10.9851H14.797ZM14.5194 12.0022C14.352 12.2678 14.0893 12.5068 13.6767 12.7013L14.5294 14.5104C15.2319 14.1793 15.8108 13.7045 16.2116 13.0681L14.5194 12.0022ZM13.6767 12.7013C13.2885 12.8842 12.7567 13 12.0416 13V15C12.9601 15 13.8026 14.853 14.5294 14.5104L13.6767 12.7013ZM12.0416 13H7.38077V15H12.0416V13ZM9.68723 13.1143H11.5676V11.1143H9.68723V13.1143ZM11.5676 13.1143C12.2985 13.1143 13.0521 12.9822 13.6131 12.5158L12.3345 10.9778C12.3061 11.0015 12.1221 11.1143 11.5676 11.1143V13.1143ZM13.6185 12.5112C14.1555 12.0583 14.4159 11.4397 14.4159 10.756H12.4159C12.4159 10.8962 12.3816 10.9381 12.3291 10.9824L13.6185 12.5112ZM14.4159 10.756C14.4159 10.2861 14.3002 9.83071 14.0433 9.42353L12.3517 10.4905C12.3861 10.545 12.4159 10.6223 12.4159 10.756H14.4159ZM14.0433 9.42353C13.7886 9.01971 13.432 8.71907 13.012 8.5146L12.1366 10.3128C12.2564 10.3711 12.3153 10.4327 12.3517 10.4905L14.0433 9.42353ZM13.0167 8.5169C12.5834 8.30312 12.107 8.21662 11.6208 8.21662V10.2166C11.8732 10.2166 12.0325 10.2615 12.1319 10.3105L13.0167 8.5169ZM11.6208 8.21662H9.68723V10.2166H11.6208V8.21662ZM8.68723 9.21662V12.1143H10.6872V9.21662H8.68723ZM9.68723 8.65589H11.3971V6.65589H9.68723V8.65589ZM11.3971 8.65589C11.8298 8.65589 12.2539 8.58024 12.6485 8.40294L11.8289 6.5786C11.7335 6.62147 11.5965 6.65589 11.3971 6.65589V8.65589ZM12.6545 8.40024C13.0516 8.21872 13.394 7.94723 13.6479 7.5791L12.0014 6.44363C11.9712 6.48743 11.923 6.53555 11.823 6.58129L12.6545 8.40024ZM13.6412 7.5886C13.9225 7.19078 14.0431 6.73523 14.0431 6.27095H12.0431C12.0431 6.38196 12.0181 6.42001 12.0081 6.43413L13.6412 7.5886ZM14.0431 6.27095C14.0431 5.60705 13.7916 5.00459 13.2746 4.55957L11.9699 6.07537C12.0139 6.1133 12.0431 6.1465 12.0431 6.27095H14.0431ZM13.2794 4.5637C12.7599 4.11085 12.0984 3.95526 11.4397 3.95526V5.95526C11.8038 5.95526 11.9306 6.04114 11.9651 6.07124L13.2794 4.5637ZM11.4397 3.95526H9.68723V5.95526H11.4397V3.95526ZM8.68723 4.95526V7.65589H10.6872V4.95526H8.68723ZM18.8105 13.6484L18.3149 14.517L18.321 14.5204L18.8105 13.6484ZM17.415 12.1889L16.5266 12.6481L16.5277 12.6501L17.415 12.1889ZM17.415 7.73047L16.5255 7.27335L16.5255 7.27335L17.415 7.73047ZM18.7946 6.24432L18.2831 5.38502L18.2808 5.38637L18.7946 6.24432ZM22.4007 5.97266L22.0504 6.90932L22.059 6.91245L22.4007 5.97266ZM23.6259 6.74503L22.9224 7.45576L22.926 7.45931L23.6259 6.74503ZM24.4462 8.04474L23.5096 8.39517L23.5104 8.39727L24.4462 8.04474ZM24.7392 10.4897V11.4897H25.7392V10.4897H24.7392ZM17.8304 10.4897H16.8304V11.4897H17.8304V10.4897ZM17.8304 9.08345V8.08345H16.8304V9.08345H17.8304ZM22.6032 9.08345V10.0835H23.6032V9.08345H22.6032ZM22.3901 8.2152L21.5188 8.70604L21.5188 8.70604L22.3901 8.2152ZM21.7988 7.62393L21.2934 8.48682L21.3007 8.49106L21.308 8.49518L21.7988 7.62393ZM20.0144 7.64524L20.5255 8.50478L20.5289 8.50273L20.0144 7.64524ZM19.3965 8.27912L20.2662 8.77273L20.269 8.76772L19.3965 8.27912ZM19.1674 9.15803L18.1674 9.14704V9.15803H19.1674ZM19.3912 11.5444L18.4989 11.9959L18.5032 12.0044L19.3912 11.5444ZM21.7136 12.3594L21.3926 11.4123L21.3926 11.4123L21.7136 12.3594ZM22.2516 12.0398L21.5619 11.3156L21.5619 11.3156L22.2516 12.0398ZM22.5925 11.5178L22.6584 10.5199L21.92 10.4712L21.6575 11.1631L22.5925 11.5178ZM24.6912 11.6562L25.6696 11.863L25.9081 10.7344L24.7571 10.6584L24.6912 11.6562ZM24.036 12.9773L23.2843 12.3178L23.2839 12.3183L24.036 12.9773ZM22.7683 13.8509L23.1397 14.7793L23.143 14.778L22.7683 13.8509ZM20.9838 13.1598C20.2781 13.1598 19.7296 13.0176 19.3001 12.7765L18.321 14.5204C19.106 14.9611 20.0064 15.1598 20.9838 15.1598V13.1598ZM19.3061 12.7799C18.8728 12.5326 18.5421 12.1891 18.3022 11.7277L16.5277 12.6501C16.9412 13.4458 17.5409 14.0753 18.315 14.517L19.3061 12.7799ZM18.3033 11.7298C18.064 11.2667 17.9249 10.6831 17.9249 9.94638H15.9249C15.9249 10.9355 16.1125 11.8469 16.5266 12.6481L18.3033 11.7298ZM17.9249 9.94638C17.9249 9.23559 18.0622 8.65874 18.3044 8.18759L16.5255 7.27335C16.1143 8.0735 15.9249 8.97392 15.9249 9.94638H17.9249ZM18.3044 8.18759C18.5488 7.71207 18.8811 7.35809 19.3083 7.10226L18.2808 5.38637C17.522 5.84077 16.9346 6.47756 16.5255 7.27335L18.3044 8.18759ZM19.3061 7.10361C19.7251 6.85415 20.2423 6.71165 20.8933 6.71165V4.71165C19.9392 4.71165 19.0572 4.92425 18.2831 5.38502L19.3061 7.10361ZM20.8933 6.71165C21.3238 6.71165 21.7066 6.78068 22.0504 6.90928L22.7511 5.03603C22.1645 4.81662 21.5423 4.71165 20.8933 4.71165V6.71165ZM22.059 6.91245C22.3947 7.03451 22.679 7.2148 22.9224 7.45575L24.3294 6.0343C23.8768 5.58633 23.3443 5.25171 22.7425 5.03286L22.059 6.91245ZM22.926 7.45931C23.1599 7.6885 23.3588 7.9921 23.5096 8.39517L25.3828 7.69432C25.143 7.05335 24.795 6.49048 24.3257 6.03074L22.926 7.45931ZM23.5104 8.39727C23.6539 8.77831 23.7392 9.26125 23.7392 9.86648H25.7392C25.7392 9.07966 25.6291 8.34811 25.382 7.69222L23.5104 8.39727ZM23.7392 9.86648V10.4897H25.7392V9.86648H23.7392ZM24.7392 9.4897H17.8304V11.4897H24.7392V9.4897ZM18.8304 10.4897V9.08345H16.8304V10.4897H18.8304ZM17.8304 10.0835H22.6032V8.08345H17.8304V10.0835ZM23.6032 9.08345C23.6032 8.60734 23.4982 8.14481 23.2613 7.72435L21.5188 8.70604C21.5661 8.78985 21.6032 8.90615 21.6032 9.08345H23.6032ZM23.2613 7.72436C23.0296 7.31306 22.701 6.9844 22.2897 6.75269L21.308 8.49518C21.4009 8.54756 21.4665 8.61308 21.5188 8.70604L23.2613 7.72436ZM22.3042 6.76105C21.8811 6.51319 21.4121 6.40554 20.9306 6.40554V8.40554C21.1096 8.40554 21.2194 8.44349 21.2934 8.48682L22.3042 6.76105ZM20.9306 6.40554C20.4252 6.40554 19.9382 6.52477 19.4999 6.78775L20.5289 8.50273C20.6233 8.44611 20.747 8.40554 20.9306 8.40554V6.40554ZM19.5033 6.78571C19.0898 7.03157 18.7591 7.37069 18.524 7.79052L20.269 8.76772C20.3322 8.65488 20.4134 8.57141 20.5255 8.50478L19.5033 6.78571ZM18.5268 7.78551C18.2883 8.20576 18.1728 8.66672 18.1675 9.14704L20.1674 9.16901C20.1692 9.00302 20.2064 8.87804 20.2662 8.77272L18.5268 7.78551ZM18.1674 9.15803V10.495H20.1674V9.15803H18.1674ZM18.1674 10.495C18.1674 11.0219 18.2647 11.5331 18.4989 11.9959L20.2834 11.0929C20.2193 10.9662 20.1674 10.7778 20.1674 10.495H18.1674ZM18.5032 12.0044C18.7403 12.462 19.0869 12.8333 19.536 13.0924L20.5354 11.36C20.4305 11.2995 20.3474 11.2162 20.2791 11.0844L18.5032 12.0044ZM19.536 13.0924C19.9913 13.3551 20.4989 13.4659 21.0211 13.4659V11.4659C20.7834 11.4659 20.6341 11.417 20.5354 11.36L19.536 13.0924ZM21.0211 13.4659C21.3674 13.4659 21.7084 13.417 22.0346 13.3064L21.3926 11.4123C21.2998 11.4438 21.1791 11.4659 21.0211 11.4659V13.4659ZM22.0346 13.3064C22.3714 13.1923 22.6792 13.0134 22.9413 12.7639L21.5619 11.3156C21.5257 11.3502 21.4748 11.3844 21.3926 11.4123L22.0346 13.3064ZM22.9413 12.7639C23.2062 12.5115 23.4001 12.2084 23.5275 11.8724L21.6575 11.1631C21.6287 11.239 21.5952 11.2839 21.5619 11.3156L22.9413 12.7639ZM22.5267 12.5156L24.6254 12.6541L24.7571 10.6584L22.6584 10.5199L22.5267 12.5156ZM23.7128 11.4495C23.6407 11.791 23.498 12.0742 23.2843 12.3178L24.7877 13.6368C25.2346 13.1275 25.5287 12.53 25.6696 11.863L23.7128 11.4495ZM23.2839 12.3183C23.0729 12.5591 22.7857 12.7652 22.3936 12.9237L23.143 14.778C23.7878 14.5174 24.3458 14.1411 24.7882 13.6363L23.2839 12.3183ZM22.3969 12.9224C22.0227 13.0721 21.5581 13.1598 20.9838 13.1598V15.1598C21.759 15.1598 22.4841 15.0416 23.1397 14.7793L22.3969 12.9224ZM33.0275 8.15128L33.0889 9.14939L34.1593 9.08352L34.0189 8.02034L33.0275 8.15128ZM30.9501 8.27912L29.9695 8.47524L30.1406 9.33082L31.0115 9.27723L30.9501 8.27912ZM30.7211 7.79972L29.942 8.42677L29.9497 8.4361L30.7211 7.79972ZM30.2576 7.45348L29.831 8.35791L29.8412 8.36272L29.8515 8.36729L30.2576 7.45348ZM28.6916 7.54403L29.208 8.40046L29.2171 8.39483L28.6916 7.54403ZM28.5637 8.62536L27.9101 9.38218L27.9101 9.38218L28.5637 8.62536ZM29.3681 8.95028L29.1579 9.92803L29.1706 9.93059L29.3681 8.95028ZM30.8489 9.24858L31.0501 8.26901L31.0464 8.26827L30.8489 9.24858ZM32.628 10.0369L31.9481 10.7702L31.9481 10.7702L32.628 10.0369ZM32.7399 12.8761L31.9516 12.2607L31.9483 12.265L32.7399 12.8761ZM31.4508 13.8242L31.8316 14.7489L31.8346 14.7477L31.4508 13.8242ZM26.9817 13.4833L26.4022 14.2983L26.4073 14.3019L26.9817 13.4833ZM25.8578 11.6296L25.8053 10.631L24.7152 10.6882L24.8676 11.7691L25.8578 11.6296ZM28.0897 11.5124L29.0694 11.3123L28.8971 10.4687L28.0372 10.5138L28.0897 11.5124ZM28.5797 12.2688L28.0224 13.0992L28.0303 13.1044L28.5797 12.2688ZM30.5346 12.2955L31.0691 13.1407L31.0723 13.1386L30.5346 12.2955ZM30.9075 11.6935L31.9074 11.708L31.9076 11.6922L31.9073 11.6763L30.9075 11.6935ZM30.6465 11.1875L30.0257 11.9716L30.036 11.9795L30.6465 11.1875ZM29.8581 10.8786L30.0542 9.89797L30.0535 9.89783L29.8581 10.8786ZM28.4412 10.5962L28.2451 11.5768L28.2458 11.577L28.4412 10.5962ZM26.6568 9.76527L25.9433 10.4659L25.9465 10.4692L26.6568 9.76527ZM26.5023 6.8995L25.705 6.29592L25.7014 6.3007L26.5023 6.8995ZM27.7115 6.0206L27.3444 5.09038L27.3423 5.09124L27.7115 6.0206ZM31.9835 6.36683L31.3905 7.17201L31.3927 7.17369L31.9835 6.36683ZM32.9661 7.15317L30.8887 7.28101L31.0115 9.27723L33.0889 9.14939L32.9661 7.15317ZM31.9307 8.083C31.8623 7.74084 31.7127 7.43038 31.4924 7.16333L29.9497 8.4361C29.9637 8.45314 29.9669 8.46228 29.9695 8.47524L31.9307 8.083ZM31.5001 7.17271C31.2715 6.88869 30.9828 6.68146 30.6638 6.53967L29.8515 8.36729C29.916 8.39595 29.9363 8.41954 29.942 8.42673L31.5001 7.17271ZM30.6843 6.54905C30.3324 6.38306 29.9538 6.32031 29.5811 6.32031V8.32031C29.734 8.32031 29.8065 8.34635 29.831 8.35791L30.6843 6.54905ZM29.5811 6.32031C29.0881 6.32031 28.5993 6.42569 28.1661 6.69324L29.2171 8.39483C29.2669 8.36409 29.371 8.32031 29.5811 8.32031V6.32031ZM28.1752 6.68765C27.6873 6.98185 27.3294 7.47599 27.3294 8.12997H29.3294C29.3294 8.18021 29.3144 8.2545 29.2705 8.32554C29.2304 8.39045 29.1927 8.40957 29.2079 8.40041L28.1752 6.68765ZM27.3294 8.12997C27.3294 8.63426 27.5482 9.06961 27.9101 9.38218L29.2174 7.86853C29.231 7.88029 29.2641 7.91382 29.2919 7.97263C29.3204 8.03289 29.3294 8.09015 29.3294 8.12997H27.3294ZM27.9101 9.38218C28.2622 9.68624 28.735 9.83704 29.1579 9.92795L29.5782 7.97262C29.4266 7.94002 29.3228 7.90735 29.2566 7.88059C29.1867 7.85238 29.1865 7.8419 29.2174 7.86853L27.9101 9.38218ZM29.1706 9.93059L30.6514 10.2289L31.0464 8.26827L29.5655 7.96998L29.1706 9.93059ZM30.6477 10.2281C31.3509 10.3725 31.7443 10.5812 31.9481 10.7702L33.308 9.30366C32.7305 8.76822 31.9379 8.45134 31.0501 8.26902L30.6477 10.2281ZM31.9481 10.7702C32.1117 10.9219 32.214 11.1204 32.214 11.4645H34.214C34.214 10.6296 33.9256 9.8764 33.308 9.30366L31.9481 10.7702ZM32.214 11.4645C32.214 11.7883 32.1241 12.0398 31.9516 12.2607L33.5281 13.4914C33.9878 12.9027 34.214 12.2131 34.214 11.4645H32.214ZM31.9483 12.265C31.758 12.5115 31.4788 12.7297 31.0671 12.9008L31.8346 14.7477C32.5166 14.4642 33.0967 14.0503 33.5315 13.4871L31.9483 12.265ZM31.0701 12.8995C30.6699 13.0643 30.1767 13.1598 29.5705 13.1598V15.1598C30.3847 15.1598 31.1451 15.0316 31.8316 14.7489L31.0701 12.8995ZM29.5705 13.1598C28.617 13.1598 27.9776 12.9605 27.5561 12.6647L26.4073 14.3019C27.2713 14.9081 28.3578 15.1598 29.5705 15.1598V13.1598ZM27.5612 12.6684C27.1474 12.3741 26.92 12.0012 26.848 11.4901L24.8676 11.7691C25.0157 12.8206 25.5376 13.6835 26.4022 14.2983L27.5612 12.6684ZM25.9102 12.6282L28.1421 12.5111L28.0372 10.5138L25.8053 10.631L25.9102 12.6282ZM27.1099 11.7126C27.2253 12.2776 27.5266 12.7663 28.0224 13.0991L29.137 11.4385C29.1143 11.4233 29.0889 11.4077 29.0694 11.3123L27.1099 11.7126ZM28.0303 13.1044C28.4957 13.4104 29.0344 13.5245 29.5758 13.5245V11.5245C29.3076 11.5245 29.1823 11.4682 29.1291 11.4333L28.0303 13.1044ZM29.5758 13.5245C30.0915 13.5245 30.6166 13.4268 31.0691 13.1406L30.0002 11.4503C29.9697 11.4695 29.8556 11.5245 29.5758 11.5245V13.5245ZM31.0723 13.1386C31.54 12.8403 31.898 12.3558 31.9074 11.708L29.9076 11.679C29.9079 11.6569 29.9112 11.6272 29.921 11.5933C29.9308 11.559 29.9451 11.5277 29.9615 11.5012C29.9946 11.4478 30.0216 11.4366 29.997 11.4523L31.0723 13.1386ZM31.9073 11.6763C31.8983 11.1509 31.6558 10.7029 31.257 10.3955L30.036 11.9795C30.0207 11.9677 29.983 11.9333 29.9508 11.871C29.918 11.8073 29.9083 11.7481 29.9076 11.7108L31.9073 11.6763ZM31.2672 10.4035C30.9163 10.1257 30.4737 9.98186 30.0542 9.89797L29.662 11.8591C29.7972 11.8862 29.8928 11.9151 29.9567 11.9401C30.0219 11.9657 30.0372 11.9806 30.0258 11.9715L31.2672 10.4035ZM30.0535 9.89783L28.6366 9.61551L28.2458 11.577L29.6627 11.8593L30.0535 9.89783ZM28.6373 9.61565C27.9469 9.47757 27.5663 9.2624 27.3671 9.06137L25.9465 10.4692C26.5285 11.0565 27.3375 11.3953 28.2451 11.5768L28.6373 9.61565ZM27.3703 9.06462C27.187 8.87798 27.0762 8.63682 27.0762 8.25781H25.0762C25.0762 9.1004 25.3524 9.86421 25.9433 10.4659L27.3703 9.06462ZM27.0762 8.25781C27.0762 7.9236 27.1623 7.68675 27.3032 7.4983L25.7014 6.3007C25.2741 6.87219 25.0762 7.54088 25.0762 8.25781H27.0762ZM27.2996 7.50307C27.4594 7.29204 27.7026 7.10012 28.0807 6.94995L27.3423 5.09124C26.6834 5.353 26.1205 5.74703 25.705 6.29593L27.2996 7.50307ZM28.0785 6.95081C28.4587 6.80078 28.94 6.71165 29.5439 6.71165V4.71165C28.7485 4.71165 28.0082 4.82848 27.3444 5.09038L28.0785 6.95081ZM29.5439 6.71165C30.4475 6.71165 31.0262 6.90373 31.3905 7.17201L32.5765 5.56165C31.7547 4.95636 30.707 4.71165 29.5439 4.71165V6.71165ZM31.3927 7.17369C31.7625 7.44443 31.9713 7.79167 32.0361 8.28222L34.0189 8.02034C33.8848 7.0052 33.3976 6.16281 32.5742 5.55997L31.3927 7.17369ZM38.9948 5.81818H39.9948V4.81818H38.9948V5.81818ZM38.9948 7.52273V8.52273H39.9948V7.52273H38.9948ZM34.0676 7.52273H33.0676V8.52273H34.0676V7.52273ZM34.0676 5.81818V4.81818H33.0676V5.81818H34.0676ZM35.1862 3.85795V2.85795H34.1862V3.85795H35.1862ZM37.4553 3.85795H38.4553V2.85795H37.4553V3.85795ZM37.5512 11.9759L36.6733 12.4547L36.6796 12.4661L37.5512 11.9759ZM37.8176 12.2156L37.4412 13.1421L37.451 13.146L37.8176 12.2156ZM38.542 12.2582L38.7064 13.2446L38.7223 13.2419L38.7381 13.2387L38.542 12.2582ZM38.787 12.2102L39.7654 12.0034L39.5633 11.0472L38.6027 11.2274L38.787 12.2102ZM39.1439 13.8988L39.4422 14.8533L40.3104 14.582L40.1223 13.692L39.1439 13.8988ZM38.6645 14.0213L38.4458 13.0455L38.4378 13.0473L38.4299 13.0492L38.6645 14.0213ZM37.9134 14.1119L37.8773 13.1125L37.8745 13.1126L37.9134 14.1119ZM36.4752 13.8935L36.0969 14.8191L36.0997 14.8203L36.4752 13.8935ZM35.5218 13.1158L36.3615 12.5729L36.3615 12.5729L35.5218 13.1158ZM35.1862 11.7841L36.1862 11.7907V11.7841H35.1862ZM37.9948 5.81818V7.52273H39.9948V5.81818H37.9948ZM38.9948 6.52273H34.0676V8.52273H38.9948V6.52273ZM35.0676 7.52273V5.81818H33.0676V7.52273H35.0676ZM34.0676 6.81818H38.9948V4.81818H34.0676V6.81818ZM35.1862 4.85795H37.4553V2.85795H35.1862V4.85795ZM36.4553 3.85795V11.4858H38.4553V3.85795H36.4553ZM36.4553 11.4858C36.4553 11.7764 36.4962 12.13 36.6733 12.4547L38.4291 11.497C38.4431 11.5226 38.4512 11.5431 38.4555 11.5559C38.4599 11.5686 38.461 11.5751 38.4607 11.5734C38.4604 11.5718 38.459 11.564 38.4577 11.5489C38.4564 11.5338 38.4553 11.513 38.4553 11.4858H36.4553ZM36.6796 12.4661C36.847 12.7637 37.1041 13.0051 37.4412 13.142L38.1939 11.2891C38.2416 11.3084 38.2906 11.338 38.3347 11.3777C38.3782 11.4169 38.4063 11.4563 38.4228 11.4856L36.6796 12.4661ZM37.451 13.146C37.7069 13.2467 37.9701 13.2848 38.2224 13.2848V11.2848C38.1692 11.2848 38.1626 11.2767 38.1841 11.2851L37.451 13.146ZM38.2224 13.2848C38.3848 13.2848 38.5463 13.2712 38.7064 13.2446L38.3776 11.2718C38.3246 11.2806 38.2731 11.2848 38.2224 11.2848V13.2848ZM38.7381 13.2387C38.8435 13.2177 38.9205 13.2026 38.9713 13.1931L38.6027 11.2274C38.5399 11.2391 38.4536 11.256 38.3459 11.2776L38.7381 13.2387ZM37.8086 12.417L38.1655 14.1056L40.1223 13.692L39.7654 12.0034L37.8086 12.417ZM38.8456 12.9443C38.7708 12.9677 38.642 13.0015 38.4458 13.0455L38.8832 14.9971C39.0989 14.9487 39.2897 14.9009 39.4422 14.8533L38.8456 12.9443ZM38.4299 13.0492C38.3087 13.0785 38.1291 13.1034 37.8773 13.1125L37.9496 15.1112C38.2873 15.099 38.6084 15.0636 38.8991 14.9934L38.4299 13.0492ZM37.8745 13.1126C37.4374 13.1296 37.1045 13.0695 36.8508 12.9667L36.0997 14.8203C36.6698 15.0513 37.2957 15.1367 37.9524 15.1111L37.8745 13.1126ZM36.8536 12.9678C36.6237 12.8739 36.4716 12.7431 36.3615 12.5729L34.682 13.6587C35.0265 14.1916 35.51 14.5793 36.0969 14.8191L36.8536 12.9678ZM36.3615 12.5729C36.2661 12.4253 36.1835 12.1864 36.1861 11.7907L34.1862 11.7775C34.1817 12.4543 34.3228 13.1031 34.682 13.6587L36.3615 12.5729ZM36.1862 11.7841V3.85795H34.1862V11.7841H36.1862Z" fill="#734C00" mask="url(#path-3-outside-2_34_142)"/>
</svg>
