<svg width="54" height="54" viewBox="0 0 54 54" fill="none" xmlns="http://www.w3.org/2000/svg">
<path d="M22.7055 19.7933C22.8129 19.9791 22.75 20.2148 22.5674 20.3221C22.3815 20.4289 22.1454 20.3661 22.0385 20.1804L21.0062 18.3927C20.2951 18.8395 19.6342 19.3652 19.0424 19.9601C18.4509 20.5517 17.9253 21.2093 17.4783 21.9237L19.2661 22.9561C19.4487 23.0632 19.5116 23.2991 19.4043 23.4817C19.2973 23.6673 19.0612 23.7302 18.8787 23.6234L17.0913 22.591C16.3201 24.0388 15.8609 25.6751 15.8012 27.4123H17.8624C18.0763 27.4123 18.2494 27.5856 18.2494 27.7993C18.2494 28.0134 18.0763 28.1866 17.8624 28.1866H15.8012C15.8609 29.9238 16.3202 31.5602 17.0913 33.008L18.8787 31.9757C19.0614 31.8685 19.2974 31.9316 19.4043 32.1141C19.5116 32.2998 19.4487 32.5359 19.2661 32.6428L17.4783 33.6751C17.9191 34.3801 18.4382 35.0346 19.0234 35.6201L19.0424 35.6389C19.6342 36.2306 20.2951 36.7561 21.0062 37.203L22.0385 35.4155C22.1454 35.233 22.3815 35.17 22.5674 35.2771C22.75 35.3839 22.8129 35.6201 22.7055 35.8025L21.6736 37.59C23.1209 38.3611 24.7577 38.8206 26.4946 38.8803V36.819C26.4946 36.605 26.6709 36.4318 26.882 36.4318C27.0959 36.4318 27.2689 36.605 27.2689 36.819V38.8803C29.0061 38.8206 30.6425 38.3611 32.0903 37.59L31.058 35.8025C30.9511 35.6199 31.014 35.3839 31.1994 35.2771C31.3821 35.17 31.6215 35.233 31.725 35.4155L32.7573 37.203C33.4718 36.7562 34.1294 36.2306 34.7245 35.6389C35.3159 35.0473 35.8414 34.3864 36.2885 33.6751L34.5007 32.6428C34.3181 32.5359 34.2524 32.2998 34.3593 32.1141C34.4661 31.9316 34.7024 31.8685 34.8878 31.9757L36.6756 33.0046C37.4435 31.5602 37.9029 29.9238 37.9628 28.1866H35.9011C35.6872 28.1866 35.5141 28.0134 35.5141 27.7993C35.5141 27.5856 35.6872 27.4123 35.9011 27.4123H37.9628C37.9028 25.6752 37.4434 24.0356 36.6756 22.591L34.8878 23.6234C34.7024 23.7302 34.4661 23.6673 34.3593 23.4817C34.2524 23.299 34.3181 23.0632 34.5007 22.9561L36.2885 21.9237C35.8477 21.2188 35.3286 20.5643 34.743 19.9758L34.7246 19.9601C34.1296 19.3652 33.4719 18.8395 32.7574 18.3927L31.7251 20.1804C31.6215 20.3661 31.3821 20.4289 31.1995 20.3221C31.0141 20.2148 30.9512 19.9791 31.0581 19.7933L32.0904 18.0088C30.646 17.2379 29.0092 16.7783 27.2691 16.7185V18.7799C27.2691 18.9937 27.096 19.1669 26.8821 19.1669C26.6712 19.1669 26.4947 18.9937 26.4947 18.7799V16.7185C24.7578 16.7783 23.121 17.2379 21.6737 18.0088L22.7055 19.7933ZM22.2712 24.6428C22.1047 24.5106 22.0762 24.2683 22.2083 24.1016C22.3407 23.9348 22.5797 23.9065 22.7467 24.0388L26.9133 27.3335L30.5736 25.1748C30.759 25.0646 30.9952 25.1244 31.1021 25.3101C31.2123 25.4925 31.1494 25.7285 30.9668 25.8388L27.0804 28.1298C26.945 28.2085 26.7719 28.2021 26.6461 28.1014L22.2712 24.6428ZM26.882 15.9381C30.1577 15.9381 33.1255 17.266 35.2686 19.4125L35.2908 19.4345C37.4244 21.5807 38.743 24.5358 38.743 27.7992C38.743 31.0754 37.415 34.0399 35.2686 36.1863C33.1255 38.3324 30.1577 39.6605 26.882 39.6605C23.6091 39.6605 20.6414 38.3324 18.495 36.1863L18.4728 36.1609C16.3392 34.0179 15.0207 31.0628 15.0207 27.7991C15.0207 24.5263 16.3487 21.5585 18.4951 19.4125C20.6414 17.2662 23.6091 15.9381 26.882 15.9381ZM5.74933 14.4464C6.01992 13.9931 5.34668 13.6157 5.09507 14.0372L4.68585 14.7044C4.42757 15.1357 5.098 15.5196 5.35289 15.0978L5.74933 14.4464ZM7.53046 11.9791C7.86117 11.5385 7.21253 11.1136 6.93246 11.4912C6.76593 11.6927 6.60515 11.8973 6.44472 12.105C6.13007 12.5204 6.75937 12.9736 7.05832 12.5769L7.53046 11.9791ZM9.59835 9.74483C9.97265 9.37018 9.40921 8.83839 9.06328 9.18772L8.50312 9.73839C8.15062 10.0909 8.68863 10.6447 9.05671 10.2796L9.59835 9.74483ZM11.9208 7.77456C12.3267 7.47245 11.8608 6.85241 11.4548 7.1578L10.835 7.63604C10.4353 7.93511 10.9198 8.53921 11.3134 8.24354L11.9208 7.77456ZM14.4636 6.10358C14.9169 5.82972 14.4982 5.17827 14.0795 5.43315C13.8528 5.5528 13.6201 5.69776 13.403 5.833C12.9748 6.09104 13.3651 6.75819 13.8089 6.49054C14.02 6.36175 14.2433 6.22007 14.4636 6.10358ZM17.1921 4.75042C17.642 4.57101 17.3776 3.84386 16.9025 4.03593C16.657 4.13331 16.4115 4.24675 16.1726 4.35386C15.7288 4.53315 15.9961 5.2569 16.4933 5.05874C16.7232 4.95163 16.9593 4.8478 17.1921 4.75042ZM20.0652 3.74331C20.5529 3.54819 20.3518 2.89991 19.8513 3.00058L19.0991 3.22722C18.5612 3.44097 18.9259 4.12733 19.3351 3.96351L20.0652 3.74331ZM23.0395 3.09808C23.5774 2.98804 23.3793 2.24214 22.9199 2.33331C22.6616 2.37116 22.3972 2.41511 22.1426 2.4655C21.6359 2.56628 21.7963 3.32155 22.2873 3.22417C22.5356 3.17683 22.7906 3.13276 23.0395 3.09808ZM26.0698 2.81788C26.5485 2.81788 26.583 2.04374 26.0447 2.04374C25.7868 2.04702 25.5162 2.06261 25.2579 2.08159C24.8046 2.08159 24.7451 2.85269 25.3085 2.85269C25.5535 2.83077 25.8213 2.82128 26.0698 2.81788ZM29.113 2.89991C29.7077 2.89991 29.604 2.13198 29.1792 2.13198L28.3986 2.0755C27.8323 2.0755 27.8981 2.84636 28.3514 2.84636L29.113 2.89991ZM48.3355 40.6329C48.0994 41.0263 48.6596 41.4828 48.9993 41.0327L49.3928 40.3498C49.4306 40.29 49.4524 40.183 49.4368 40.0982C49.3644 39.7362 48.9112 39.6545 48.7192 39.9724L48.3355 40.6329ZM46.6138 43.1444C46.3021 43.563 46.9286 44.013 47.2274 43.6166L47.6962 42.9901C47.9953 42.5937 47.3755 42.1341 47.0733 42.5338L46.6138 43.1444ZM44.6027 45.4292C44.244 45.7848 44.7887 46.3324 45.1506 45.9704C45.3333 45.7911 45.5282 45.596 45.698 45.4071C45.8427 45.2591 45.8272 45.0104 45.6858 44.869C45.5282 44.7084 45.2859 44.7242 45.1317 44.8815L44.6027 45.4292ZM42.3275 47.4526C41.9311 47.7517 42.3967 48.3684 42.8092 48.0601C43.0103 47.8997 43.2213 47.7327 43.4167 47.5629C43.7943 47.1885 43.322 46.6723 42.9195 46.9712L42.3275 47.4526ZM39.8287 49.1867C39.3944 49.4448 39.7881 50.1119 40.2285 49.8477C40.4518 49.7155 40.6754 49.5708 40.8927 49.4291C41.3143 49.1774 40.9206 48.5102 40.4707 48.7809C40.263 48.9192 40.0431 49.0609 39.8287 49.1867ZM37.1317 50.603C36.6879 50.7823 36.9557 51.5061 37.4528 51.308L38.1609 50.9743C38.5982 50.8011 38.3276 50.0774 37.8243 50.2786L37.1317 50.603ZM34.2836 51.6824C33.7455 51.8964 34.1103 52.5824 34.5166 52.4187L35.2623 52.1764C35.7784 51.9689 35.4416 51.2701 35.0106 51.4432L34.2836 51.6824ZM31.3287 52.3998C30.8157 52.5036 30.9824 53.2589 31.4673 53.1614C31.7251 53.1142 31.9801 53.0671 32.238 53.0103C32.7168 52.9159 32.5904 52.1511 32.0747 52.2551L31.3287 52.3998ZM28.3042 52.7555C28.2383 52.7555 28.15 52.79 28.1092 52.8214C27.7975 53.0576 27.9422 53.5264 28.3486 53.5264C28.6098 53.5139 28.8737 53.4949 29.1321 53.47C29.5787 53.47 29.6354 52.702 29.0659 52.702C28.8141 52.7208 28.5592 52.743 28.3042 52.7555ZM25.2612 52.743C24.6882 52.743 24.7639 53.5139 25.2105 53.5139L25.9973 53.5549C26.5357 53.5549 26.5011 52.7808 26.0195 52.7808L25.2612 52.743ZM22.24 52.3652C21.7522 52.2677 21.5885 53.023 22.0985 53.1237L22.8725 53.2589C23.3475 53.3536 23.5112 52.5824 22.9951 52.4944L22.24 52.3652ZM19.2879 51.6194C18.9103 51.4683 18.5924 52.0378 18.9198 52.2834C18.9419 52.3118 19.0206 52.3433 19.0551 52.3589L19.8074 52.5855C20.3046 52.6833 20.5123 52.0379 20.0183 51.8398L19.2879 51.6194ZM16.4493 50.5212C15.9332 50.3135 15.7003 51.0528 16.1285 51.2229L16.8458 51.5407C17.3368 51.7358 17.6041 51.0119 17.148 50.8296L16.4493 50.5212ZM13.7682 49.0828C13.3212 48.8154 12.9342 49.4857 13.3619 49.7405L14.0357 50.1433C14.3408 50.326 14.725 50.0081 14.5896 49.665C14.558 49.5865 14.5045 49.5203 14.4226 49.4732L13.7682 49.0828ZM11.2788 47.3267C10.8507 47.0058 10.4132 47.6447 10.7973 47.9342C11.0017 48.0978 11.2094 48.2552 11.4171 48.4126C11.814 48.7116 12.2923 48.123 11.8832 47.7958L11.2788 47.3267ZM9.02214 45.2844C8.65734 44.9224 8.1157 45.4731 8.47148 45.8287L9.02871 46.3828C9.37781 46.7321 9.91582 46.1751 9.56332 45.8226L9.02214 45.2844ZM7.02703 42.9871C6.72808 42.5873 6.10171 43.0405 6.41343 43.4559L7.02703 42.9871ZM5.32769 40.46C5.05992 40.0193 4.40238 40.4222 4.66066 40.8533C4.79261 41.0799 4.93125 41.3032 5.06941 41.5235C5.32441 41.9516 5.97914 41.5393 5.72414 41.1114C5.5889 40.8975 5.45355 40.6802 5.32769 40.46ZM3.94628 37.7474C3.76652 37.3003 3.04605 37.5803 3.23812 38.0589L3.56226 38.7732C3.73546 39.2106 4.46214 38.9462 4.26105 38.4428C4.15066 38.2131 4.0466 37.9801 3.94628 37.7474ZM2.90449 34.8895C2.68406 34.3326 2.00753 34.7166 2.16468 35.1068C2.24039 35.3586 2.31609 35.6103 2.40082 35.8589C2.60847 36.3846 3.30105 36.0351 3.13406 35.6134L2.90449 34.8895ZM2.22468 31.9188C2.12062 31.3965 1.36839 31.5758 1.46296 32.051L1.60453 32.8221C1.70238 33.3225 2.46082 33.1683 2.36003 32.671L2.22468 31.9188ZM1.91003 28.8944C1.91003 28.4224 1.13894 28.3847 1.13894 28.9199L1.18289 29.7128C1.18289 30.1659 1.95398 30.2164 1.95398 29.653C1.93511 29.4012 1.91953 29.1431 1.91003 28.8944ZM1.96347 25.8483C1.96347 25.2692 1.19238 25.351 1.19238 25.7916C1.1673 26.0307 1.14222 26.333 1.14222 26.572C1.14222 27.1323 1.91296 27.0724 1.91296 26.613L1.96347 25.8483ZM38.8091 5.82655C39.0703 5.98382 39.4356 5.73831 39.3755 5.42366C39.3471 5.29476 39.2906 5.21601 39.1744 5.14675L38.4818 4.78171C37.9311 4.56444 37.7361 5.31351 38.1326 5.47405L38.8091 5.82655ZM41.3899 7.44104C41.4212 7.46612 41.4812 7.49448 41.5253 7.50397C41.9501 7.58894 42.1733 7.06347 41.8365 6.81163L41.1916 6.36479C40.7129 6.07851 40.3671 6.77085 40.7602 7.00686L41.3899 7.44104ZM43.7564 9.35753C44.096 9.69737 44.6439 9.15292 44.2976 8.80686C44.1121 8.62124 43.8884 8.43854 43.69 8.26558C43.5518 8.12706 43.3281 8.15847 43.1866 8.26241C43.0039 8.44804 43.0039 8.66847 43.1834 8.85081L43.7564 9.35753ZM45.871 11.545C46.2837 11.957 46.768 11.3497 46.4563 11.0412L45.9373 10.4528C45.5502 10.0625 45.0369 10.6416 45.3677 10.9753L45.871 11.545ZM47.7091 13.9711C47.7531 14.0467 47.8571 14.1159 47.9358 14.1317C48.3009 14.2072 48.5338 13.8484 48.3511 13.5432C48.2096 13.3261 48.0584 13.1058 47.9074 12.895C47.5895 12.4701 46.9854 12.9547 47.2781 13.3451C47.4258 13.5494 47.5705 13.7603 47.7091 13.9711ZM49.2387 16.6053C49.4023 17.0143 50.1418 16.7846 49.9373 16.2749C49.8239 16.0389 49.6918 15.7933 49.566 15.5605C49.2826 15.0885 48.6439 15.5258 48.8862 15.9287C49.0087 16.1522 49.1251 16.3787 49.2387 16.6053ZM50.4346 19.403C50.6358 19.9066 51.3377 19.5857 51.1612 19.1417C51.0732 18.8962 50.9821 18.6509 50.8878 18.4085C50.6957 17.9303 49.9814 18.2228 50.1669 18.6886C50.2582 18.9278 50.3494 19.1639 50.4346 19.403ZM51.2776 22.3298C51.3723 22.805 52.1368 22.6789 52.0331 22.1565C51.9764 21.9015 51.9135 21.6467 51.8505 21.3949C51.7593 20.9386 50.9913 21.0458 51.1015 21.587C51.1645 21.8325 51.2242 22.0812 51.2776 22.3298ZM51.7593 25.3322C51.8789 25.9268 52.6089 25.6657 52.5271 25.2566C52.502 24.9985 52.4736 24.7372 52.4391 24.4761C52.326 23.9128 51.5862 24.1425 51.6745 24.5768C51.7057 24.8285 51.7341 25.0803 51.7593 25.3322ZM51.8728 28.3753C51.8728 28.907 52.6467 28.8819 52.6467 28.3941L52.65 27.6074C52.65 27.1101 51.8788 27.1164 51.8788 27.6136C51.8789 27.8686 51.8789 28.1236 51.8728 28.3753ZM51.6207 31.4089C51.6084 31.4719 51.6207 31.5538 51.6396 31.6011C51.7843 31.9631 52.3038 31.9283 52.3856 31.5193C52.4202 31.2643 52.4453 30.9968 52.4863 30.742C52.5743 30.2982 51.8099 30.0999 51.7185 30.6473L51.6207 31.4089ZM51.1896 32.372C51.9513 32.372 52.6406 32.6804 53.1407 33.1807C53.6444 33.6812 53.953 34.3737 53.953 35.1351C53.953 35.8969 53.6445 36.5892 53.1441 37.0863C52.6406 37.5898 51.9513 37.8982 51.1896 37.8982C50.9947 37.8982 50.8027 37.8793 50.6167 37.8384L50.4469 38.2445C50.2709 38.685 49.5375 38.4363 49.7391 37.9296L49.89 37.5741C49.6478 37.4449 49.4273 37.2816 49.2353 37.0894L49.2102 37.0643C48.7256 36.5669 48.4267 35.8842 48.4267 35.135C48.4267 34.3735 48.7351 33.6812 49.2352 33.1806C49.7358 32.6804 50.4252 32.372 51.1896 32.372ZM2.80992 17.1276C3.01148 17.1276 3.20636 17.1497 3.39515 17.1906L3.58101 16.7846C3.75082 16.3629 4.49027 16.5865 4.27968 17.1121L4.12546 17.4581C4.36148 17.587 4.57535 17.7477 4.76414 17.9365L4.78921 17.9617C5.27414 18.4589 5.57308 19.1417 5.57308 19.8908C5.57308 20.6524 5.26464 21.3416 4.76414 21.842C4.26363 22.3454 3.5714 22.654 2.8098 22.654C2.65886 22.654 2.51085 22.6414 2.36601 22.6194C2.39109 22.6822 2.39765 22.7514 2.37878 22.8366C2.34421 23.0788 2.2875 23.3494 2.24015 23.5918C2.15496 24.0891 1.38093 23.9442 1.47843 23.4532C1.51957 23.195 1.5825 22.9371 1.62316 22.6822C1.64214 22.5751 1.69558 22.4965 1.76179 22.4494C1.42207 22.3078 1.11363 22.1001 0.858628 21.8451C0.35812 21.3448 0.0467529 20.6524 0.0467529 19.8908C0.0467529 19.126 0.35812 18.437 0.855229 17.9365C1.35609 17.4362 2.04832 17.1276 2.80992 17.1276ZM33.1949 0.445068C33.9594 0.445068 34.6521 0.753623 35.1493 1.25378L35.1744 1.27909C35.6589 1.77632 35.9612 2.45601 35.9612 3.20812C35.9612 3.36233 35.9455 3.51327 35.9234 3.6614C36.062 3.71179 36.2002 3.76522 36.3388 3.82171C36.8077 4.00745 36.5214 4.72815 36.0492 4.53948L35.6872 4.40073C35.552 4.68409 35.3693 4.94226 35.1493 5.1594C34.6521 5.65979 33.9595 5.97128 33.1949 5.97128C32.4364 5.97128 31.7439 5.66284 31.2435 5.16257C30.7433 4.65901 30.4316 3.96667 30.4316 3.20812C30.4316 2.44347 30.7433 1.75417 31.2435 1.25378L31.269 1.2287C31.7662 0.744131 32.4456 0.445068 33.1949 0.445068ZM5.27718 27.7992V29.0456L11.0271 29.9079C11.2093 29.9362 11.3446 30.0871 11.3541 30.2633C11.4391 30.8014 11.5555 31.3365 11.6974 31.8683L11.7002 31.881C11.845 32.4253 12.0182 32.9539 12.213 33.4639C12.276 33.6244 12.2225 33.8006 12.0937 33.9013L7.54593 37.5235L8.79246 39.6826L14.2085 37.5519C14.3689 37.489 14.5482 37.5425 14.649 37.6683C15.0048 38.1056 15.379 38.5209 15.7693 38.9144C16.1658 39.3078 16.5812 39.6826 17.0126 40.0316C17.1478 40.1419 17.1886 40.3212 17.1289 40.4723L15.0014 45.8884L17.1573 47.1348L20.7793 42.5871C20.8928 42.4487 21.0783 42.4078 21.2359 42.4738C21.7459 42.6689 22.271 42.8421 22.8128 42.9868C23.3569 43.1316 23.9014 43.248 24.4492 43.333C24.6219 43.3582 24.7482 43.4934 24.7733 43.6539L25.6386 49.4035H28.1279L28.9934 43.6539C29.0184 43.4714 29.1697 43.3392 29.349 43.3268C29.8841 43.2416 30.422 43.1285 30.951 42.9868C31.4984 42.8389 32.0302 42.6658 32.5462 42.4676C32.707 42.4077 32.883 42.4582 32.9838 42.5871L36.6094 47.1349L38.7652 45.8885L36.6377 40.4724C36.5748 40.3119 36.625 40.1357 36.754 40.0317C37.185 39.6826 37.6037 39.308 38.0003 38.9114C38.3999 38.5117 38.7714 38.0962 39.1177 37.6714C39.2245 37.5362 39.4038 37.4921 39.558 37.5519L44.9741 39.6791L46.2207 37.5234L41.67 33.9012C41.5314 33.791 41.4903 33.6022 41.5564 33.4448C41.7519 32.9382 41.9246 32.4095 42.0694 31.865C42.2141 31.3237 42.3309 30.7792 42.4157 30.2317C42.444 30.0617 42.5761 29.936 42.7398 29.9106L48.4897 29.0453V26.5528L42.7398 25.6871C42.5576 25.6621 42.4219 25.5109 42.4127 25.3317C42.3275 24.7966 42.2113 24.2614 42.0694 23.7328C41.9246 23.1821 41.7485 22.6503 41.5537 22.1373C41.4903 21.977 41.5441 21.7975 41.673 21.6968L46.2209 18.0745L44.9742 15.9156L39.5582 18.0462C39.3916 18.1091 39.2091 18.0524 39.1083 17.914C38.762 17.4861 38.3906 17.0768 38.0004 16.6866C37.5976 16.2869 37.1824 15.9092 36.7541 15.5661C36.6221 15.4562 36.5781 15.2766 36.6378 15.1223L38.7653 9.70956L36.6094 8.46386L32.9873 13.0112C32.8737 13.15 32.6883 13.1908 32.5308 13.1246C32.0208 12.9295 31.4924 12.7564 30.9512 12.6118C30.4099 12.467 29.8622 12.3505 29.3147 12.2655C29.1444 12.2403 29.0187 12.1051 28.9936 11.9414L28.1282 6.19171H25.6389L24.7734 11.9414C24.7451 12.124 24.5941 12.2593 24.4177 12.2717C23.8798 12.3535 23.3447 12.47 22.8158 12.6117C22.2684 12.7563 21.7334 12.9326 21.2205 13.1278C21.0596 13.1907 20.8836 13.1369 20.783 13.0082L17.1577 8.46386L15.0018 9.71003L17.1293 15.1228C17.1955 15.2897 17.1388 15.4753 17.0002 15.5761C16.5724 15.9224 16.1599 16.2935 15.7697 16.6837C15.37 17.0836 14.9957 17.499 14.6494 17.9267C14.5424 18.0621 14.3631 18.1064 14.2089 18.0464L8.79281 15.9158L7.54628 18.0716L12.0941 21.6939C12.2355 21.8072 12.2763 21.9928 12.2072 22.1501C12.0123 22.6602 11.8424 23.1887 11.6977 23.7269C11.5529 24.2714 11.4361 24.8188 11.3514 25.3665C11.323 25.5366 11.1909 25.6623 11.0273 25.6874L5.27742 26.553V27.7992H5.27718Z" fill="#4987EF"/>
</svg>
