<svg width="60" height="47" viewBox="0 0 60 47" fill="none" xmlns="http://www.w3.org/2000/svg">
<path d="M0 41.6667C0 44.4271 2.23958 46.6667 5 46.6667H55C57.7604 46.6667 60 44.4271 60 41.6667V23.3333H0V41.6667ZM20 34.5833C20 33.8958 20.5625 33.3333 21.25 33.3333H35.4167C36.1042 33.3333 36.6667 33.8958 36.6667 34.5833V38.75C36.6667 39.4375 36.1042 40 35.4167 40H21.25C20.5625 40 20 39.4375 20 38.75V34.5833ZM6.66667 34.5833C6.66667 33.8958 7.22917 33.3333 7.91667 33.3333H15.4167C16.1042 33.3333 16.6667 33.8958 16.6667 34.5833V38.75C16.6667 39.4375 16.1042 40 15.4167 40H7.91667C7.22917 40 6.66667 39.4375 6.66667 38.75V34.5833ZM60 5V10H0V5C0 2.23958 2.23958 0 5 0H55C57.7604 0 60 2.23958 60 5Z" fill="#4987EF"/>
</svg>
