<svg width="80" height="46" viewBox="0 0 80 46" fill="none" xmlns="http://www.w3.org/2000/svg">
<path d="M39.9999 18C27.8496 18 18 27.8499 18 40H62C61.9998 27.8499 52.1502 18 39.9999 18Z" fill="#92C0FF"/>
<path d="M39.8604 31.6403C35.4919 31.6403 31.9504 35.1817 31.9504 39.5502H47.7706C47.7703 35.1817 44.2289 31.6403 39.8604 31.6403Z" fill="#D7DEED"/>
<path d="M67.2999 40H79C79 17.9433 61.5044 0 40 0V12.0001C55.0535 12.0001 67.2999 24.5607 67.2999 40Z" fill="#FFB473"/>
<path d="M12.0001 40H0C0 17.9433 17.9442 0 40 0V12.0001C24.5605 12.0001 12.0001 24.5607 12.0001 40Z" fill="#FFE182"/>
<path d="M0 40H11.8753C11.8753 32.3543 14.9827 25.4213 20 20.3999L11.6071 12C4.43949 19.1736 0 29.0775 0 40Z" fill="#C3E678"/>
<path d="M59.4275 19.9832C64.4405 24.9962 67.5453 31.9173 67.5453 39.5504H79.4105C79.4105 28.6462 74.975 18.7589 67.8135 11.5974L59.4275 19.9832Z" fill="#C3E678"/>
<path d="M35.9056 45.4827C35.3995 45.4827 34.8935 45.2896 34.5075 44.9034C33.7351 44.131 33.7351 42.8795 34.5075 42.1071L68.1251 8.48946C68.8975 7.71706 70.1491 7.71706 70.9215 8.48946C71.6939 9.26186 71.6939 10.5134 70.9215 11.2858L37.3039 44.9034C36.9175 45.2896 36.4116 45.4827 35.9056 45.4827Z" fill="#5A9DF5"/>
<path d="M40 44C42.2091 44 44 42.2091 44 40C44 37.7909 42.2091 36 40 36C37.7909 36 36 37.7909 36 40C36 42.2091 37.7909 44 40 44Z" fill="#5B5D6E"/>
</svg>
