<svg width="61" height="46" viewBox="0 0 61 46" fill="none" xmlns="http://www.w3.org/2000/svg">
<path d="M16.0095 28.0045C20.0975 28.0045 23.615 24.4805 23.615 19.8921C23.615 15.3587 20.0785 12 16.0095 12C11.9406 12 8.404 15.4321 8.404 19.9288C8.404 24.4805 11.9406 28.0045 16.0095 28.0045ZM4.06892 45H27.9501C30.9352 45 32 44.1741 32 42.5589C32 37.8237 25.8586 31.2898 16.0095 31.2898C6.14142 31.2898 0 37.8237 0 42.5589C0 44.1741 1.06469 45 4.06892 45Z" fill="#E9BF8D"/>
<path d="M39.1439 21.8973C44.5429 21.8973 49.1885 17.0759 49.1885 10.798C49.1885 4.59536 44.5179 0 39.1439 0C33.77 0 29.0992 4.69586 29.0992 10.8482C29.0992 17.0759 33.77 21.8973 39.1439 21.8973ZM23.3739 45.1506H54.914C58.8565 45.1506 60.2627 44.0206 60.2627 41.8108C60.2627 35.332 52.1517 26.3923 39.1439 26.3923C26.111 26.3923 18 35.332 18 41.8108C18 44.0206 19.4061 45.1506 23.3739 45.1506Z" fill="#5A9DF5"/>
</svg>
