<svg width="57" height="45" viewBox="0 0 57 45" fill="none" xmlns="http://www.w3.org/2000/svg">
<path d="M56.25 43.125C56.25 43.6223 56.0524 44.0992 55.7008 44.4508C55.3492 44.8024 54.8723 45 54.375 45H1.875C1.37772 45 0.900805 44.8025 0.549175 44.4508C0.197544 44.0992 0 43.6223 0 43.125C0 42.6277 0.197544 42.1508 0.549175 41.7992C0.900805 41.4475 1.37772 41.25 1.875 41.25H54.375C54.8723 41.25 55.3492 41.4476 55.7008 41.7992C56.0524 42.1508 56.25 42.6277 56.25 43.125ZM1.94595 17.3856C1.83471 16.9928 1.85474 16.5744 2.00301 16.194C2.15128 15.8136 2.41967 15.492 2.76741 15.2781L27.1424 0.278091C27.4379 0.0962677 27.778 0 28.125 0C28.472 0 28.8121 0.0962677 29.1076 0.278091L53.4826 15.2781C53.8303 15.4921 54.0986 15.8136 54.2469 16.194C54.3952 16.5744 54.4152 16.9928 54.3041 17.3856C54.1929 17.7784 53.9566 18.1242 53.6309 18.3705C53.3053 18.6167 52.9082 18.75 52.5 18.75H46.875V33.75H50.625C51.1223 33.75 51.5992 33.9475 51.9508 34.2992C52.3025 34.6508 52.5 35.1277 52.5 35.625C52.5 36.1223 52.3025 36.5992 51.9508 36.9508C51.5992 37.3025 51.1223 37.5 50.625 37.5H5.625C5.12772 37.5 4.6508 37.3025 4.29917 36.9508C3.94754 36.5992 3.75 36.1223 3.75 35.625C3.75 35.1277 3.94754 34.6508 4.29917 34.2992C4.6508 33.9475 5.12772 33.75 5.625 33.75H9.375V18.75H3.75C3.34175 18.75 2.94466 18.6168 2.61904 18.3705C2.29343 18.1243 2.0571 17.7785 1.94595 17.3856ZM31.875 31.875C31.875 32.3723 32.0725 32.8492 32.4242 33.2008C32.7758 33.5525 33.2527 33.75 33.75 33.75C34.2473 33.75 34.7242 33.5525 35.0758 33.2008C35.4275 32.8492 35.625 32.3723 35.625 31.875V20.625C35.625 20.1277 35.4275 19.6508 35.0758 19.2992C34.7242 18.9475 34.2473 18.75 33.75 18.75C33.2527 18.75 32.7758 18.9475 32.4242 19.2992C32.0725 19.6508 31.875 20.1277 31.875 20.625V31.875ZM20.625 31.875C20.625 32.3723 20.8225 32.8492 21.1742 33.2008C21.5258 33.5525 22.0027 33.75 22.5 33.75C22.9973 33.75 23.4742 33.5525 23.8258 33.2008C24.1775 32.8492 24.375 32.3723 24.375 31.875V20.625C24.375 20.1277 24.1775 19.6508 23.8258 19.2992C23.4742 18.9475 22.9973 18.75 22.5 18.75C22.0027 18.75 21.5258 18.9475 21.1742 19.2992C20.8225 19.6508 20.625 20.1277 20.625 20.625V31.875Z" fill="#4987EF"/>
</svg>
