<svg width="52" height="44" viewBox="0 0 52 44" fill="none" xmlns="http://www.w3.org/2000/svg">
<path fill-rule="evenodd" clip-rule="evenodd" d="M47.7523 12.5088C47.6105 12.4999 47.4563 12.5 47.2965 12.5L47.2565 12.5H40.9853C35.816 12.5 31.393 16.5689 31.393 21.875C31.393 27.181 35.816 31.25 40.9853 31.25H47.2565H47.2965C47.4563 31.25 47.6105 31.2503 47.7523 31.2413C49.852 31.1085 51.7088 29.4655 51.865 27.1705C51.8753 27.02 51.875 26.8578 51.875 26.7075V26.6668V17.0834V17.0426C51.875 16.8922 51.8753 16.73 51.865 16.5795C51.7088 14.2845 49.852 12.6414 47.7523 12.5088ZM40.4293 24.375C41.76 24.375 42.8388 23.2558 42.8388 21.875C42.8388 20.4943 41.76 19.375 40.4293 19.375C39.0985 19.375 38.0195 20.4943 38.0195 21.875C38.0195 23.2558 39.0985 24.375 40.4293 24.375Z" fill="#4987EF"/>
<path fill-rule="evenodd" clip-rule="evenodd" d="M47.2948 35C47.6675 34.9903 47.9498 35.3355 47.8485 35.6945C47.3468 37.4755 46.55 38.9938 45.272 40.272C43.401 42.1428 41.0285 42.973 38.0975 43.3673C35.2495 43.75 31.6105 43.75 27.016 43.75H21.734C17.1396 43.75 13.5005 43.75 10.6525 43.3673C7.7214 42.973 5.34903 42.1428 3.4781 40.272C1.6072 38.401 0.776901 36.0285 0.382851 33.0975C-7.37235e-05 30.2495 -4.88671e-05 26.6105 1.13289e-06 22.016V21.734C-4.88671e-05 17.1396 -7.37235e-05 13.5005 0.382851 10.6525C0.776901 7.7214 1.6072 5.34903 3.4781 3.4781C5.34903 1.6072 7.7214 0.776901 10.6525 0.382851C13.5005 -7.37235e-05 17.1395 -4.88671e-05 21.734 1.13289e-06H27.016C31.6105 -4.88671e-05 35.2495 -7.37235e-05 38.0975 0.382851C41.0285 0.776901 43.401 1.6072 45.272 3.4781C46.55 4.7563 47.3465 6.27435 47.8485 8.05545C47.9498 8.41438 47.6675 8.75968 47.2948 8.75L40.985 8.75003C33.8935 8.75003 27.6428 14.3523 27.6428 21.875C27.6428 29.3977 33.8935 35 40.985 35H47.2948ZM9.375 10C8.33948 10 7.5 10.8395 7.5 11.875C7.5 12.9105 8.33948 13.75 9.375 13.75H19.375C20.4105 13.75 21.25 12.9105 21.25 11.875C21.25 10.8395 20.4105 10 19.375 10H9.375Z" fill="#4987EF"/>
</svg>
