<svg width="42" height="56" viewBox="0 0 42 56" fill="none" xmlns="http://www.w3.org/2000/svg">
<path d="M41.625 43.9688C41.625 55.3125 32.4375 55.3125 21 55.3125C9.5625 55.3125 0.375 55.3125 0.375 43.9688C0.375 32.625 9.65625 14.0625 21 14.0625C32.3438 14.0625 41.625 32.5313 41.625 43.9688Z" fill="#86A8FF"/>
<path opacity="0.5" d="M41.625 43.9688C41.625 40.125 40.5938 35.4375 38.7188 30.9375C39.0938 33.8437 38.3438 39 29.4375 40.9688C16.7813 43.6875 23.3438 47.25 18.375 47.7188C14.1563 48.0938 2.90625 46.4063 0.656251 40.0313C0.468751 41.4375 0.28125 42.75 0.28125 44.0625C0.375 55.3125 9.65625 55.3125 21 55.3125C32.3438 55.3125 41.625 55.3125 41.625 43.9688Z" fill="#0050FF"/>
<path d="M26.5312 38.5312C26.1562 36.6562 24.5624 36.0938 22.8749 36V33.375C23.3437 33.5625 23.9062 33.8438 24.2812 34.125C25.0312 34.5938 25.7812 33.375 25.0312 32.9062C24.3749 32.5312 23.6249 32.1562 22.8749 31.875V28.7813C22.8749 27.8437 21.4687 27.8437 21.4687 28.7813V31.5C20.7187 31.4062 19.9687 31.4062 19.2187 31.5C19.1249 30.8437 18.9374 30.1875 18.7499 29.5312C18.5624 28.5937 17.1562 28.9687 17.4375 29.9062C17.625 30.5625 17.7187 31.2187 17.9062 31.875C17.8125 31.875 17.8124 31.875 17.7187 31.9687C15.8437 32.7187 14.625 34.5937 16.0312 36.375C16.6875 37.2187 17.5312 37.5 18.4687 37.6875C18.5624 38.9063 18.5624 40.125 18.5624 41.3437C17.9062 40.9687 17.3437 40.4062 16.8749 39.9375C16.2187 39.2812 15.2812 40.3125 15.8437 40.9688C16.6874 41.9063 17.6249 42.5625 18.5624 43.0313C18.5624 44.0625 18.6562 45.0938 18.7499 46.125C18.8437 47.0625 20.2499 47.0625 20.1562 46.125C20.0624 45.1875 19.9687 44.3437 19.9687 43.4062C20.5312 43.5 21.0937 43.5 21.6562 43.5C21.75 44.4375 21.8437 45.375 21.9374 46.4063C22.0312 47.3438 23.4374 47.3438 23.3437 46.4063C23.2499 45.375 23.1562 44.3437 23.0625 43.2187C25.125 42.4687 27 40.875 26.5312 38.5312ZM21.4687 32.9062V36C20.9999 36 20.625 36.0937 20.25 36.0937H19.7812L19.4999 32.7188C20.1562 32.7188 20.8124 32.8125 21.4687 32.9062ZM18.0937 35.9062C17.7187 35.8125 17.3437 35.5312 16.9687 35.25C16.125 34.4062 17.3437 33.6562 18.0937 33.2812C18.1874 34.2187 18.2812 35.0625 18.375 36C18.2812 36 18.1874 36 18.0937 35.9062ZM21.1875 41.9063C20.7187 42 20.3437 41.9062 19.9687 41.8125C19.8749 40.4062 19.8749 39 19.8749 37.5C20.4374 37.5 20.9999 37.4063 21.5624 37.4063C21.5624 38.9063 21.6562 40.3125 21.6562 41.8125C21.4687 41.9062 21.375 41.9063 21.1875 41.9063ZM24.2812 40.875C23.9062 41.1562 23.4375 41.3437 23.0625 41.5312C22.9687 40.125 22.9687 38.8125 22.9687 37.4063H23.4374C25.2187 37.7813 25.6874 39.75 24.2812 40.875Z" fill="white"/>
<path d="M34.125 1.875C34.125 7.59375 26.7187 16.875 21 16.875C15.2813 16.875 7.875 8.53125 7.875 2.8125C7.875 -2.90625 8.71875 2.8125 14.4375 2.8125C15.2812 2.8125 19.2188 0 21 0C22.2187 0 25.6875 2.8125 27.5625 2.8125C32.5313 2.8125 34.125 -2.4375 34.125 1.875Z" fill="#86A8FF"/>
<path d="M19.3125 12.4688C18.75 12.8438 16.0313 12.5625 15.1875 13.2188C14.0625 14.0625 15.6563 16.0313 14.5313 17.25C12.2813 19.5 10.5 22.0313 11.0625 23.4375C12 25.875 13.7813 18.9375 15.375 21.5625C16.9688 24.1875 16.6875 19.7813 19.125 22.0313C21.5625 24.2813 19.5 18 21.8438 20.7188C24.1875 23.4375 24.2813 26.5313 25.9688 26.5313C27.9375 26.5313 23.9063 19.125 26.5313 20.9063C29.1563 22.6875 32.0625 22.0313 29.4375 19.3125C28.5938 18.4688 27.4688 16.9688 26.1563 15.6563C25.6875 15.1875 26.0625 12.75 25.5938 12.375C25.0313 11.9063 23.625 13.4063 23.0625 13.125C21.9375 12.5625 22.3125 13.5938 20.625 13.875C19.5 14.25 20.4375 11.7188 19.3125 12.4688Z" fill="#D9B07C"/>
<path d="M8.53115 18C12.1874 14.5313 18.8437 16.5 22.7812 18.1875C26.6249 19.875 28.9687 14.5313 26.5312 11.8125C25.1249 10.2188 22.8749 12.0938 22.0312 13.2188C21.0937 14.3438 20.3437 15.5625 19.3124 16.6875C17.8124 18.375 14.1562 16.9688 15.2812 14.625C16.4999 12.1875 21.6562 15 23.3437 15.4688C26.6249 16.4063 30.0937 16.7813 33.3749 15.5625C34.4999 15.1875 34.0312 13.3125 32.9062 13.7813C29.2499 15.0938 25.5937 14.25 22.1249 13.125C20.3437 12.5625 17.5312 11.0625 15.6562 11.9063C10.3124 14.4375 15.2812 21.6563 19.7812 18.8438C20.8124 18.1875 21.4687 17.1563 22.2187 16.2188C22.6874 15.6563 25.0312 12.0938 25.5937 13.875C25.8749 14.8125 25.5937 16.5 24.5624 16.7813C23.9062 17.0625 22.5937 16.125 21.9374 15.9375C20.7187 15.4688 19.4999 15.0938 18.1874 14.8125C14.7187 14.0625 10.0312 14.25 7.3124 16.7813C6.3749 17.5313 7.6874 18.8438 8.53115 18Z" fill="#E8E8E8"/>
<path d="M33 0.46875C32.0625 1.21875 30.375 2.8125 27.5625 2.8125C25.6875 2.8125 22.2187 0 21 0C19.2188 0 15.2812 2.8125 14.4375 2.8125C11.3438 2.8125 9.65625 1.21875 8.8125 0.5625C8.8125 0.5625 9.84375 4.78125 13.0312 6.9375C15.375 8.4375 15.0938 6.65625 16.3125 4.96875C17.5312 3.28125 18.375 2.4375 20.5312 6.65625C21.6563 9 23.8125 0.28125 25.5 3.09375C28.5937 8.25 29.7187 5.4375 33 0.46875Z" fill="#437CFF"/>
</svg>
