<svg width="60" height="60" viewBox="0 0 60 60" fill="none" xmlns="http://www.w3.org/2000/svg">
<path d="M59.455 36.9858C57.773 34.6439 56.062 34.5189 51.9982 36.5788V39.5328C51.9982 40.5697 51.4483 41.5507 50.5633 42.0927L44.8386 45.5915L44.7865 45.6185C43.2336 46.4474 41.0547 46.8764 37.7218 47.0084L31.726 47.0114C30.427 47.0114 29.3221 46.1655 28.9091 45.0004H20.9994C17.9995 45.0004 17.9995 46.5054 17.9995 47.0004C17.9995 47.5534 17.5525 48.0003 16.9996 48.0003C16.4466 48.0003 15.9996 47.5534 15.9996 47.0004C15.9996 44.4955 17.8686 43.0006 20.9995 43.0006H28.9122C29.3202 41.8776 30.3781 41.0507 31.6361 41.0127H31.6412C30.8261 40.3487 29.7612 39.9727 28.6172 39.9727H24.7174C21.7355 39.9727 18.8466 39.0317 16.5806 37.3248C16.4816 37.2498 16.1887 37.0288 15.4557 37.0288C15.1786 37.0288 14.8647 37.0608 14.5207 37.1208C14.3636 37.1497 14.1807 37.1678 13.9967 37.1678C13.2968 37.1678 12.6137 36.9188 12.0738 36.4679C11.3908 35.8928 10.9998 35.0559 10.9998 34.167V34.017C9.43186 34.6439 8.02085 35.4519 6.99995 36.1019V34.0009H0V60H6.99972V57.0001H19.9992C22.0431 57.0001 24.1011 56.8451 26.115 56.5372L39.0776 54.5672C39.5496 54.5621 40.0276 54.5052 40.4536 54.4092C41.6465 54.2412 42.7875 53.6712 43.7555 52.7593L58.9119 40.9557L58.936 40.9377C60.1159 39.9598 60.3439 38.2239 59.455 36.9858ZM4.99986 37.5088V57.0001V58.0001H1.99997V36.0009H4.99986V37.5088Z" fill="#4987EF"/>
<path d="M25.9991 19.0015C27.102 19.0015 27.9991 18.1045 27.9991 17.0015C27.9991 15.8986 27.1022 15.0015 25.9991 15.0015C24.8962 15.0015 23.9991 15.8984 23.9991 17.0015C23.9991 18.1045 24.8962 19.0015 25.9991 19.0015Z" fill="#4987EF"/>
<path d="M37.9987 27.0012C36.8958 27.0012 35.9987 27.8981 35.9987 29.0012C35.9987 30.1042 36.8956 31.0012 37.9987 31.0012C39.1016 31.0012 39.9987 30.1042 39.9987 29.0012C39.9987 27.8981 39.1016 27.0012 37.9987 27.0012Z" fill="#4987EF"/>
<path d="M8.87673 20.0015H12.9996V34.167C12.9996 34.463 13.1306 34.7429 13.3565 34.9339C13.5835 35.1229 13.8855 35.2059 14.1735 35.151C15.7265 34.877 16.9065 35.0649 17.7834 35.728C19.7044 37.1749 22.1672 37.9728 24.7171 37.9728H28.617C30.8828 37.9728 32.9478 39.0368 34.1428 40.8188C34.5548 41.4348 34.7247 41.9488 34.5978 42.1957C34.4068 42.5647 33.4368 42.9606 31.6959 43.0116C31.1488 43.0277 30.7178 43.4806 30.7259 44.0256C30.733 44.5726 31.179 45.0116 31.7259 45.0116L37.6427 45.0105C40.6146 44.8925 42.5695 44.5345 43.8454 43.8545L49.5203 40.3866C49.8163 40.2046 49.9983 39.8816 49.9983 39.5327V20.0015H53.9981C54.4121 20.0015 54.782 19.7465 54.932 19.3605C55.08 18.9755 54.976 18.5375 54.6691 18.2605L36.7127 2.01806C33.7029 -0.672823 29.168 -0.673878 26.1581 2.02204L8.20574 18.2605C7.89872 18.5375 7.79478 18.9754 7.94278 19.3605C8.09278 19.7465 8.46273 20.0015 8.87673 20.0015ZM37.9987 33.001C35.7927 33.001 33.9989 31.207 33.9989 29.0012C33.9989 26.7953 35.7928 25.0014 37.9987 25.0014C40.2047 25.0014 41.9985 26.7953 41.9985 29.0012C41.9985 31.207 40.2047 33.001 37.9987 33.001ZM25.9991 13.0017C28.2051 13.0017 29.9989 14.7956 29.9989 17.0015C29.9989 19.2073 28.205 21.0013 25.9991 21.0013C23.7932 21.0013 21.9993 19.2073 21.9993 17.0015C21.9993 14.7956 23.7931 13.0017 25.9991 13.0017ZM22.2922 31.2941L40.2916 13.2947C40.6825 12.9037 41.3146 12.9037 41.7055 13.2947C42.0965 13.6858 42.0965 14.3177 41.7055 14.7087L23.7062 32.708C23.5112 32.903 23.2551 33.001 22.9992 33.001C22.7432 33.001 22.4872 32.903 22.2922 32.708C21.9012 32.317 21.9012 31.685 22.2922 31.2941Z" fill="#4987EF"/>
</svg>
