<svg width="60" height="60" viewBox="0 0 60 60" fill="none" xmlns="http://www.w3.org/2000/svg">
<path d="M29.9997 49.6862C40.8723 49.6862 49.6862 40.8723 49.6862 29.9997C49.6862 19.1272 40.8723 10.3132 29.9997 10.3132C19.1272 10.3132 10.3132 19.1272 10.3132 29.9997C10.3132 40.8723 19.1272 49.6862 29.9997 49.6862Z" fill="#6D95F1"/>
<path d="M29.9999 0C29.1019 0 28.3737 0.728087 28.3737 1.62621C28.3737 2.52434 29.1019 3.25243 29.9999 3.25243C36.7904 3.25243 42.9966 5.79728 47.7186 9.98158L43.877 13.8231C40.0156 10.5001 35.1476 8.68748 30.0001 8.68748C24.7082 8.68748 19.8613 10.6267 16.1309 13.8311L11.138 8.8383C11.1293 8.82963 11.1198 8.82236 11.111 8.81392C11.1026 8.80513 11.0952 8.79553 11.0867 8.78697C10.4515 8.15193 9.42213 8.15193 8.78674 8.78697C3.12048 14.4532 0 21.987 0 29.9999C0 46.542 13.4581 59.9999 29.9999 59.9999C38.0132 59.9999 45.547 56.8794 51.2133 51.213C56.8795 45.5467 60 38.013 60 29.9999C60.0001 13.4581 46.542 0 29.9999 0ZM42.7786 17.2375C43.4131 17.8729 44.4426 17.8737 45.0783 17.2388C45.1254 17.1917 45.168 17.1418 45.2082 17.0907C45.2116 17.0873 45.2154 17.0844 45.2188 17.081L50.0185 12.2814C53.8663 16.6235 56.3259 22.2213 56.6967 28.3738H54.8875C53.9894 28.3738 53.2612 29.1019 53.2612 30.0001C53.2612 30.8982 53.9894 31.6263 54.8875 31.6263H56.6974C56.3403 37.6197 54.0132 43.2374 50.0278 47.728L46.1689 43.8691C49.3733 40.1387 51.3125 35.2919 51.3125 29.9999C51.3125 29.1018 50.5843 28.3737 49.6863 28.3737C48.7883 28.3737 48.0601 29.1018 48.0601 29.9999C48.0601 39.9583 39.9583 48.0602 29.9998 48.0602C20.0413 48.0602 11.9396 39.9584 11.9396 29.9999C11.9396 20.0414 20.0413 11.9397 29.9998 11.9397C34.8283 11.9399 39.3664 13.8214 42.7786 17.2375ZM29.9999 53.1044C29.1019 53.1044 28.3737 53.8325 28.3737 54.7307V56.6967C22.2211 56.3258 16.6233 53.8662 12.2813 50.0185L16.1309 46.169C19.8613 49.3734 24.7081 51.3126 30.0001 51.3126C35.292 51.3126 40.1388 49.3734 43.8692 46.169L47.7281 50.0279C43.2376 54.0133 37.6198 56.3403 31.6263 56.6975V54.7309C31.6262 53.8325 30.8981 53.1044 29.9999 53.1044ZM3.30329 31.6262H8.749C9.10185 36.282 10.958 40.5245 13.8311 43.8691L9.98147 47.7187C6.13372 43.3766 3.67419 37.779 3.30329 31.6262ZM9.97221 12.2721L13.8311 16.131C10.9581 19.4758 9.10197 23.7181 8.749 28.374H3.30258C3.65966 22.3805 5.98677 16.7628 9.97221 12.2721Z" fill="#84AAEB"/>
<path d="M37.1822 24.0601C37.0802 23.958 36.9491 23.9067 36.7895 23.9067H34.1977C34.0042 22.963 33.6403 22.1428 33.1055 21.4497H36.7546C36.9143 21.4497 37.0452 21.3984 37.1473 21.2963C37.2496 21.194 37.3007 21.0631 37.3007 20.9036V19.1628C37.3007 19.0034 37.2496 18.8725 37.1473 18.7701C37.0452 18.668 36.9142 18.6167 36.7546 18.6167H23.2105C23.0511 18.6167 22.9202 18.6681 22.8178 18.7701C22.7155 18.8724 22.6644 19.0033 22.6644 19.1628V21.4319C22.6644 21.5804 22.7186 21.708 22.8271 21.8165C22.9344 21.9239 23.0624 21.978 23.2105 21.978H25.3587C27.7586 21.978 29.2833 22.6202 29.9317 23.9055H23.2105C23.0511 23.9055 22.9202 23.9568 22.8178 24.06C22.7155 24.1623 22.6644 24.2922 22.6644 24.4516V26.1921C22.6644 26.3514 22.7155 26.4823 22.8178 26.5848C22.9201 26.6868 23.051 26.7382 23.2105 26.7382H30.1709C29.9203 27.6716 29.3373 28.3824 28.4212 28.8711C27.5059 29.3599 26.2974 29.6053 24.7963 29.6053H23.2104C23.0623 29.6053 22.9343 29.6585 22.827 29.7668C22.7187 29.875 22.6643 30.0029 22.6643 30.1514V31.9422C22.6643 32.1848 22.751 32.4195 22.9085 32.6039L29.9999 41.1784C30.1022 41.3144 30.2441 41.3831 30.4262 41.3831H33.7537C33.9919 41.3831 34.1576 41.2808 34.2474 41.0753C34.362 40.8709 34.3396 40.6773 34.1801 40.4954C30.8587 36.4235 29.2378 34.6323 27.3381 32.6076C29.2716 32.3804 30.8412 31.7547 32.0471 30.7312C33.2526 29.7073 33.9868 28.376 34.2485 26.7391H36.7893C36.949 26.7391 37.0799 26.6878 37.182 26.5846C37.2843 26.4823 37.3354 26.3514 37.3354 26.193V24.4525C37.3356 24.2933 37.2845 24.1624 37.1822 24.0601Z" fill="white"/>
</svg>
